<?xml version="1.0" ?>
<!-- # of participants: 0-->
<!-- first participant id: -->
<!-- last participant id: -->
<!-- last participant's Y: -->
<!-- max bottom edge: 385.138084505208-->
<!-- heightLowestShape: 385.138084505208-->
<!-- last lane id: -->
<!-- y of last lane: -->
<!-- height of last lane: -->
<!-- participant height: 0-->
<!-- lane height: 0-->
<!-- diagram height: 485.138084505208-->
<!-- canvas height: 485.138084505208-->
<!-- font size: 11.0-->
<svg xmlns="http://www.w3.org/2000/svg" id="Trisotech_Visio-_6" name="A.1.0" version="1.1" xml:lang="" height="485.138084505208" width="811.529658792651" viewBox="0 0 811.529658792651 485.138084505208">
  <rect height="100%" width="100%" fill="#ffffff"/>
  <defs>
    <marker id="backslash" markerWidth="6" markerHeight="6" refX="-2" refY="3" markerUnits="strokeWidth" orient="auto">
      <path d="M 0,0 10,10" stroke="#666666" stroke-width="1px"/>
    </marker>
    <marker id="circle" markerWidth="10" markerHeight="10" refX="0" refY="3" markerUnits="strokeWidth" orient="auto">
      <circle cx="3" cy="3" r="3" stroke-width="1px" fill="#ffffff" stroke="#666666"/>
    </marker>
    <marker id="diamond" markerWidth="10" markerHeight="10" refX="0" refY="2" markerUnits="strokeWidth" orient="auto">
      <path d="M 0,2 L 4,4 8,2 4,0 z" fill="#ffffff" stroke="#666666"/>
    </marker>
    <marker id="unfilled-envelope" markerWidth="16" markerHeight="12" refX="3" refY="-20" markerUnits="strokeWidth" orient="auto">
      <path d="m 353.77539,495.84961 0,694.62499 1052.97461,0 0,-694.62499 z m 108.98242,45.44336 835.00779,0 -417.50388,274.67187 z m -63.54101,12.58984 481.04492,316.47657 481.04488,-316.47657 0,591.15039 -962.0898,0 z" stroke-width="1px" fill="#ffffff" stroke="#666666"/>
    </marker>
    <marker id="filled-arrow" markerWidth="10" markerHeight="10" refX="8" refY="3" orient="auto" markerUnits="strokeWidth">
      <path d="M0,0 L0,6 L9,3 z" fill="#666666"/>
    </marker>
    <marker id="unfilled-arrow" markerWidth="10" markerHeight="10" refX="8" refY="3" orient="auto" markerUnits="strokeWidth">
      <path d="M0,0 L0,6 L9,3 z" fill="#ffffff" stroke="#666666"/>
    </marker>
    <marker id="open-arrow" markerWidth="10" markerHeight="10" refX="8" refY="3" orient="auto" markerUnits="strokeWidth">
      <path d="M 0,0 C 4.514306,2.8087928 4.7790399,2.7522338 0,6 M 0,6 9,3 0,0" fill="#666666"/>
    </marker>
  </defs>
  <!--FLOW OR ASSOC _e16564d7-0c4c-413e-95f6-f668a3f851fb-->
  <path id="_e16564d7-0c4c-413e-95f6-f668a3f851fbClickTarget" class="flow sequenceFlowClickTarget" d="M 216.0 351.0 L 234.0 351.0 L 258.0 351.0" stroke="transparent" stroke-width="20" fill="transparent"/>
  <path id="_e16564d7-0c4c-413e-95f6-f668a3f851fb" class="flow sequenceFlow" data-type="sequenceFlow" d="M 216.0 351.0 L 234.0 351.0 L 258.0 351.0" stroke="#666666" stroke-width="2.0" fill="transparent" style=" marker-end:url(#filled-arrow)"/>
  <!--
        Determined fill for sequenceFlow (false) should be: #666666-->
  <!--EUREKA!!!
          351.0-->
  <text class="label sequenceFlowLabel" id="_e16564d7-0c4c-413e-95f6-f668a3f851fb_label" fill="#666666" text-anchor="middle" transform="rotate(0) translate(0, 0)" x="216.0" y="362" style="font-size:11.0px;font-family:sans-serif" stroke-width="0"/>
  <!--FLOW OR ASSOC _d77dd5ec-e4e7-420e-bbe7-8ac9cd1df599-->
  <path id="_d77dd5ec-e4e7-420e-bbe7-8ac9cd1df599ClickTarget" class="flow sequenceFlowClickTarget" d="M 342.0 351.0 L 390.0 351.0" stroke="transparent" stroke-width="20" fill="transparent"/>
  <path id="_d77dd5ec-e4e7-420e-bbe7-8ac9cd1df599" class="flow sequenceFlow" data-type="sequenceFlow" d="M 342.0 351.0 L 390.0 351.0" stroke="#666666" stroke-width="2.0" fill="transparent" style=" marker-end:url(#filled-arrow)"/>
  <!--
        Determined fill for sequenceFlow (false) should be: #666666-->
  <!--EUREKA!!!
          351.0-->
  <text class="label sequenceFlowLabel" id="_d77dd5ec-e4e7-420e-bbe7-8ac9cd1df599_label" fill="#666666" text-anchor="middle" transform="rotate(0) translate(0, 0)" x="342.0" y="362" style="font-size:11.0px;font-family:sans-serif" stroke-width="0"/>
  <!--FLOW OR ASSOC _2aa47410-1b0e-4f8b-ad54-d6f798080cb4-->
  <path id="_2aa47410-1b0e-4f8b-ad54-d6f798080cb4ClickTarget" class="flow sequenceFlowClickTarget" d="M 474.0 351.0 L 522.0 351.0" stroke="transparent" stroke-width="20" fill="transparent"/>
  <path id="_2aa47410-1b0e-4f8b-ad54-d6f798080cb4" class="flow sequenceFlow" data-type="sequenceFlow" d="M 474.0 351.0 L 522.0 351.0" stroke="#666666" stroke-width="2.0" fill="transparent" style=" marker-end:url(#filled-arrow)"/>
  <!--
        Determined fill for sequenceFlow (false) should be: #666666-->
  <!--EUREKA!!!
          351.0-->
  <text class="label sequenceFlowLabel" id="_2aa47410-1b0e-4f8b-ad54-d6f798080cb4_label" fill="#666666" text-anchor="middle" transform="rotate(0) translate(0, 0)" x="474.0" y="362" style="font-size:11.0px;font-family:sans-serif" stroke-width="0"/>
  <!--FLOW OR ASSOC _8e8fe679-eb3b-4c43-a4d6-891e7087ff80-->
  <path id="_8e8fe679-eb3b-4c43-a4d6-891e7087ff80ClickTarget" class="flow sequenceFlowClickTarget" d="M 606.0 351.0 L 624.0 351.0 L 648.0 351.0" stroke="transparent" stroke-width="20" fill="transparent"/>
  <path id="_8e8fe679-eb3b-4c43-a4d6-891e7087ff80" class="flow sequenceFlow" data-type="sequenceFlow" d="M 606.0 351.0 L 624.0 351.0 L 648.0 351.0" stroke="#666666" stroke-width="2.0" fill="transparent" style=" marker-end:url(#filled-arrow)"/>
  <!--
        Determined fill for sequenceFlow (false) should be: #666666-->
  <!--EUREKA!!!
          351.0-->
  <text class="label sequenceFlowLabel" id="_8e8fe679-eb3b-4c43-a4d6-891e7087ff80_label" fill="#666666" text-anchor="middle" transform="rotate(0) translate(0, 0)" x="606.0" y="362" style="font-size:11.0px;font-family:sans-serif" stroke-width="0"/>
  <g id="_ec59e164-68b4-4f94-98de-ffb1c58a84afGroup">
    <rect id="_ec59e164-68b4-4f94-98de-ffb1c58a84af" class="task task collapsed" data-name="Task 1" data-type="task" stroke="#666666" stroke-width="1px" fill="#bbd3d3" height="68.0" rx="5" ry="5" width="83.0" x="258.0" y="317.0">
      <title> n/a </title>
    </rect>
    <path class="icon task" data-called-element="" fill="#666666" stroke="#666666"/>
    <!--
        Determined fill for task (false) should be: #666666-->
    <!--Semantic element: task, len: 6, lenAfter: 1, labelX: 299.574803149606, labelY: 344.5818763825664, label width: 83, label height: 68, lines expected: 1, ideal len: 6, actual len: 7
-->
    <text class="label taskLabel" id="_ec59e164-68b4-4f94-98de-ffb1c58a84af_label" fill="#666666" text-anchor="middle" transform="rotate(0, 299.574803149606, 358.581876382566)" x="299.574803149606" y="355.581876382566" style="font-size:11.0px;font-family:Arial,sans-serif" stroke-width="0">Task 1</text>
    <!--Semantic element: task, len: 0, lenAfter: 0, labelX: 299.574803149606, labelY: 344.5818763825664, label width: 83, label height: 68, lines expected: 1, ideal len: 6, actual len: 6
-->
    <text class="label taskLabel" id="_ec59e164-68b4-4f94-98de-ffb1c58a84af_label" fill="#666666" text-anchor="middle" transform="rotate(0, 299.574803149606, 358.581876382566)" x="299.574803149606" y="366.581876382566" style="font-size:11.0px;font-family:Arial,sans-serif" stroke-width="0"/>
    <!-- x 258.0 y 317.0 height 68.0 width 83.0-->
    <!--No activity markers-->
  </g>
  <rect id="_ec59e164-68b4-4f94-98de-ffb1c58a84afIssueBG" class="issue" fill="yellow" height="24" width="24" rx="2" ry="2" visibility="hidden" x="246" y="305"/>
  <g id="_ec59e164-68b4-4f94-98de-ffb1c58a84afIssue" class="issue" transform="translate(248,307) scale(0.04)" visibility="hidden">
    <path fill="#ff6c06" d="M256 46.387l214.551 427.613h-429.103l214.552-427.613zM256 0c-11.035 0-22.070 7.441-30.442 22.324l-218.537 435.556c-16.743 29.766-2.5 54.12 31.652 54.12h434.654c34.15 0 48.396-24.354 31.65-54.12h0.001l-218.537-435.556c-8.371-14.883-19.406-22.324-30.441-22.324v0z"/>
    <path fill="#ff6c06" d="M288 416c0 17.673-14.327 32-32 32s-32-14.327-32-32c0-17.673 14.327-32 32-32s32 14.327 32 32z"/>
    <path fill="#ff6c06" d="M256 352c-17.673 0-32-14.327-32-32v-96c0-17.673 14.327-32 32-32s32 14.327 32 32v96c0 17.673-14.327 32-32 32z"/>
  </g>
  <g id="_820c21c0-45f3-473b-813f-06381cc637cdGroup">
    <rect id="_820c21c0-45f3-473b-813f-06381cc637cd" class="task task collapsed" data-name="Task 2" data-type="task" stroke="#666666" stroke-width="1px" fill="#bbd3d3" height="68.0" rx="5" ry="5" width="83.0" x="390.0" y="317.0">
      <title> n/a </title>
    </rect>
    <path class="icon task" data-called-element="" fill="#666666" stroke="#666666"/>
    <!--
        Determined fill for task (false) should be: #666666-->
    <!--Semantic element: task, len: 6, lenAfter: 1, labelX: 431.574803149606, labelY: 344.5818763825664, label width: 83, label height: 68, lines expected: 1, ideal len: 6, actual len: 7
-->
    <text class="label taskLabel" id="_820c21c0-45f3-473b-813f-06381cc637cd_label" fill="#666666" text-anchor="middle" transform="rotate(0, 431.574803149606, 358.581876382566)" x="431.574803149606" y="355.581876382566" style="font-size:11.0px;font-family:Arial,sans-serif" stroke-width="0">Task 2</text>
    <!--Semantic element: task, len: 0, lenAfter: 0, labelX: 431.574803149606, labelY: 344.5818763825664, label width: 83, label height: 68, lines expected: 1, ideal len: 6, actual len: 6
-->
    <text class="label taskLabel" id="_820c21c0-45f3-473b-813f-06381cc637cd_label" fill="#666666" text-anchor="middle" transform="rotate(0, 431.574803149606, 358.581876382566)" x="431.574803149606" y="366.581876382566" style="font-size:11.0px;font-family:Arial,sans-serif" stroke-width="0"/>
    <!-- x 390.0 y 317.0 height 68.0 width 83.0-->
    <!--No activity markers-->
  </g>
  <rect id="_820c21c0-45f3-473b-813f-06381cc637cdIssueBG" class="issue" fill="yellow" height="24" width="24" rx="2" ry="2" visibility="hidden" x="378" y="305"/>
  <g id="_820c21c0-45f3-473b-813f-06381cc637cdIssue" class="issue" transform="translate(380,307) scale(0.04)" visibility="hidden">
    <path fill="#ff6c06" d="M256 46.387l214.551 427.613h-429.103l214.552-427.613zM256 0c-11.035 0-22.070 7.441-30.442 22.324l-218.537 435.556c-16.743 29.766-2.5 54.12 31.652 54.12h434.654c34.15 0 48.396-24.354 31.65-54.12h0.001l-218.537-435.556c-8.371-14.883-19.406-22.324-30.441-22.324v0z"/>
    <path fill="#ff6c06" d="M288 416c0 17.673-14.327 32-32 32s-32-14.327-32-32c0-17.673 14.327-32 32-32s32 14.327 32 32z"/>
    <path fill="#ff6c06" d="M256 352c-17.673 0-32-14.327-32-32v-96c0-17.673 14.327-32 32-32s32 14.327 32 32v96c0 17.673-14.327 32-32 32z"/>
  </g>
  <g id="_e70a6fcb-913c-4a7b-a65d-e83adc73d69cGroup">
    <rect id="_e70a6fcb-913c-4a7b-a65d-e83adc73d69c" class="task task collapsed" data-name="Task 3" data-type="task" stroke="#666666" stroke-width="1px" fill="#bbd3d3" height="68.0" rx="5" ry="5" width="83.0" x="522.0" y="317.0">
      <title> n/a </title>
    </rect>
    <path class="icon task" data-called-element="" fill="#666666" stroke="#666666"/>
    <!--
        Determined fill for task (false) should be: #666666-->
    <!--Semantic element: task, len: 6, lenAfter: 1, labelX: 563.574803149606, labelY: 344.5818763825664, label width: 83, label height: 68, lines expected: 1, ideal len: 6, actual len: 7
-->
    <text class="label taskLabel" id="_e70a6fcb-913c-4a7b-a65d-e83adc73d69c_label" fill="#666666" text-anchor="middle" transform="rotate(0, 563.574803149606, 358.581876382566)" x="563.574803149606" y="355.581876382566" style="font-size:11.0px;font-family:Arial,sans-serif" stroke-width="0">Task 3</text>
    <!--Semantic element: task, len: 0, lenAfter: 0, labelX: 563.574803149606, labelY: 344.5818763825664, label width: 83, label height: 68, lines expected: 1, ideal len: 6, actual len: 6
-->
    <text class="label taskLabel" id="_e70a6fcb-913c-4a7b-a65d-e83adc73d69c_label" fill="#666666" text-anchor="middle" transform="rotate(0, 563.574803149606, 358.581876382566)" x="563.574803149606" y="366.581876382566" style="font-size:11.0px;font-family:Arial,sans-serif" stroke-width="0"/>
    <!-- x 522.0 y 317.0 height 68.0 width 83.0-->
    <!--No activity markers-->
  </g>
  <rect id="_e70a6fcb-913c-4a7b-a65d-e83adc73d69cIssueBG" class="issue" fill="yellow" height="24" width="24" rx="2" ry="2" visibility="hidden" x="510" y="305"/>
  <g id="_e70a6fcb-913c-4a7b-a65d-e83adc73d69cIssue" class="issue" transform="translate(512,307) scale(0.04)" visibility="hidden">
    <path fill="#ff6c06" d="M256 46.387l214.551 427.613h-429.103l214.552-427.613zM256 0c-11.035 0-22.070 7.441-30.442 22.324l-218.537 435.556c-16.743 29.766-2.5 54.12 31.652 54.12h434.654c34.15 0 48.396-24.354 31.65-54.12h0.001l-218.537-435.556c-8.371-14.883-19.406-22.324-30.441-22.324v0z"/>
    <path fill="#ff6c06" d="M288 416c0 17.673-14.327 32-32 32s-32-14.327-32-32c0-17.673 14.327-32 32-32s32 14.327 32 32z"/>
    <path fill="#ff6c06" d="M256 352c-17.673 0-32-14.327-32-32v-96c0-17.673 14.327-32 32-32s32 14.327 32 32v96c0 17.673-14.327 32-32 32z"/>
  </g>
  <circle id="_93c466ab-b271-4376-a427-f4c353d55ce8" class="event startEvent" data-type="startEvent" cx="201" cy="351" fill="#ffffff" r="15" stroke="#666666" stroke-width="2">
    <title>Interrupting </title>
  </circle>
  <!--
        Determined fill for startEvent (false) should be: #666666-->
  <!--Semantic element: startEvent, len: 11, lenAfter: 1, labelX: 201.144334211239, labelY: 371.3333333333333, label width: 30, label height: 30, lines expected: 1, ideal len: 11, actual len: 12
-->
  <text class="label startEventLabel" id="_93c466ab-b271-4376-a427-f4c353d55ce8_label" fill="#666666" text-anchor="middle" transform="rotate(0, 201.144334211239, 385.333333333333)" x="201.144334211239" y="382.333333333333" style="font-size:11.0px;font-family:Arial,sans-serif" stroke-width="0">Start Event</text>
  <!--Semantic element: startEvent, len: 0, lenAfter: 0, labelX: 201.144334211239, labelY: 371.3333333333333, label width: 30, label height: 30, lines expected: 1, ideal len: 11, actual len: 11
-->
  <text class="label startEventLabel" id="_93c466ab-b271-4376-a427-f4c353d55ce8_label" fill="#666666" text-anchor="middle" transform="rotate(0, 201.144334211239, 385.333333333333)" x="201.144334211239" y="393.333333333333" style="font-size:11.0px;font-family:Arial,sans-serif" stroke-width="0"/>
  <circle id="_a47df184-085b-49f7-bb82-031c84625821" class="event endEvent" data-type="endEvent" cx="664" cy="351" fill="#ffffff" r="16" stroke="#666666" stroke-width="4">
    <title>Interrupting </title>
  </circle>
  <!--
        Determined fill for endEvent (false) should be: #666666-->
  <!--Semantic element: endEvent, len: 9, lenAfter: 1, labelX: 664.062992125984, labelY: 372.3333333333333, label width: 32, label height: 32, lines expected: 1, ideal len: 9, actual len: 10
-->
  <text class="label endEventLabel" id="_a47df184-085b-49f7-bb82-031c84625821_label" fill="#666666" text-anchor="middle" transform="rotate(0, 664.062992125984, 386.333333333333)" x="664.062992125984" y="383.333333333333" style="font-size:11.0px;font-family:Arial,sans-serif" stroke-width="0">End Event</text>
  <!--Semantic element: endEvent, len: 0, lenAfter: 0, labelX: 664.062992125984, labelY: 372.3333333333333, label width: 32, label height: 32, lines expected: 1, ideal len: 9, actual len: 9
-->
  <text class="label endEventLabel" id="_a47df184-085b-49f7-bb82-031c84625821_label" fill="#666666" text-anchor="middle" transform="rotate(0, 664.062992125984, 386.333333333333)" x="664.062992125984" y="394.333333333333" style="font-size:11.0px;font-family:Arial,sans-serif" stroke-width="0"/>
</svg>