<?xml version="1.0" encoding="utf-8"?>
<!-- created with bpmn-js / http://bpmn.io -->
<!DOCTYPE svg PUBLIC "-//W3C//DTD SVG 1.1//EN" "http://www.w3.org/Graphics/SVG/1.1/DTD/svg11.dtd">
<svg xmlns="http://www.w3.org/2000/svg" xmlns:xlink="http://www.w3.org/1999/xlink" width="624.322265625" height="258" viewBox="148.67770385742188 167 624.322265625 258" version="1.1"><defs><marker viewBox="0 0 20 20" markerWidth="10" markerHeight="10" orient="auto" refX="11" refY="10" id="markerSi03vyvho8"><path d="M 1 5 L 11 10 L 1 15 Z" style="stroke-width: 1px; stroke-linecap: round; stroke-dasharray: 10000px, 1px; " fill="#000000"/></marker><marker viewBox="0 0 20 20" markerWidth="20" markerHeight="20" orient="auto" refX="6" refY="6" id="markerSi03vyvhoa"><circle cx="6" cy="6" r="5" style="stroke-width: 1px; stroke-linecap: round; stroke-dasharray: 10000px, 1px; " fill="#ffffff" stroke="#000000"/></marker><marker viewBox="0 0 20 20" markerWidth="20" markerHeight="20" orient="auto" refX="11" refY="10" id="markerSi03vyvhoc"><path d="M 1 5 L 11 10 L 1 15 Z" style="stroke-width: 1px; stroke-linecap: round; stroke-dasharray: 10000px, 1px; " fill="#ffffff" stroke="#000000"/></marker><marker viewBox="0 0 20 20" markerWidth="10" markerHeight="10" orient="auto" refX="11" refY="10" id="markerSi03vyvhoe"><path d="M 1 5 L 11 10 L 1 15" style="stroke-width: 1px; stroke-linecap: round; stroke-dasharray: 10000px, 1px; " fill="#ffffff" stroke="#000000"/></marker><marker viewBox="0 0 20 20" markerWidth="10" markerHeight="10" orient="auto" refX="-1" refY="10" id="markerSi03vyvhog"><path d="M 0 10 L 8 6 L 16 10 L 8 14 Z" style="stroke-width: 1px; stroke-linecap: round; stroke-dasharray: 10000px, 1px; " fill="#ffffff" stroke="#000000"/></marker><marker viewBox="0 0 20 20" markerWidth="10" markerHeight="10" orient="auto" refX="-5" refY="10" id="markerSi03vyvhoi"><path d="M 1 4 L 5 16" style="stroke-width: 1px; stroke-linecap: round; stroke-dasharray: 10000px, 1px; " fill="#000000" stroke="#000000"/></marker></defs><g class=" djs-group djs-shape" data-element-id="_6b5db6a9-037a-49ad-9201-09201e2aaa97" transform="matrix(1,0,0,1,186,276)" style="display: block; -webkit-user-select: none; -webkit-user-drag: none; " xmlns="http://www.w3.org/2000/svg"><rect fill="none" class="djs-outline" x="-5" y="-5" width="40" height="40"></rect><g class=" djs-visual"><circle cx="15" cy="15" r="15" style="stroke-width: 2px; " stroke="#000000" fill="#ffffff"></circle></g><rect x="0" y="0" width="30" height="30" style="stroke-opacity: 0; stroke-width: 10px; " fill="none" stroke="#ffffff" class="djs-hit"></rect></g><g class=" djs-group djs-shape" data-element-id="_6b5db6a9-037a-49ad-9201-09201e2aaa97_label" transform="matrix(1,0,0,1,153.6777,304.931)" style="display: block; -webkit-user-select: none; -webkit-user-drag: none; " xmlns="http://www.w3.org/2000/svg"><rect fill="none" class="djs-outline" x="-5" y="-5" width="104.93333333333335" height="22.804751171875008"></rect><g class=" djs-visual"><text class=" djs-label" style="font-family: Arial, sans-serif; font-size: 11px; "><tspan x="20.966666666666676" y="12">Start Event</tspan></text></g><rect x="0" y="0" width="94.93333333333335" height="12.804751171875008" style="stroke-opacity: 0; stroke-width: 10px; " fill="none" stroke="#ffffff" class="djs-hit"></rect></g><g class=" djs-group djs-shape" data-element-id="_5a972b87-735d-454a-b31c-f52fb3afc5c7" transform="matrix(1,0,0,1,252,257)" style="display: block; -webkit-user-select: none; -webkit-user-drag: none; " xmlns="http://www.w3.org/2000/svg"><rect fill="none" class="djs-outline" x="-5" y="-5" width="93" height="78"></rect><g class=" djs-visual"><rect x="0" y="0" width="83" height="68" rx="10" ry="10" style="stroke-width: 2px; " stroke="#000000" fill="#ffffff"></rect><text class=" djs-label" style="font-family: Arial, sans-serif; font-size: 12px; "><tspan x="23" y="37.5">Task 1</tspan></text></g><rect x="0" y="0" width="83" height="68" style="stroke-opacity: 0; stroke-width: 10px; " fill="none" stroke="#ffffff" class="djs-hit"></rect></g><g class=" djs-group djs-shape" data-element-id="_258f51eb-b764-4a71-b681-3a01cca14143" transform="matrix(1,0,0,1,736,244)" style="display: block; -webkit-user-select: none; -webkit-user-drag: none; " xmlns="http://www.w3.org/2000/svg"><rect fill="none" class="djs-outline" x="-5" y="-5" width="42" height="42"></rect><g class=" djs-visual"><circle cx="16" cy="16" r="16" style="stroke-width: 4px; " stroke="#000000" fill="#ffffff"></circle></g><rect x="0" y="0" width="32" height="32" style="stroke-opacity: 0; stroke-width: 10px; " fill="none" stroke="#ffffff" class="djs-hit"></rect></g><g class=" djs-group djs-shape" data-element-id="_258f51eb-b764-4a71-b681-3a01cca14143_label" transform="matrix(1,0,0,1,656.5963,251.1952)" style="display: block; -webkit-user-select: none; -webkit-user-drag: none; " xmlns="http://www.w3.org/2000/svg"><rect fill="none" class="djs-outline" x="-5" y="-5" width="104.93333333333335" height="22.804751171875008"></rect><g class=" djs-visual"><text class=" djs-label" style="font-family: Arial, sans-serif; font-size: 11px; "><tspan x="23.466666666666676" y="12">End Event</tspan></text></g><rect x="0" y="0" width="94.93333333333335" height="12.804751171875008" style="stroke-opacity: 0; stroke-width: 10px; " fill="none" stroke="#ffffff" class="djs-hit"></rect></g><g class=" djs-group djs-shape" data-element-id="_4f7d62d7-f0e6-46bc-be00-69e02da38f65" transform="matrix(1,0,0,1,480,172)" style="display: block; -webkit-user-select: none; -webkit-user-drag: none; " xmlns="http://www.w3.org/2000/svg"><rect fill="none" class="djs-outline" x="-5" y="-5" width="93" height="78"></rect><g class=" djs-visual"><rect x="0" y="0" width="83" height="68" rx="10" ry="10" style="stroke-width: 2px; " stroke="#000000" fill="#ffffff"></rect><text class=" djs-label" style="font-family: Arial, sans-serif; font-size: 12px; "><tspan x="23" y="37.5">Task 2</tspan></text></g><rect x="0" y="0" width="83" height="68" style="stroke-opacity: 0; stroke-width: 10px; " fill="none" stroke="#ffffff" class="djs-hit"></rect></g><g class=" djs-group djs-shape" data-element-id="_e6eb725a-34bc-45c7-aed0-9f9596cd7bee" transform="matrix(1,0,0,1,480,257)" style="display: block; -webkit-user-select: none; -webkit-user-drag: none; " xmlns="http://www.w3.org/2000/svg"><rect fill="none" class="djs-outline" x="-5" y="-5" width="93" height="78"></rect><g class=" djs-visual"><rect x="0" y="0" width="83" height="68" rx="10" ry="10" style="stroke-width: 2px; " stroke="#000000" fill="#ffffff"></rect><text class=" djs-label" style="font-family: Arial, sans-serif; font-size: 12px; "><tspan x="23" y="37.5">Task 3</tspan></text></g><rect x="0" y="0" width="83" height="68" style="stroke-opacity: 0; stroke-width: 10px; " fill="none" stroke="#ffffff" class="djs-hit"></rect></g><g class=" djs-group djs-shape" data-element-id="_35fe57a7-1302-44e2-bf58-032f11af7ecb" transform="matrix(1,0,0,1,399,270)" style="display: block; -webkit-user-select: none; -webkit-user-drag: none; " xmlns="http://www.w3.org/2000/svg"><rect fill="none" class="djs-outline" x="-5" y="-5" width="52" height="52"></rect><g class=" djs-visual"><polygon points="21,0,42,21,21,42,0,21" style="stroke-width: 2px; " stroke="#000000" fill="#ffffff"></polygon></g><rect x="0" y="0" width="42" height="42" style="stroke-opacity: 0; stroke-width: 10px; " fill="none" stroke="#ffffff" class="djs-hit"></rect></g><g class=" djs-group djs-shape" data-element-id="_35fe57a7-1302-44e2-bf58-032f11af7ecb_label" transform="matrix(1,0,0,1,336.7932,298.4636)" style="display: block; -webkit-user-select: none; -webkit-user-drag: none; " xmlns="http://www.w3.org/2000/svg"><rect fill="none" class="djs-outline" x="-5" y="-5" width="104.93333333333335" height="35.60470234375001"></rect><g class=" djs-visual"><text class=" djs-label" style="font-family: Arial, sans-serif; font-size: 11px; "><tspan x="24.966666666666676" y="12">Gateway </tspan><tspan x="19.966666666666676" y="24"> (Split Flow) </tspan></text></g><rect x="0" y="0" width="94.93333333333335" height="25.604702343750013" style="stroke-opacity: 0; stroke-width: 10px; " fill="none" stroke="#ffffff" class="djs-hit"></rect></g><g class=" djs-group djs-shape" data-element-id="_7d399717-1aba-47ac-8d7d-8aaa033255e0" transform="matrix(1,0,0,1,480,352)" style="display: block; -webkit-user-select: none; -webkit-user-drag: none; " xmlns="http://www.w3.org/2000/svg"><rect fill="none" class="djs-outline" x="-5" y="-5" width="93" height="78"></rect><g class=" djs-visual"><rect x="0" y="0" width="83" height="68" rx="10" ry="10" style="stroke-width: 2px; " stroke="#000000" fill="#ffffff"></rect><text class=" djs-label" style="font-family: Arial, sans-serif; font-size: 12px; "><tspan x="23" y="37.5">Task 4</tspan></text></g><rect x="0" y="0" width="83" height="68" style="stroke-opacity: 0; stroke-width: 10px; " fill="none" stroke="#ffffff" class="djs-hit"></rect></g><g class=" djs-group djs-shape" data-element-id="_33c66216-391c-49c2-aa19-d8f0b7f5f91d" transform="matrix(1,0,0,1,621,315)" style="display: block; -webkit-user-select: none; -webkit-user-drag: none; " xmlns="http://www.w3.org/2000/svg"><rect fill="none" class="djs-outline" x="-5" y="-5" width="52" height="52"></rect><g class=" djs-visual"><polygon points="21,0,42,21,21,42,0,21" style="stroke-width: 2px; " stroke="#000000" fill="#ffffff"></polygon></g><rect x="0" y="0" width="42" height="42" style="stroke-opacity: 0; stroke-width: 10px; " fill="none" stroke="#ffffff" class="djs-hit"></rect></g><g class=" djs-group djs-shape" data-element-id="_33c66216-391c-49c2-aa19-d8f0b7f5f91d_label" transform="matrix(1,0,0,1,654.3207,334.6079)" style="display: block; -webkit-user-select: none; -webkit-user-drag: none; " xmlns="http://www.w3.org/2000/svg"><rect fill="none" class="djs-outline" x="-5" y="-5" width="104.93333333333335" height="35.60470234375001"></rect><g class=" djs-visual"><text class=" djs-label" style="font-family: Arial, sans-serif; font-size: 11px; "><tspan x="24.966666666666676" y="12">Gateway </tspan><tspan x="11.966666666666676" y="24"> (Merge Flows) </tspan></text></g><rect x="0" y="0" width="94.93333333333335" height="25.604702343750013" style="stroke-opacity: 0; stroke-width: 10px; " fill="none" stroke="#ffffff" class="djs-hit"></rect></g><g class=" djs-group djs-connection" data-element-id="_b50f530c-3450-4e1a-b81f-ea346dc6e1cb" style="display: block; -webkit-user-select: none; -webkit-user-drag: none; " xmlns="http://www.w3.org/2000/svg"><g class=" djs-visual"><path d="m  216,291L234,291 L252,291 " style="stroke-width: 2px; marker-end: url(#markerSi03vyvho8); " fill="none" stroke="#000000"></path></g><polyline points="216,291 234,291 252,291 " style="stroke-opacity: 0; stroke-width: 10px; " fill="none" stroke="#ffffff" class="djs-hit"></polyline></g><g class=" djs-group djs-shape" data-element-id="_b50f530c-3450-4e1a-b81f-ea346dc6e1cb_label" transform="matrix(1,0,0,1,180,281)" style="display: none; -webkit-user-select: none; -webkit-user-drag: none; " xmlns="http://www.w3.org/2000/svg"><rect fill="none" class="djs-outline" x="-5" y="-5" width="100" height="30"></rect><g class=" djs-visual"><text class=" djs-label" style="font-family: Arial, sans-serif; font-size: 11px; "><tspan x="45" y="0"></tspan></text></g><rect x="0" y="0" width="90" height="20" style="stroke-opacity: 0; stroke-width: 10px; " fill="none" stroke="#ffffff" class="djs-hit"></rect></g><g class=" djs-group djs-connection" data-element-id="_fe74c141-8843-4b00-a704-5e5e13be53b0" style="display: block; -webkit-user-select: none; -webkit-user-drag: none; " xmlns="http://www.w3.org/2000/svg"><g class=" djs-visual"><path d="m  335,291L353,291 L399,291 " style="stroke-width: 2px; marker-end: url(#markerSi03vyvho8); " fill="none" stroke="#000000"></path></g><polyline points="335,291 353,291 399,291 " style="stroke-opacity: 0; stroke-width: 10px; " fill="none" stroke="#ffffff" class="djs-hit"></polyline></g><g class=" djs-group djs-shape" data-element-id="_fe74c141-8843-4b00-a704-5e5e13be53b0_label" transform="matrix(1,0,0,1,299,281)" style="display: none; -webkit-user-select: none; -webkit-user-drag: none; " xmlns="http://www.w3.org/2000/svg"><rect fill="none" class="djs-outline" x="-5" y="-5" width="100" height="30"></rect><g class=" djs-visual"><text class=" djs-label" style="font-family: Arial, sans-serif; font-size: 11px; "><tspan x="45" y="0"></tspan></text></g><rect x="0" y="0" width="90" height="20" style="stroke-opacity: 0; stroke-width: 10px; " fill="none" stroke="#ffffff" class="djs-hit"></rect></g><g class=" djs-group djs-connection" data-element-id="_f1478fb7-98c4-4c01-8c15-68bd04c91535" style="display: block; -webkit-user-select: none; -webkit-user-drag: none; " xmlns="http://www.w3.org/2000/svg"><g class=" djs-visual"><path d="m  420,270L420,206 L480,206 " style="stroke-width: 2px; marker-end: url(#markerSi03vyvho8); " fill="none" stroke="#000000"></path></g><polyline points="420,270 420,206 480,206 " style="stroke-opacity: 0; stroke-width: 10px; " fill="none" stroke="#ffffff" class="djs-hit"></polyline></g><g class=" djs-group djs-shape" data-element-id="_f1478fb7-98c4-4c01-8c15-68bd04c91535_label" transform="matrix(1,0,0,1,375,228)" style="display: none; -webkit-user-select: none; -webkit-user-drag: none; " xmlns="http://www.w3.org/2000/svg"><rect fill="none" class="djs-outline" x="-5" y="-5" width="100" height="30"></rect><g class=" djs-visual"><text class=" djs-label" style="font-family: Arial, sans-serif; font-size: 11px; "><tspan x="45" y="0"></tspan></text></g><rect x="0" y="0" width="90" height="20" style="stroke-opacity: 0; stroke-width: 10px; " fill="none" stroke="#ffffff" class="djs-hit"></rect></g><g class=" djs-group djs-connection" data-element-id="_a3d40a56-9b7f-417e-911e-d39e7f18b90c" style="display: block; -webkit-user-select: none; -webkit-user-drag: none; " xmlns="http://www.w3.org/2000/svg"><g class=" djs-visual"><path d="m  563,206L752,206 L752,244 " style="stroke-width: 2px; marker-end: url(#markerSi03vyvho8); " fill="none" stroke="#000000"></path></g><polyline points="563,206 752,206 752,244 " style="stroke-opacity: 0; stroke-width: 10px; " fill="none" stroke="#ffffff" class="djs-hit"></polyline></g><g class=" djs-group djs-shape" data-element-id="_a3d40a56-9b7f-417e-911e-d39e7f18b90c_label" transform="matrix(1,0,0,1,612.5,196)" style="display: none; -webkit-user-select: none; -webkit-user-drag: none; " xmlns="http://www.w3.org/2000/svg"><rect fill="none" class="djs-outline" x="-5" y="-5" width="100" height="30"></rect><g class=" djs-visual"><text class=" djs-label" style="font-family: Arial, sans-serif; font-size: 11px; "><tspan x="45" y="0"></tspan></text></g><rect x="0" y="0" width="90" height="20" style="stroke-opacity: 0; stroke-width: 10px; " fill="none" stroke="#ffffff" class="djs-hit"></rect></g><g class=" djs-group djs-connection" data-element-id="_e9ebc7c7-995d-46db-86ce-d823bc2b4687" style="display: block; -webkit-user-select: none; -webkit-user-drag: none; " xmlns="http://www.w3.org/2000/svg"><g class=" djs-visual"><path d="m  563,291L642,291 L642,315 " style="stroke-width: 2px; marker-end: url(#markerSi03vyvho8); " fill="none" stroke="#000000"></path></g><polyline points="563,291 642,291 642,315 " style="stroke-opacity: 0; stroke-width: 10px; " fill="none" stroke="#ffffff" class="djs-hit"></polyline></g><g class=" djs-group djs-shape" data-element-id="_e9ebc7c7-995d-46db-86ce-d823bc2b4687_label" transform="matrix(1,0,0,1,557.5,281)" style="display: none; -webkit-user-select: none; -webkit-user-drag: none; " xmlns="http://www.w3.org/2000/svg"><rect fill="none" class="djs-outline" x="-5" y="-5" width="100" height="30"></rect><g class=" djs-visual"><text class=" djs-label" style="font-family: Arial, sans-serif; font-size: 11px; "><tspan x="45" y="0"></tspan></text></g><rect x="0" y="0" width="90" height="20" style="stroke-opacity: 0; stroke-width: 10px; " fill="none" stroke="#ffffff" class="djs-hit"></rect></g><g class=" djs-group djs-connection" data-element-id="_698b593f-18eb-42ea-b8cd-bcd51e1514cc" style="display: block; -webkit-user-select: none; -webkit-user-drag: none; " xmlns="http://www.w3.org/2000/svg"><g class=" djs-visual"><path d="m  563,386L642,386 L642,357 " style="stroke-width: 2px; marker-end: url(#markerSi03vyvho8); " fill="none" stroke="#000000"></path></g><polyline points="563,386 642,386 642,357 " style="stroke-opacity: 0; stroke-width: 10px; " fill="none" stroke="#ffffff" class="djs-hit"></polyline></g><g class=" djs-group djs-shape" data-element-id="_698b593f-18eb-42ea-b8cd-bcd51e1514cc_label" transform="matrix(1,0,0,1,557.5,376)" style="display: none; -webkit-user-select: none; -webkit-user-drag: none; " xmlns="http://www.w3.org/2000/svg"><rect fill="none" class="djs-outline" x="-5" y="-5" width="100" height="30"></rect><g class=" djs-visual"><text class=" djs-label" style="font-family: Arial, sans-serif; font-size: 11px; "><tspan x="45" y="0"></tspan></text></g><rect x="0" y="0" width="90" height="20" style="stroke-opacity: 0; stroke-width: 10px; " fill="none" stroke="#ffffff" class="djs-hit"></rect></g><g class=" djs-group djs-connection" data-element-id="_d4ce87c6-1373-45d6-a3b4-fbb2a04ee2e5" style="display: block; -webkit-user-select: none; -webkit-user-drag: none; " xmlns="http://www.w3.org/2000/svg"><g class=" djs-visual"><path d="m  663,336L752,336 L752,276 " style="stroke-width: 2px; marker-end: url(#markerSi03vyvho8); " fill="none" stroke="#000000"></path></g><polyline points="663,336 752,336 752,276 " style="stroke-opacity: 0; stroke-width: 10px; " fill="none" stroke="#ffffff" class="djs-hit"></polyline></g><g class=" djs-group djs-shape" data-element-id="_d4ce87c6-1373-45d6-a3b4-fbb2a04ee2e5_label" transform="matrix(1,0,0,1,662.5,326)" style="display: none; -webkit-user-select: none; -webkit-user-drag: none; " xmlns="http://www.w3.org/2000/svg"><rect fill="none" class="djs-outline" x="-5" y="-5" width="100" height="30"></rect><g class=" djs-visual"><text class=" djs-label" style="font-family: Arial, sans-serif; font-size: 11px; "><tspan x="45" y="0"></tspan></text></g><rect x="0" y="0" width="90" height="20" style="stroke-opacity: 0; stroke-width: 10px; " fill="none" stroke="#ffffff" class="djs-hit"></rect></g><g class=" djs-group djs-connection" data-element-id="_a1570a53-28d2-41b1-a3a2-3e50c00d747e" style="display: block; -webkit-user-select: none; -webkit-user-drag: none; " xmlns="http://www.w3.org/2000/svg"><g class=" djs-visual"><path d="m  440,291L458,291 L480,291 " style="stroke-width: 2px; marker-end: url(#markerSi03vyvho8); " fill="none" stroke="#000000"></path></g><polyline points="440,291 458,291 480,291 " style="stroke-opacity: 0; stroke-width: 10px; " fill="none" stroke="#ffffff" class="djs-hit"></polyline></g><g class=" djs-group djs-shape" data-element-id="_a1570a53-28d2-41b1-a3a2-3e50c00d747e_label" transform="matrix(1,0,0,1,404,281)" style="display: none; -webkit-user-select: none; -webkit-user-drag: none; " xmlns="http://www.w3.org/2000/svg"><rect fill="none" class="djs-outline" x="-5" y="-5" width="100" height="30"></rect><g class=" djs-visual"><text class=" djs-label" style="font-family: Arial, sans-serif; font-size: 11px; "><tspan x="45" y="0"></tspan></text></g><rect x="0" y="0" width="90" height="20" style="stroke-opacity: 0; stroke-width: 10px; " fill="none" stroke="#ffffff" class="djs-hit"></rect></g><g class=" djs-group djs-connection" data-element-id="_20ebb3c1-5178-4c7c-a91d-23e58f2aa73b" style="display: block; -webkit-user-select: none; -webkit-user-drag: none; " xmlns="http://www.w3.org/2000/svg"><g class=" djs-visual"><path d="m  420,312L420,386 L480,386 " style="stroke-width: 2px; marker-end: url(#markerSi03vyvho8); " fill="none" stroke="#000000"></path></g><polyline points="420,312 420,386 480,386 " style="stroke-opacity: 0; stroke-width: 10px; " fill="none" stroke="#ffffff" class="djs-hit"></polyline></g><g class=" djs-group djs-shape" data-element-id="_20ebb3c1-5178-4c7c-a91d-23e58f2aa73b_label" transform="matrix(1,0,0,1,375,339)" style="display: none; -webkit-user-select: none; -webkit-user-drag: none; " xmlns="http://www.w3.org/2000/svg"><rect fill="none" class="djs-outline" x="-5" y="-5" width="100" height="30"></rect><g class=" djs-visual"><text class=" djs-label" style="font-family: Arial, sans-serif; font-size: 11px; "><tspan x="45" y="0"></tspan></text></g><rect x="0" y="0" width="90" height="20" style="stroke-opacity: 0; stroke-width: 10px; " fill="none" stroke="#ffffff" class="djs-hit"></rect></g></svg>