<?xml version="1.0" encoding="utf-8"?>
<!-- created with bpmn-js / http://bpmn.io -->
<!DOCTYPE svg PUBLIC "-//W3C//DTD SVG 1.1//EN" "http://www.w3.org/Graphics/SVG/1.1/DTD/svg11.dtd">
<svg xmlns="http://www.w3.org/2000/svg" xmlns:xlink="http://www.w3.org/1999/xlink" width="600.8519897460938" height="318" viewBox="34.67770004272461 153 600.8519897460938 318" version="1.1"><defs><marker viewBox="0 0 20 20" markerWidth="10" markerHeight="10" orient="auto" refX="11" refY="10" id="markerSi03vyvzo8"><path d="M 1 5 L 11 10 L 1 15 Z" style="stroke-width: 1px; stroke-linecap: round; stroke-dasharray: 10000px, 1px; " fill="#000000"/></marker><marker viewBox="0 0 20 20" markerWidth="20" markerHeight="20" orient="auto" refX="6" refY="6" id="markerSi03vyvzoa"><circle cx="6" cy="6" r="5" style="stroke-width: 1px; stroke-linecap: round; stroke-dasharray: 10000px, 1px; " fill="#ffffff" stroke="#000000"/></marker><marker viewBox="0 0 20 20" markerWidth="20" markerHeight="20" orient="auto" refX="11" refY="10" id="markerSi03vyvzoc"><path d="M 1 5 L 11 10 L 1 15 Z" style="stroke-width: 1px; stroke-linecap: round; stroke-dasharray: 10000px, 1px; " fill="#ffffff" stroke="#000000"/></marker><marker viewBox="0 0 20 20" markerWidth="10" markerHeight="10" orient="auto" refX="11" refY="10" id="markerSi03vyvzoe"><path d="M 1 5 L 11 10 L 1 15" style="stroke-width: 1px; stroke-linecap: round; stroke-dasharray: 10000px, 1px; " fill="#ffffff" stroke="#000000"/></marker><marker viewBox="0 0 20 20" markerWidth="10" markerHeight="10" orient="auto" refX="-1" refY="10" id="markerSi03vyvzog"><path d="M 0 10 L 8 6 L 16 10 L 8 14 Z" style="stroke-width: 1px; stroke-linecap: round; stroke-dasharray: 10000px, 1px; " fill="#ffffff" stroke="#000000"/></marker><marker viewBox="0 0 20 20" markerWidth="10" markerHeight="10" orient="auto" refX="-5" refY="10" id="markerSi03vyvzoi"><path d="M 1 4 L 5 16" style="stroke-width: 1px; stroke-linecap: round; stroke-dasharray: 10000px, 1px; " fill="#000000" stroke="#000000"/></marker></defs><g class=" djs-group djs-shape" data-element-id="_1ac4b759-40e3-4dfb-b0e3-ad1d201d6c3d" transform="matrix(1,0,0,1,72,295)" style="display: block; -webkit-user-select: none; -webkit-user-drag: none; " xmlns="http://www.w3.org/2000/svg"><rect fill="none" class="djs-outline" x="-5" y="-5" width="40" height="40"></rect><g class=" djs-visual"><circle cx="15" cy="15" r="15" style="stroke-width: 2px; " stroke="#000000" fill="#ffffff"></circle></g><rect x="0" y="0" width="30" height="30" style="stroke-opacity: 0; stroke-width: 10px; " fill="none" stroke="#ffffff" class="djs-hit"></rect></g><g class=" djs-group djs-shape" data-element-id="_1ac4b759-40e3-4dfb-b0e3-ad1d201d6c3d_label" transform="matrix(1,0,0,1,39.6777,323.931)" style="display: block; -webkit-user-select: none; -webkit-user-drag: none; " xmlns="http://www.w3.org/2000/svg"><rect fill="none" class="djs-outline" x="-5" y="-5" width="104.93333333333335" height="22.804751171875008"></rect><g class=" djs-visual"><text class=" djs-label" style="font-family: Arial, sans-serif; font-size: 11px; "><tspan x="20.966666666666676" y="12">Start Event</tspan></text></g><rect x="0" y="0" width="94.93333333333335" height="12.804751171875008" style="stroke-opacity: 0; stroke-width: 10px; " fill="none" stroke="#ffffff" class="djs-hit"></rect></g><g class=" djs-group djs-shape" data-element-id="_65f5459f-44ae-436d-a089-a91d6d78075b" transform="matrix(1,0,0,1,145,276)" style="display: block; -webkit-user-select: none; -webkit-user-drag: none; " xmlns="http://www.w3.org/2000/svg"><rect fill="none" class="djs-outline" x="-5" y="-5" width="93" height="78"></rect><g class=" djs-visual"><rect x="0" y="0" width="83" height="68" rx="10" ry="10" style="stroke-width: 2px; " stroke="#000000" fill="#ffffff"></rect><text class=" djs-label" style="font-family: Arial, sans-serif; font-size: 12px; "><tspan x="23" y="37.5">Task 1</tspan></text></g><rect x="0" y="0" width="83" height="68" style="stroke-opacity: 0; stroke-width: 10px; " fill="none" stroke="#ffffff" class="djs-hit"></rect></g><g class=" djs-group djs-shape" data-element-id="_1ae31d1b-2559-4f78-a3ec-47986a49db48" transform="matrix(1,0,0,1,282,266)" style="display: block; -webkit-user-select: none; -webkit-user-drag: none; " xmlns="http://www.w3.org/2000/svg"><rect fill="none" class="djs-outline" x="-5" y="-5" width="118" height="98"></rect><g class=" djs-visual"><rect x="0" y="0" width="108" height="88" rx="10" ry="10" style="stroke-width: 2px; " stroke="#000000" fill="#ffffff"></rect><text class=" djs-label" style="font-family: Arial, sans-serif; font-size: 12px; "><tspan x="25.5" y="40.5">Collapsed </tspan><tspan x="18" y="54.5"> Sub-Process </tspan></text><rect x="0" y="0" width="14" height="14" rx="0" ry="0" style="stroke-width: 1px; " stroke="#000000" fill="#ffffff" transform="matrix(1,0,0,1,46.5,68)"></rect><path d="m46.5,68 m 7,2 l 0,10 m -5,-5 l 10,0" style="stroke-width: 2px; " fill="none" stroke="#000000"></path></g><rect x="0" y="0" width="108" height="88" style="stroke-opacity: 0; stroke-width: 10px; " fill="none" stroke="#ffffff" class="djs-hit"></rect></g><g class=" djs-group djs-shape" data-element-id="_9fad8da5-a28c-4b6b-bb71-fbd5c65b9681" transform="matrix(1,0,0,1,409,398)" style="display: block; -webkit-user-select: none; -webkit-user-drag: none; " xmlns="http://www.w3.org/2000/svg"><rect fill="none" class="djs-outline" x="-5" y="-5" width="93" height="78"></rect><g class=" djs-visual"><rect x="0" y="0" width="83" height="68" rx="10" ry="10" style="stroke-width: 2px; " stroke="#000000" fill="#ffffff"></rect><text class=" djs-label" style="font-family: Arial, sans-serif; font-size: 12px; "><tspan x="23" y="37.5">Task 4</tspan></text></g><rect x="0" y="0" width="83" height="68" style="stroke-opacity: 0; stroke-width: 10px; " fill="none" stroke="#ffffff" class="djs-hit"></rect></g><g class=" djs-group djs-shape" data-element-id="_ce253897-4300-4b24-b71f-4c9535698c70" transform="matrix(1,0,0,1,567,294)" style="display: block; -webkit-user-select: none; -webkit-user-drag: none; " xmlns="http://www.w3.org/2000/svg"><rect fill="none" class="djs-outline" x="-5" y="-5" width="42" height="42"></rect><g class=" djs-visual"><circle cx="16" cy="16" r="16" style="stroke-width: 4px; " stroke="#000000" fill="#ffffff"></circle></g><rect x="0" y="0" width="32" height="32" style="stroke-opacity: 0; stroke-width: 10px; " fill="none" stroke="#ffffff" class="djs-hit"></rect></g><g class=" djs-group djs-shape" data-element-id="_ce253897-4300-4b24-b71f-4c9535698c70_label" transform="matrix(1,0,0,1,535.5963,324.931)" style="display: block; -webkit-user-select: none; -webkit-user-drag: none; " xmlns="http://www.w3.org/2000/svg"><rect fill="none" class="djs-outline" x="-5" y="-5" width="104.93333333333335" height="22.804751171875008"></rect><g class=" djs-visual"><text class=" djs-label" style="font-family: Arial, sans-serif; font-size: 11px; "><tspan x="18.966666666666676" y="12">End Event 1</tspan></text></g><rect x="0" y="0" width="94.93333333333335" height="12.804751171875008" style="stroke-opacity: 0; stroke-width: 10px; " fill="none" stroke="#ffffff" class="djs-hit"></rect></g><g class=" djs-group djs-shape" data-element-id="_72204cd7-709c-4656-9554-3ae29b3844ce" transform="matrix(1,0,0,1,414,158)" style="display: block; -webkit-user-select: none; -webkit-user-drag: none; " xmlns="http://www.w3.org/2000/svg"><rect fill="none" class="djs-outline" x="-5" y="-5" width="93" height="78"></rect><g class=" djs-visual"><rect x="0" y="0" width="83" height="68" rx="10" ry="10" style="stroke-width: 2px; " stroke="#000000" fill="#ffffff"></rect><text class=" djs-label" style="font-family: Arial, sans-serif; font-size: 12px; "><tspan x="23" y="37.5">Task 3</tspan></text></g><rect x="0" y="0" width="83" height="68" style="stroke-opacity: 0; stroke-width: 10px; " fill="none" stroke="#ffffff" class="djs-hit"></rect></g><g class=" djs-group djs-shape" data-element-id="_2d2d0d29-896f-49f9-8109-77a7304309c5" transform="matrix(1,0,0,1,426,276)" style="display: block; -webkit-user-select: none; -webkit-user-drag: none; " xmlns="http://www.w3.org/2000/svg"><rect fill="none" class="djs-outline" x="-5" y="-5" width="93" height="78"></rect><g class=" djs-visual"><rect x="0" y="0" width="83" height="68" rx="10" ry="10" style="stroke-width: 2px; " stroke="#000000" fill="#ffffff"></rect><text class=" djs-label" style="font-family: Arial, sans-serif; font-size: 12px; "><tspan x="23" y="37.5">Task 2</tspan></text></g><rect x="0" y="0" width="83" height="68" style="stroke-opacity: 0; stroke-width: 10px; " fill="none" stroke="#ffffff" class="djs-hit"></rect></g><g class=" djs-group djs-shape" data-element-id="_10ce0b26-1b3e-46a2-85a5-62538ed2da13" transform="matrix(1,0,0,1,525,416)" style="display: block; -webkit-user-select: none; -webkit-user-drag: none; " xmlns="http://www.w3.org/2000/svg"><rect fill="none" class="djs-outline" x="-5" y="-5" width="42" height="42"></rect><g class=" djs-visual"><circle cx="16" cy="16" r="16" style="stroke-width: 4px; " stroke="#000000" fill="#ffffff"></circle></g><rect x="0" y="0" width="32" height="32" style="stroke-opacity: 0; stroke-width: 10px; " fill="none" stroke="#ffffff" class="djs-hit"></rect></g><g class=" djs-group djs-shape" data-element-id="_10ce0b26-1b3e-46a2-85a5-62538ed2da13_label" transform="matrix(1,0,0,1,493.5963,446.931)" style="display: block; -webkit-user-select: none; -webkit-user-drag: none; " xmlns="http://www.w3.org/2000/svg"><rect fill="none" class="djs-outline" x="-5" y="-5" width="104.93333333333335" height="22.804751171875008"></rect><g class=" djs-visual"><text class=" djs-label" style="font-family: Arial, sans-serif; font-size: 11px; "><tspan x="18.966666666666676" y="12">End Event 2</tspan></text></g><rect x="0" y="0" width="94.93333333333335" height="12.804751171875008" style="stroke-opacity: 0; stroke-width: 10px; " fill="none" stroke="#ffffff" class="djs-hit"></rect></g><g class=" djs-group djs-shape" data-element-id="_178e16eb-4c9e-4ea0-9644-7c5fb2b71825" transform="matrix(1,0,0,1,347,338)" style="display: block; -webkit-user-select: none; -webkit-user-drag: none; " xmlns="http://www.w3.org/2000/svg"><rect fill="none" class="djs-outline" x="-5" y="-5" width="42" height="42"></rect><g class=" djs-visual"><circle cx="16" cy="16" r="16" style="stroke-width: 1px; stroke-linecap: round; " stroke="#000000" fill="#ffffff"></circle><circle cx="16" cy="16" r="13" style="stroke-width: 1px; stroke-linecap: round; " stroke="#000000" fill="#ffffff"></circle><path d="m 16,17.76 c -2.4959999999999996,2.1173333333333333 -4.991999999999999,4.234666666666667 -7.4879999999999995,6.351999999999999 2.4959999999999996,-5.857184888888889 4.991999999999999,-11.714370666666667 7.4879999999999995,-17.571555555555555 2.1893333333333334,5.857184888888889 4.378666666666667,11.714370666666667 6.568,17.571555555555555 -2.1893333333333334,-2.1173333333333333 -4.378666666666667,-4.234666666666667 -6.568,-6.351999999999999 z" style="stroke-width: 1px; " fill="none" stroke="#000000"></path></g><rect x="0" y="0" width="32" height="32" style="stroke-opacity: 0; stroke-width: 10px; " fill="none" stroke="#ffffff" class="djs-hit"></rect></g><g class=" djs-group djs-shape" data-element-id="_178e16eb-4c9e-4ea0-9644-7c5fb2b71825_label" transform="matrix(1,0,0,1,265.1071,344.7295)" style="display: block; -webkit-user-select: none; -webkit-user-drag: none; " xmlns="http://www.w3.org/2000/svg"><rect fill="none" class="djs-outline" x="-5" y="-5" width="104.93333333333335" height="61.204604687499994"></rect><g class=" djs-visual"><text class=" djs-label" style="font-family: Arial, sans-serif; font-size: 11px; "><tspan x="23.966666666666676" y="12">Boundary </tspan><tspan x="3.4666666666666757" y="24">Intermediate Event </tspan><tspan x="20.466666666666676" y="36">Interrupting </tspan><tspan x="22.966666666666676" y="48">Escalation   </tspan></text></g><rect x="0" y="0" width="94.93333333333335" height="51.204604687499994" style="stroke-opacity: 0; stroke-width: 10px; " fill="none" stroke="#ffffff" class="djs-hit"></rect></g><g class=" djs-group djs-shape" data-element-id="_428dcbf5-8e5e-48e0-9c0c-d93003fa8c82" transform="matrix(1,0,0,1,338,250)" style="display: block; -webkit-user-select: none; -webkit-user-drag: none; " xmlns="http://www.w3.org/2000/svg"><rect fill="none" class="djs-outline" x="-5" y="-5" width="42" height="42"></rect><g class=" djs-visual"><circle cx="16" cy="16" r="16" style="stroke-width: 1px; stroke-linecap: round; stroke-dasharray: 6px; " stroke="#000000" fill="#ffffff"></circle><circle cx="16" cy="16" r="13" style="stroke-width: 1px; stroke-linecap: round; stroke-dasharray: 6px; " stroke="#000000" fill="#ffffff"></circle><path d="m 7.52,10.08 l 0,11.2 l 16.799999999999997,0 l 0,-11.2 z l 8.399999999999999,4.8 l 8.399999999999999,-4.8" style="stroke-width: 1px; " fill="#ffffff" stroke="#000000"></path></g><rect x="0" y="0" width="32" height="32" style="stroke-opacity: 0; stroke-width: 10px; " fill="none" stroke="#ffffff" class="djs-hit"></rect></g><g class=" djs-group djs-shape" data-element-id="_428dcbf5-8e5e-48e0-9c0c-d93003fa8c82_label" transform="matrix(1,0,0,1,252.4591,182.7423)" style="display: block; -webkit-user-select: none; -webkit-user-drag: none; " xmlns="http://www.w3.org/2000/svg"><rect fill="none" class="djs-outline" x="-5" y="-5" width="104.93333333333335" height="61.204604687499994"></rect><g class=" djs-visual"><text class=" djs-label" style="font-family: Arial, sans-serif; font-size: 11px; "><tspan x="23.966666666666676" y="12">Boundary </tspan><tspan x="3.4666666666666757" y="24">Intermediate Event </tspan><tspan x="8.966666666666676" y="36">Non-Interrupting </tspan><tspan x="25.466666666666676" y="48">Message   </tspan></text></g><rect x="0" y="0" width="94.93333333333335" height="51.204604687499994" style="stroke-opacity: 0; stroke-width: 10px; " fill="none" stroke="#ffffff" class="djs-hit"></rect></g><g class=" djs-group djs-connection" data-element-id="_83f6ca65-43f7-496e-a7eb-2a4a2fc28f22" style="display: block; -webkit-user-select: none; -webkit-user-drag: none; " xmlns="http://www.w3.org/2000/svg"><g class=" djs-visual"><path d="m  102,310L145,310 " style="stroke-width: 2px; marker-end: url(#markerSi03vyvzo8); " fill="none" stroke="#000000"></path></g><polyline points="102,310 145,310 " style="stroke-opacity: 0; stroke-width: 10px; " fill="none" stroke="#ffffff" class="djs-hit"></polyline></g><g class=" djs-group djs-shape" data-element-id="_83f6ca65-43f7-496e-a7eb-2a4a2fc28f22_label" transform="matrix(1,0,0,1,78.5,300)" style="display: none; -webkit-user-select: none; -webkit-user-drag: none; " xmlns="http://www.w3.org/2000/svg"><rect fill="none" class="djs-outline" x="-5" y="-5" width="100" height="30"></rect><g class=" djs-visual"><text class=" djs-label" style="font-family: Arial, sans-serif; font-size: 11px; "><tspan x="45" y="0"></tspan></text></g><rect x="0" y="0" width="90" height="20" style="stroke-opacity: 0; stroke-width: 10px; " fill="none" stroke="#ffffff" class="djs-hit"></rect></g><g class=" djs-group djs-connection" data-element-id="_68ba9b96-b1e9-4691-bc25-a36bf5731502" style="display: block; -webkit-user-select: none; -webkit-user-drag: none; " xmlns="http://www.w3.org/2000/svg"><g class=" djs-visual"><path d="m  228,310L246,310 L282,310 " style="stroke-width: 2px; marker-end: url(#markerSi03vyvzo8); " fill="none" stroke="#000000"></path></g><polyline points="228,310 246,310 282,310 " style="stroke-opacity: 0; stroke-width: 10px; " fill="none" stroke="#ffffff" class="djs-hit"></polyline></g><g class=" djs-group djs-shape" data-element-id="_68ba9b96-b1e9-4691-bc25-a36bf5731502_label" transform="matrix(1,0,0,1,192,300)" style="display: none; -webkit-user-select: none; -webkit-user-drag: none; " xmlns="http://www.w3.org/2000/svg"><rect fill="none" class="djs-outline" x="-5" y="-5" width="100" height="30"></rect><g class=" djs-visual"><text class=" djs-label" style="font-family: Arial, sans-serif; font-size: 11px; "><tspan x="45" y="0"></tspan></text></g><rect x="0" y="0" width="90" height="20" style="stroke-opacity: 0; stroke-width: 10px; " fill="none" stroke="#ffffff" class="djs-hit"></rect></g><g class=" djs-group djs-connection" data-element-id="_7742093f-cd2c-415e-be71-d2514bc559c9" style="display: block; -webkit-user-select: none; -webkit-user-drag: none; " xmlns="http://www.w3.org/2000/svg"><g class=" djs-visual"><path d="m  363,370L363,432 L409,432 " style="stroke-width: 2px; marker-end: url(#markerSi03vyvzo8); " fill="none" stroke="#000000"></path></g><polyline points="363,370 363,432 409,432 " style="stroke-opacity: 0; stroke-width: 10px; " fill="none" stroke="#ffffff" class="djs-hit"></polyline></g><g class=" djs-group djs-shape" data-element-id="_7742093f-cd2c-415e-be71-d2514bc559c9_label" transform="matrix(1,0,0,1,318,391)" style="display: none; -webkit-user-select: none; -webkit-user-drag: none; " xmlns="http://www.w3.org/2000/svg"><rect fill="none" class="djs-outline" x="-5" y="-5" width="100" height="30"></rect><g class=" djs-visual"><text class=" djs-label" style="font-family: Arial, sans-serif; font-size: 11px; "><tspan x="45" y="0"></tspan></text></g><rect x="0" y="0" width="90" height="20" style="stroke-opacity: 0; stroke-width: 10px; " fill="none" stroke="#ffffff" class="djs-hit"></rect></g><g class=" djs-group djs-connection" data-element-id="_fe023d13-58bc-4f08-b60a-ebe4489f4190" style="display: block; -webkit-user-select: none; -webkit-user-drag: none; " xmlns="http://www.w3.org/2000/svg"><g class=" djs-visual"><path d="m  354,250L354,192 L414,192 " style="stroke-width: 2px; marker-end: url(#markerSi03vyvzo8); " fill="none" stroke="#000000"></path></g><polyline points="354,250 354,192 414,192 " style="stroke-opacity: 0; stroke-width: 10px; " fill="none" stroke="#ffffff" class="djs-hit"></polyline></g><g class=" djs-group djs-shape" data-element-id="_fe023d13-58bc-4f08-b60a-ebe4489f4190_label" transform="matrix(1,0,0,1,309,211)" style="display: none; -webkit-user-select: none; -webkit-user-drag: none; " xmlns="http://www.w3.org/2000/svg"><rect fill="none" class="djs-outline" x="-5" y="-5" width="100" height="30"></rect><g class=" djs-visual"><text class=" djs-label" style="font-family: Arial, sans-serif; font-size: 11px; "><tspan x="45" y="0"></tspan></text></g><rect x="0" y="0" width="90" height="20" style="stroke-opacity: 0; stroke-width: 10px; " fill="none" stroke="#ffffff" class="djs-hit"></rect></g><g class=" djs-group djs-connection" data-element-id="_250377d0-628d-463f-95f6-1f4ceed9bd8a" style="display: block; -webkit-user-select: none; -webkit-user-drag: none; " xmlns="http://www.w3.org/2000/svg"><g class=" djs-visual"><path d="m  390,310L408,310 L426,310 " style="stroke-width: 2px; marker-end: url(#markerSi03vyvzo8); " fill="none" stroke="#000000"></path></g><polyline points="390,310 408,310 426,310 " style="stroke-opacity: 0; stroke-width: 10px; " fill="none" stroke="#ffffff" class="djs-hit"></polyline></g><g class=" djs-group djs-shape" data-element-id="_250377d0-628d-463f-95f6-1f4ceed9bd8a_label" transform="matrix(1,0,0,1,354,300)" style="display: none; -webkit-user-select: none; -webkit-user-drag: none; " xmlns="http://www.w3.org/2000/svg"><rect fill="none" class="djs-outline" x="-5" y="-5" width="100" height="30"></rect><g class=" djs-visual"><text class=" djs-label" style="font-family: Arial, sans-serif; font-size: 11px; "><tspan x="45" y="0"></tspan></text></g><rect x="0" y="0" width="90" height="20" style="stroke-opacity: 0; stroke-width: 10px; " fill="none" stroke="#ffffff" class="djs-hit"></rect></g><g class=" djs-group djs-connection" data-element-id="_719b757a-fc92-46bd-8d10-cca5a5bbf3bf" style="display: block; -webkit-user-select: none; -webkit-user-drag: none; " xmlns="http://www.w3.org/2000/svg"><g class=" djs-visual"><path d="m  509,310L527,310 L567,310 " style="stroke-width: 2px; marker-end: url(#markerSi03vyvzo8); " fill="none" stroke="#000000"></path></g><polyline points="509,310 527,310 567,310 " style="stroke-opacity: 0; stroke-width: 10px; " fill="none" stroke="#ffffff" class="djs-hit"></polyline></g><g class=" djs-group djs-shape" data-element-id="_719b757a-fc92-46bd-8d10-cca5a5bbf3bf_label" transform="matrix(1,0,0,1,473,300)" style="display: none; -webkit-user-select: none; -webkit-user-drag: none; " xmlns="http://www.w3.org/2000/svg"><rect fill="none" class="djs-outline" x="-5" y="-5" width="100" height="30"></rect><g class=" djs-visual"><text class=" djs-label" style="font-family: Arial, sans-serif; font-size: 11px; "><tspan x="45" y="0"></tspan></text></g><rect x="0" y="0" width="90" height="20" style="stroke-opacity: 0; stroke-width: 10px; " fill="none" stroke="#ffffff" class="djs-hit"></rect></g><g class=" djs-group djs-connection" data-element-id="_88b9f814-764e-492b-b38d-d5e8dfa68400" style="display: block; -webkit-user-select: none; -webkit-user-drag: none; " xmlns="http://www.w3.org/2000/svg"><g class=" djs-visual"><path d="m  498,192L583,192 L583,294 " style="stroke-width: 2px; marker-end: url(#markerSi03vyvzo8); " fill="none" stroke="#000000"></path></g><polyline points="498,192 583,192 583,294 " style="stroke-opacity: 0; stroke-width: 10px; " fill="none" stroke="#ffffff" class="djs-hit"></polyline></g><g class=" djs-group djs-shape" data-element-id="_88b9f814-764e-492b-b38d-d5e8dfa68400_label" transform="matrix(1,0,0,1,495.5,182)" style="display: none; -webkit-user-select: none; -webkit-user-drag: none; " xmlns="http://www.w3.org/2000/svg"><rect fill="none" class="djs-outline" x="-5" y="-5" width="100" height="30"></rect><g class=" djs-visual"><text class=" djs-label" style="font-family: Arial, sans-serif; font-size: 11px; "><tspan x="45" y="0"></tspan></text></g><rect x="0" y="0" width="90" height="20" style="stroke-opacity: 0; stroke-width: 10px; " fill="none" stroke="#ffffff" class="djs-hit"></rect></g><g class=" djs-group djs-connection" data-element-id="_c425e783-e839-4990-9a2c-28b7341d9b2e" style="display: block; -webkit-user-select: none; -webkit-user-drag: none; " xmlns="http://www.w3.org/2000/svg"><g class=" djs-visual"><path d="m  492,432L525,432 " style="stroke-width: 2px; marker-end: url(#markerSi03vyvzo8); " fill="none" stroke="#000000"></path></g><polyline points="492,432 525,432 " style="stroke-opacity: 0; stroke-width: 10px; " fill="none" stroke="#ffffff" class="djs-hit"></polyline></g><g class=" djs-group djs-shape" data-element-id="_c425e783-e839-4990-9a2c-28b7341d9b2e_label" transform="matrix(1,0,0,1,463.5,422)" style="display: none; -webkit-user-select: none; -webkit-user-drag: none; " xmlns="http://www.w3.org/2000/svg"><rect fill="none" class="djs-outline" x="-5" y="-5" width="100" height="30"></rect><g class=" djs-visual"><text class=" djs-label" style="font-family: Arial, sans-serif; font-size: 11px; "><tspan x="45" y="0"></tspan></text></g><rect x="0" y="0" width="90" height="20" style="stroke-opacity: 0; stroke-width: 10px; " fill="none" stroke="#ffffff" class="djs-hit"></rect></g></svg>