<?xml version="1.0" encoding="utf-8"?>
<!-- created with bpmn-js / http://bpmn.io -->
<!DOCTYPE svg PUBLIC "-//W3C//DTD SVG 1.1//EN" "http://www.w3.org/Graphics/SVG/1.1/DTD/svg11.dtd">
<svg xmlns="http://www.w3.org/2000/svg" xmlns:xlink="http://www.w3.org/1999/xlink" width="898" height="598" viewBox="67 115 898 598" version="1.1"><defs><marker viewBox="0 0 20 20" markerWidth="10" markerHeight="10" orient="auto" refX="11" refY="10" id="markerSi03vywgq8"><path d="M 1 5 L 11 10 L 1 15 Z" style="stroke-width: 1px; stroke-linecap: round; stroke-dasharray: 10000px, 1px; " fill="#000000"/></marker><marker viewBox="0 0 20 20" markerWidth="20" markerHeight="20" orient="auto" refX="6" refY="6" id="markerSi03vywgqa"><circle cx="6" cy="6" r="5" style="stroke-width: 1px; stroke-linecap: round; stroke-dasharray: 10000px, 1px; " fill="#ffffff" stroke="#000000"/></marker><marker viewBox="0 0 20 20" markerWidth="20" markerHeight="20" orient="auto" refX="11" refY="10" id="markerSi03vywgqc"><path d="M 1 5 L 11 10 L 1 15 Z" style="stroke-width: 1px; stroke-linecap: round; stroke-dasharray: 10000px, 1px; " fill="#ffffff" stroke="#000000"/></marker><marker viewBox="0 0 20 20" markerWidth="10" markerHeight="10" orient="auto" refX="11" refY="10" id="markerSi03vywgqe"><path d="M 1 5 L 11 10 L 1 15" style="stroke-width: 1px; stroke-linecap: round; stroke-dasharray: 10000px, 1px; " fill="#ffffff" stroke="#000000"/></marker><marker viewBox="0 0 20 20" markerWidth="10" markerHeight="10" orient="auto" refX="-1" refY="10" id="markerSi03vywgqg"><path d="M 0 10 L 8 6 L 16 10 L 8 14 Z" style="stroke-width: 1px; stroke-linecap: round; stroke-dasharray: 10000px, 1px; " fill="#ffffff" stroke="#000000"/></marker><marker viewBox="0 0 20 20" markerWidth="10" markerHeight="10" orient="auto" refX="-5" refY="10" id="markerSi03vywgqi"><path d="M 1 4 L 5 16" style="stroke-width: 1px; stroke-linecap: round; stroke-dasharray: 10000px, 1px; " fill="#000000" stroke="#000000"/></marker></defs><g class=" djs-group djs-shape" data-element-id="_046bff4f-cea3-4512-a6b1-30517fb29f2c" transform="matrix(1,0,0,1,72,120)" style="display: block; -webkit-user-select: none; -webkit-user-drag: none; " xmlns="http://www.w3.org/2000/svg"><rect fill="none" class="djs-outline" x="-5" y="-5" width="898" height="154"></rect><g class=" djs-visual"><rect x="0" y="0" width="888" height="144" rx="0" ry="0" style="stroke-width: 2px; " stroke="#000000" fill="none"></rect><polyline points="30,0 30,144 " style="stroke-width: 2px; " fill="none" stroke="#000000"></polyline><text class=" djs-label" style="font-family: Arial, sans-serif; font-size: 12px; " transform="matrix(0,-1,1,0,0,144)"><tspan x="59.5" y="18.5">Pool</tspan></text></g><rect x="0" y="0" width="888" height="144" style="stroke-opacity: 0; stroke-width: 10px; " fill="none" stroke="#ffffff" class="djs-hit"></rect></g><g class=" djs-group djs-shape" data-element-id="_ab851300-b5de-4ad3-bbec-215553757fc8" transform="matrix(1,0,0,1,199,158)" style="display: block; -webkit-user-select: none; -webkit-user-drag: none; " xmlns="http://www.w3.org/2000/svg"><rect fill="none" class="djs-outline" x="-5" y="-5" width="93" height="78"></rect><g class=" djs-visual"><rect x="0" y="0" width="83" height="68" rx="10" ry="10" style="stroke-width: 2px; " stroke="#000000" fill="#ffffff"></rect><text class=" djs-label" style="font-family: Arial, sans-serif; font-size: 12px; "><tspan x="23" y="37.5">Task 1</tspan></text></g><rect x="0" y="0" width="83" height="68" style="stroke-opacity: 0; stroke-width: 10px; " fill="none" stroke="#ffffff" class="djs-hit"></rect></g><g class=" djs-group djs-shape" data-element-id="_80d1f02b-f39c-45c2-b731-43df75d81779" transform="matrix(1,0,0,1,758,158)" style="display: block; -webkit-user-select: none; -webkit-user-drag: none; " xmlns="http://www.w3.org/2000/svg"><rect fill="none" class="djs-outline" x="-5" y="-5" width="93" height="78"></rect><g class=" djs-visual"><rect x="0" y="0" width="83" height="68" rx="10" ry="10" style="stroke-width: 2px; " stroke="#000000" fill="#ffffff"></rect><text class=" djs-label" style="font-family: Arial, sans-serif; font-size: 12px; "><tspan x="23" y="37.5">Task 2</tspan></text></g><rect x="0" y="0" width="83" height="68" style="stroke-opacity: 0; stroke-width: 10px; " fill="none" stroke="#ffffff" class="djs-hit"></rect></g><g class=" djs-group djs-shape" data-element-id="_6e79c19f-749d-48c4-8271-d9ca028354fa" transform="matrix(1,0,0,1,872,176)" style="display: block; -webkit-user-select: none; -webkit-user-drag: none; " xmlns="http://www.w3.org/2000/svg"><rect fill="none" class="djs-outline" x="-5" y="-5" width="42" height="42"></rect><g class=" djs-visual"><circle cx="16" cy="16" r="16" style="stroke-width: 4px; " stroke="#000000" fill="#ffffff"></circle></g><rect x="0" y="0" width="32" height="32" style="stroke-opacity: 0; stroke-width: 10px; " fill="none" stroke="#ffffff" class="djs-hit"></rect></g><g class=" djs-group djs-shape" data-element-id="_6e79c19f-749d-48c4-8271-d9ca028354fa_label" transform="matrix(1,0,0,1,840.5963,206.931)" style="display: block; -webkit-user-select: none; -webkit-user-drag: none; " xmlns="http://www.w3.org/2000/svg"><rect fill="none" class="djs-outline" x="-5" y="-5" width="104.93333333333335" height="22.804751171875008"></rect><g class=" djs-visual"><text class=" djs-label" style="font-family: Arial, sans-serif; font-size: 11px; "><tspan x="18.966666666666676" y="12">End Event 1</tspan></text></g><rect x="0" y="0" width="94.93333333333335" height="12.804751171875008" style="stroke-opacity: 0; stroke-width: 10px; " fill="none" stroke="#ffffff" class="djs-hit"></rect></g><g class=" djs-group djs-shape" data-element-id="_c03f2b1f-32dc-41ef-b325-c9811a814fbe" transform="matrix(1,0,0,1,126,177)" style="display: block; -webkit-user-select: none; -webkit-user-drag: none; " xmlns="http://www.w3.org/2000/svg"><rect fill="none" class="djs-outline" x="-5" y="-5" width="40" height="40"></rect><g class=" djs-visual"><circle cx="15" cy="15" r="15" style="stroke-width: 2px; " stroke="#000000" fill="#ffffff"></circle></g><rect x="0" y="0" width="30" height="30" style="stroke-opacity: 0; stroke-width: 10px; " fill="none" stroke="#ffffff" class="djs-hit"></rect></g><g class=" djs-group djs-shape" data-element-id="_c03f2b1f-32dc-41ef-b325-c9811a814fbe_label" transform="matrix(1,0,0,1,93.6777,205.931)" style="display: block; -webkit-user-select: none; -webkit-user-drag: none; " xmlns="http://www.w3.org/2000/svg"><rect fill="none" class="djs-outline" x="-5" y="-5" width="104.93333333333335" height="22.804751171875008"></rect><g class=" djs-visual"><text class=" djs-label" style="font-family: Arial, sans-serif; font-size: 11px; "><tspan x="16.466666666666676" y="12">Start Event 1</tspan></text></g><rect x="0" y="0" width="94.93333333333335" height="12.804751171875008" style="stroke-opacity: 0; stroke-width: 10px; " fill="none" stroke="#ffffff" class="djs-hit"></rect></g><g class=" djs-group djs-shape" data-element-id="_17bebb0f-f31e-475a-b1b1-76fcc2da172b" transform="matrix(1,0,0,1,75,301)" style="display: block; -webkit-user-select: none; -webkit-user-drag: none; " xmlns="http://www.w3.org/2000/svg"><rect fill="none" class="djs-outline" x="-5" y="-5" width="895" height="213"></rect><g class=" djs-visual"><rect x="0" y="0" width="885" height="203" rx="0" ry="0" style="stroke-width: 2px; " stroke="#000000" fill="none"></rect><text class=" djs-label" style="font-family: Arial, sans-serif; font-size: 12px; " transform="matrix(0,-1,1,0,0,203)"><tspan x="82.5" y="18.5">Lane 1</tspan></text></g><rect x="0" y="0" width="885" height="203" style="stroke-opacity: 0; stroke-width: 10px; " fill="none" stroke="#ffffff" class="djs-hit"></rect></g><g class=" djs-group djs-shape" data-element-id="_1c347d0d-750b-4c09-980d-6877caae409b" transform="matrix(1,0,0,1,758,366)" style="display: block; -webkit-user-select: none; -webkit-user-drag: none; " xmlns="http://www.w3.org/2000/svg"><rect fill="none" class="djs-outline" x="-5" y="-5" width="93" height="78"></rect><g class=" djs-visual"><rect x="0" y="0" width="83" height="68" rx="10" ry="10" style="stroke-width: 2px; " stroke="#000000" fill="#ffffff"></rect><text class=" djs-label" style="font-family: Arial, sans-serif; font-size: 12px; "><tspan x="23" y="37.5">Task 5</tspan></text></g><rect x="0" y="0" width="83" height="68" style="stroke-opacity: 0; stroke-width: 10px; " fill="none" stroke="#ffffff" class="djs-hit"></rect></g><g class=" djs-group djs-shape" data-element-id="_65d1bebf-e613-4317-acb2-b12b69fc67ff" transform="matrix(1,0,0,1,120,387)" style="display: block; -webkit-user-select: none; -webkit-user-drag: none; " xmlns="http://www.w3.org/2000/svg"><rect fill="none" class="djs-outline" x="-5" y="-5" width="40" height="40"></rect><g class=" djs-visual"><circle cx="15" cy="15" r="15" style="stroke-width: 2px; " stroke="#000000" fill="#ffffff"></circle></g><rect x="0" y="0" width="30" height="30" style="stroke-opacity: 0; stroke-width: 10px; " fill="none" stroke="#ffffff" class="djs-hit"></rect></g><g class=" djs-group djs-shape" data-element-id="_65d1bebf-e613-4317-acb2-b12b69fc67ff_label" transform="matrix(1,0,0,1,87.6777,415.931)" style="display: block; -webkit-user-select: none; -webkit-user-drag: none; " xmlns="http://www.w3.org/2000/svg"><rect fill="none" class="djs-outline" x="-5" y="-5" width="104.93333333333335" height="22.804751171875008"></rect><g class=" djs-visual"><text class=" djs-label" style="font-family: Arial, sans-serif; font-size: 11px; "><tspan x="16.466666666666676" y="12">Start Event 2</tspan></text></g><rect x="0" y="0" width="94.93333333333335" height="12.804751171875008" style="stroke-opacity: 0; stroke-width: 10px; " fill="none" stroke="#ffffff" class="djs-hit"></rect></g><g class=" djs-group djs-shape" data-element-id="_ee35fa2c-dfea-40cf-a469-845b765a7b50" transform="matrix(1,0,0,1,330,330)" style="display: block; -webkit-user-select: none; -webkit-user-drag: none; " xmlns="http://www.w3.org/2000/svg"><rect fill="none" class="djs-outline" x="-5" y="-5" width="288" height="148"></rect><g class=" djs-visual"><rect x="0" y="0" width="278" height="138" rx="10" ry="10" style="stroke-width: 2px; " stroke="#000000" fill="#ffffff"></rect><text class=" djs-label" style="font-family: Arial, sans-serif; font-size: 12px; "><tspan x="69" y="19">Expanded Sub-Process 1</tspan></text></g><rect x="0" y="0" width="278" height="138" style="stroke-opacity: 0; stroke-width: 10px; " fill="none" stroke="#ffffff" class="djs-hit"></rect></g><g class=" djs-group djs-shape" data-element-id="_1ffaa550-3225-4c6a-a391-3aaf224723af" transform="matrix(1,0,0,1,354,377)" style="display: block; -webkit-user-select: none; -webkit-user-drag: none; " xmlns="http://www.w3.org/2000/svg"><rect fill="none" class="djs-outline" x="-5" y="-5" width="40" height="40"></rect><g class=" djs-visual"><circle cx="15" cy="15" r="15" style="stroke-width: 2px; " stroke="#000000" fill="#ffffff"></circle></g><rect x="0" y="0" width="30" height="30" style="stroke-opacity: 0; stroke-width: 10px; " fill="none" stroke="#ffffff" class="djs-hit"></rect></g><g class=" djs-group djs-shape" data-element-id="_1ffaa550-3225-4c6a-a391-3aaf224723af_label" transform="matrix(1,0,0,1,321.6777,405.931)" style="display: block; -webkit-user-select: none; -webkit-user-drag: none; " xmlns="http://www.w3.org/2000/svg"><rect fill="none" class="djs-outline" x="-5" y="-5" width="104.93333333333335" height="22.804751171875008"></rect><g class=" djs-visual"><text class=" djs-label" style="font-family: Arial, sans-serif; font-size: 11px; "><tspan x="16.466666666666676" y="12">Start Event 3</tspan></text></g><rect x="0" y="0" width="94.93333333333335" height="12.804751171875008" style="stroke-opacity: 0; stroke-width: 10px; " fill="none" stroke="#ffffff" class="djs-hit"></rect></g><g class=" djs-group djs-shape" data-element-id="_09532ad3-e571-4214-b580-7bebf4bb68b1" transform="matrix(1,0,0,1,418,358)" style="display: block; -webkit-user-select: none; -webkit-user-drag: none; " xmlns="http://www.w3.org/2000/svg"><rect fill="none" class="djs-outline" x="-5" y="-5" width="93" height="78"></rect><g class=" djs-visual"><rect x="0" y="0" width="83" height="68" rx="10" ry="10" style="stroke-width: 2px; " stroke="#000000" fill="#ffffff"></rect><text class=" djs-label" style="font-family: Arial, sans-serif; font-size: 12px; "><tspan x="23" y="37.5">Task 4</tspan></text></g><rect x="0" y="0" width="83" height="68" style="stroke-opacity: 0; stroke-width: 10px; " fill="none" stroke="#ffffff" class="djs-hit"></rect></g><g class=" djs-group djs-shape" data-element-id="_3e5ac6ed-88d6-4f82-a647-6b253b80b004" transform="matrix(1,0,0,1,553,376)" style="display: block; -webkit-user-select: none; -webkit-user-drag: none; " xmlns="http://www.w3.org/2000/svg"><rect fill="none" class="djs-outline" x="-5" y="-5" width="42" height="42"></rect><g class=" djs-visual"><circle cx="16" cy="16" r="16" style="stroke-width: 4px; " stroke="#000000" fill="#ffffff"></circle></g><rect x="0" y="0" width="32" height="32" style="stroke-opacity: 0; stroke-width: 10px; " fill="none" stroke="#ffffff" class="djs-hit"></rect></g><g class=" djs-group djs-shape" data-element-id="_3e5ac6ed-88d6-4f82-a647-6b253b80b004_label" transform="matrix(1,0,0,1,521.5963,406.931)" style="display: block; -webkit-user-select: none; -webkit-user-drag: none; " xmlns="http://www.w3.org/2000/svg"><rect fill="none" class="djs-outline" x="-5" y="-5" width="104.93333333333335" height="22.804751171875008"></rect><g class=" djs-visual"><text class=" djs-label" style="font-family: Arial, sans-serif; font-size: 11px; "><tspan x="18.966666666666676" y="12">End Event 3</tspan></text></g><rect x="0" y="0" width="94.93333333333335" height="12.804751171875008" style="stroke-opacity: 0; stroke-width: 10px; " fill="none" stroke="#ffffff" class="djs-hit"></rect></g><g class=" djs-group djs-shape" data-element-id="_7c434d45-d319-457b-9fd6-853c218bc3f1" transform="matrix(1,0,0,1,880,384)" style="display: block; -webkit-user-select: none; -webkit-user-drag: none; " xmlns="http://www.w3.org/2000/svg"><rect fill="none" class="djs-outline" x="-5" y="-5" width="42" height="42"></rect><g class=" djs-visual"><circle cx="16" cy="16" r="16" style="stroke-width: 4px; " stroke="#000000" fill="#ffffff"></circle></g><rect x="0" y="0" width="32" height="32" style="stroke-opacity: 0; stroke-width: 10px; " fill="none" stroke="#ffffff" class="djs-hit"></rect></g><g class=" djs-group djs-shape" data-element-id="_7c434d45-d319-457b-9fd6-853c218bc3f1_label" transform="matrix(1,0,0,1,848.5963,414.931)" style="display: block; -webkit-user-select: none; -webkit-user-drag: none; " xmlns="http://www.w3.org/2000/svg"><rect fill="none" class="djs-outline" x="-5" y="-5" width="104.93333333333335" height="22.804751171875008"></rect><g class=" djs-visual"><text class=" djs-label" style="font-family: Arial, sans-serif; font-size: 11px; "><tspan x="18.966666666666676" y="12">End Event 2</tspan></text></g><rect x="0" y="0" width="94.93333333333335" height="12.804751171875008" style="stroke-opacity: 0; stroke-width: 10px; " fill="none" stroke="#ffffff" class="djs-hit"></rect></g><g class=" djs-group djs-shape" data-element-id="_6fed62c8-8241-4a1d-ae67-266fda7dcead" transform="matrix(1,0,0,1,198,368)" style="display: block; -webkit-user-select: none; -webkit-user-drag: none; " xmlns="http://www.w3.org/2000/svg"><rect fill="none" class="djs-outline" x="-5" y="-5" width="93" height="78"></rect><g class=" djs-visual"><rect x="0" y="0" width="83" height="68" rx="10" ry="10" style="stroke-width: 2px; " stroke="#000000" fill="#ffffff"></rect><text class=" djs-label" style="font-family: Arial, sans-serif; font-size: 12px; "><tspan x="23" y="37.5">Task 3</tspan></text></g><rect x="0" y="0" width="83" height="68" style="stroke-opacity: 0; stroke-width: 10px; " fill="none" stroke="#ffffff" class="djs-hit"></rect></g><g class=" djs-group djs-shape" data-element-id="_cc1845d0-ec34-44d3-8ba5-4981040d8dfe" transform="matrix(1,0,0,1,75,504)" style="display: block; -webkit-user-select: none; -webkit-user-drag: none; " xmlns="http://www.w3.org/2000/svg"><rect fill="none" class="djs-outline" x="-5" y="-5" width="895" height="214"></rect><g class=" djs-visual"><rect x="0" y="0" width="885" height="204" rx="0" ry="0" style="stroke-width: 2px; " stroke="#000000" fill="none"></rect><text class=" djs-label" style="font-family: Arial, sans-serif; font-size: 12px; " transform="matrix(0,-1,1,0,0,204)"><tspan x="83" y="18.5">Lane 2</tspan></text></g><rect x="0" y="0" width="885" height="204" style="stroke-opacity: 0; stroke-width: 10px; " fill="none" stroke="#ffffff" class="djs-hit"></rect></g><g class=" djs-group djs-shape" data-element-id="_8e6cecb7-b247-4c43-a6b6-532fb6a89753" transform="matrix(1,0,0,1,648,583)" style="display: block; -webkit-user-select: none; -webkit-user-drag: none; " xmlns="http://www.w3.org/2000/svg"><rect fill="none" class="djs-outline" x="-5" y="-5" width="42" height="42"></rect><g class=" djs-visual"><circle cx="16" cy="16" r="16" style="stroke-width: 4px; " stroke="#000000" fill="#ffffff"></circle></g><rect x="0" y="0" width="32" height="32" style="stroke-opacity: 0; stroke-width: 10px; " fill="none" stroke="#ffffff" class="djs-hit"></rect></g><g class=" djs-group djs-shape" data-element-id="_8e6cecb7-b247-4c43-a6b6-532fb6a89753_label" transform="matrix(1,0,0,1,616.5963,613.931)" style="display: block; -webkit-user-select: none; -webkit-user-drag: none; " xmlns="http://www.w3.org/2000/svg"><rect fill="none" class="djs-outline" x="-5" y="-5" width="104.93333333333335" height="22.804751171875008"></rect><g class=" djs-visual"><text class=" djs-label" style="font-family: Arial, sans-serif; font-size: 11px; "><tspan x="18.966666666666676" y="12">End Event 5</tspan></text></g><rect x="0" y="0" width="94.93333333333335" height="12.804751171875008" style="stroke-opacity: 0; stroke-width: 10px; " fill="none" stroke="#ffffff" class="djs-hit"></rect></g><g class=" djs-group djs-shape" data-element-id="_f52b6ad0-4dcc-4053-b696-b924dda01db5" transform="matrix(1,0,0,1,270,525)" style="display: block; -webkit-user-select: none; -webkit-user-drag: none; " xmlns="http://www.w3.org/2000/svg"><rect fill="none" class="djs-outline" x="-5" y="-5" width="325" height="157"></rect><g class=" djs-visual"><rect x="0" y="0" width="315" height="147" rx="10" ry="10" style="stroke-width: 2px; " stroke="#000000" fill="#ffffff"></rect><text class=" djs-label" style="font-family: Arial, sans-serif; font-size: 12px; "><tspan x="87.5" y="19">Expanded Sub-Process 2</tspan></text></g><rect x="0" y="0" width="315" height="147" style="stroke-opacity: 0; stroke-width: 10px; " fill="none" stroke="#ffffff" class="djs-hit"></rect></g><g class=" djs-group djs-shape" data-element-id="_47bef337-7915-459d-a9cd-e9c87c98f8fa" transform="matrix(1,0,0,1,300,573)" style="display: block; -webkit-user-select: none; -webkit-user-drag: none; " xmlns="http://www.w3.org/2000/svg"><rect fill="none" class="djs-outline" x="-5" y="-5" width="40" height="40"></rect><g class=" djs-visual"><circle cx="15" cy="15" r="15" style="stroke-width: 2px; " stroke="#000000" fill="#ffffff"></circle></g><rect x="0" y="0" width="30" height="30" style="stroke-opacity: 0; stroke-width: 10px; " fill="none" stroke="#ffffff" class="djs-hit"></rect></g><g class=" djs-group djs-shape" data-element-id="_47bef337-7915-459d-a9cd-e9c87c98f8fa_label" transform="matrix(1,0,0,1,267.6777,601.931)" style="display: block; -webkit-user-select: none; -webkit-user-drag: none; " xmlns="http://www.w3.org/2000/svg"><rect fill="none" class="djs-outline" x="-5" y="-5" width="104.93333333333335" height="22.804751171875008"></rect><g class=" djs-visual"><text class=" djs-label" style="font-family: Arial, sans-serif; font-size: 11px; "><tspan x="16.466666666666676" y="12">Start Event 4</tspan></text></g><rect x="0" y="0" width="94.93333333333335" height="12.804751171875008" style="stroke-opacity: 0; stroke-width: 10px; " fill="none" stroke="#ffffff" class="djs-hit"></rect></g><g class=" djs-group djs-shape" data-element-id="_15f8f2a4-5e55-4159-b349-403ac4cbdefb" transform="matrix(1,0,0,1,384,554)" style="display: block; -webkit-user-select: none; -webkit-user-drag: none; " xmlns="http://www.w3.org/2000/svg"><rect fill="none" class="djs-outline" x="-5" y="-5" width="93" height="78"></rect><g class=" djs-visual"><rect x="0" y="0" width="83" height="68" rx="10" ry="10" style="stroke-width: 2px; " stroke="#000000" fill="#ffffff"></rect><text class=" djs-label" style="font-family: Arial, sans-serif; font-size: 12px; "><tspan x="23" y="37.5">Task 6</tspan></text></g><rect x="0" y="0" width="83" height="68" style="stroke-opacity: 0; stroke-width: 10px; " fill="none" stroke="#ffffff" class="djs-hit"></rect></g><g class=" djs-group djs-shape" data-element-id="_bb8b7952-0991-4b7c-a851-97327832d7b8" transform="matrix(1,0,0,1,522,572)" style="display: block; -webkit-user-select: none; -webkit-user-drag: none; " xmlns="http://www.w3.org/2000/svg"><rect fill="none" class="djs-outline" x="-5" y="-5" width="42" height="42"></rect><g class=" djs-visual"><circle cx="16" cy="16" r="16" style="stroke-width: 4px; " stroke="#000000" fill="#ffffff"></circle></g><rect x="0" y="0" width="32" height="32" style="stroke-opacity: 0; stroke-width: 10px; " fill="none" stroke="#ffffff" class="djs-hit"></rect></g><g class=" djs-group djs-shape" data-element-id="_bb8b7952-0991-4b7c-a851-97327832d7b8_label" transform="matrix(1,0,0,1,490.5963,602.931)" style="display: block; -webkit-user-select: none; -webkit-user-drag: none; " xmlns="http://www.w3.org/2000/svg"><rect fill="none" class="djs-outline" x="-5" y="-5" width="104.93333333333335" height="22.804751171875008"></rect><g class=" djs-visual"><text class=" djs-label" style="font-family: Arial, sans-serif; font-size: 11px; "><tspan x="18.966666666666676" y="12">End Event 4</tspan></text></g><rect x="0" y="0" width="94.93333333333335" height="12.804751171875008" style="stroke-opacity: 0; stroke-width: 10px; " fill="none" stroke="#ffffff" class="djs-hit"></rect></g><g class=" djs-group djs-connection" data-element-id="_44b1d373-57a1-4b8e-ba2e-3204c32519e5" style="display: block; -webkit-user-select: none; -webkit-user-drag: none; " xmlns="http://www.w3.org/2000/svg"><g class=" djs-visual"><path d="m  156,192L199,192 " style="stroke-width: 2px; marker-end: url(#markerSi03vywgq8); " fill="none" stroke="#000000"></path></g><polyline points="156,192 199,192 " style="stroke-opacity: 0; stroke-width: 10px; " fill="none" stroke="#ffffff" class="djs-hit"></polyline></g><g class=" djs-group djs-shape" data-element-id="_44b1d373-57a1-4b8e-ba2e-3204c32519e5_label" transform="matrix(1,0,0,1,132.5,182)" style="display: none; -webkit-user-select: none; -webkit-user-drag: none; " xmlns="http://www.w3.org/2000/svg"><rect fill="none" class="djs-outline" x="-5" y="-5" width="100" height="30"></rect><g class=" djs-visual"><text class=" djs-label" style="font-family: Arial, sans-serif; font-size: 11px; "><tspan x="45" y="0"></tspan></text></g><rect x="0" y="0" width="90" height="20" style="stroke-opacity: 0; stroke-width: 10px; " fill="none" stroke="#ffffff" class="djs-hit"></rect></g><g class=" djs-group djs-connection" data-element-id="_f35e3b07-7b1f-433d-9595-7fdea8996954" style="display: block; -webkit-user-select: none; -webkit-user-drag: none; " xmlns="http://www.w3.org/2000/svg"><g class=" djs-visual"><path d="m  842,192L860,192 L872,192 " style="stroke-width: 2px; marker-end: url(#markerSi03vywgq8); " fill="none" stroke="#000000"></path></g><polyline points="842,192 860,192 872,192 " style="stroke-opacity: 0; stroke-width: 10px; " fill="none" stroke="#ffffff" class="djs-hit"></polyline></g><g class=" djs-group djs-shape" data-element-id="_f35e3b07-7b1f-433d-9595-7fdea8996954_label" transform="matrix(1,0,0,1,806,182)" style="display: none; -webkit-user-select: none; -webkit-user-drag: none; " xmlns="http://www.w3.org/2000/svg"><rect fill="none" class="djs-outline" x="-5" y="-5" width="100" height="30"></rect><g class=" djs-visual"><text class=" djs-label" style="font-family: Arial, sans-serif; font-size: 11px; "><tspan x="45" y="0"></tspan></text></g><rect x="0" y="0" width="90" height="20" style="stroke-opacity: 0; stroke-width: 10px; " fill="none" stroke="#ffffff" class="djs-hit"></rect></g><g class=" djs-group djs-connection" data-element-id="_6b7f2411-77f7-4152-be39-d8dbeb8bc460" style="display: block; -webkit-user-select: none; -webkit-user-drag: none; " xmlns="http://www.w3.org/2000/svg"><g class=" djs-visual"><path d="m  282,192L758,192 " style="stroke-width: 2px; marker-end: url(#markerSi03vywgq8); " fill="none" stroke="#000000"></path></g><polyline points="282,192 758,192 " style="stroke-opacity: 0; stroke-width: 10px; " fill="none" stroke="#ffffff" class="djs-hit"></polyline></g><g class=" djs-group djs-shape" data-element-id="_6b7f2411-77f7-4152-be39-d8dbeb8bc460_label" transform="matrix(1,0,0,1,475,182)" style="display: none; -webkit-user-select: none; -webkit-user-drag: none; " xmlns="http://www.w3.org/2000/svg"><rect fill="none" class="djs-outline" x="-5" y="-5" width="100" height="30"></rect><g class=" djs-visual"><text class=" djs-label" style="font-family: Arial, sans-serif; font-size: 11px; "><tspan x="45" y="0"></tspan></text></g><rect x="0" y="0" width="90" height="20" style="stroke-opacity: 0; stroke-width: 10px; " fill="none" stroke="#ffffff" class="djs-hit"></rect></g><g class=" djs-group djs-connection" data-element-id="_3580d9ba-4f79-48c1-96da-090bd5e5172d" style="display: block; -webkit-user-select: none; -webkit-user-drag: none; " xmlns="http://www.w3.org/2000/svg"><g class=" djs-visual"><path d="m  384,392L418,392 " style="stroke-width: 2px; marker-end: url(#markerSi03vywgq8); " fill="none" stroke="#000000"></path></g><polyline points="384,392 418,392 " style="stroke-opacity: 0; stroke-width: 10px; " fill="none" stroke="#ffffff" class="djs-hit"></polyline></g><g class=" djs-group djs-shape" data-element-id="_3580d9ba-4f79-48c1-96da-090bd5e5172d_label" transform="matrix(1,0,0,1,356,382)" style="display: none; -webkit-user-select: none; -webkit-user-drag: none; " xmlns="http://www.w3.org/2000/svg"><rect fill="none" class="djs-outline" x="-5" y="-5" width="100" height="30"></rect><g class=" djs-visual"><text class=" djs-label" style="font-family: Arial, sans-serif; font-size: 11px; "><tspan x="45" y="0"></tspan></text></g><rect x="0" y="0" width="90" height="20" style="stroke-opacity: 0; stroke-width: 10px; " fill="none" stroke="#ffffff" class="djs-hit"></rect></g><g class=" djs-group djs-connection" data-element-id="_f5e6dc98-8c79-4e6b-aef9-c3f3bdc09136" style="display: block; -webkit-user-select: none; -webkit-user-drag: none; " xmlns="http://www.w3.org/2000/svg"><g class=" djs-visual"><path d="m  501,392L519,392 L553,392 " style="stroke-width: 2px; marker-end: url(#markerSi03vywgq8); " fill="none" stroke="#000000"></path></g><polyline points="501,392 519,392 553,392 " style="stroke-opacity: 0; stroke-width: 10px; " fill="none" stroke="#ffffff" class="djs-hit"></polyline></g><g class=" djs-group djs-shape" data-element-id="_f5e6dc98-8c79-4e6b-aef9-c3f3bdc09136_label" transform="matrix(1,0,0,1,465,382)" style="display: none; -webkit-user-select: none; -webkit-user-drag: none; " xmlns="http://www.w3.org/2000/svg"><rect fill="none" class="djs-outline" x="-5" y="-5" width="100" height="30"></rect><g class=" djs-visual"><text class=" djs-label" style="font-family: Arial, sans-serif; font-size: 11px; "><tspan x="45" y="0"></tspan></text></g><rect x="0" y="0" width="90" height="20" style="stroke-opacity: 0; stroke-width: 10px; " fill="none" stroke="#ffffff" class="djs-hit"></rect></g><g class=" djs-group djs-connection" data-element-id="_807d5f9c-e4e5-49fc-b44a-da9743a94556" style="display: block; -webkit-user-select: none; -webkit-user-drag: none; " xmlns="http://www.w3.org/2000/svg"><g class=" djs-visual"><path d="m  330,588L348,588 L384,588 " style="stroke-width: 2px; marker-end: url(#markerSi03vywgq8); " fill="none" stroke="#000000"></path></g><polyline points="330,588 348,588 384,588 " style="stroke-opacity: 0; stroke-width: 10px; " fill="none" stroke="#ffffff" class="djs-hit"></polyline></g><g class=" djs-group djs-shape" data-element-id="_807d5f9c-e4e5-49fc-b44a-da9743a94556_label" transform="matrix(1,0,0,1,294,578)" style="display: none; -webkit-user-select: none; -webkit-user-drag: none; " xmlns="http://www.w3.org/2000/svg"><rect fill="none" class="djs-outline" x="-5" y="-5" width="100" height="30"></rect><g class=" djs-visual"><text class=" djs-label" style="font-family: Arial, sans-serif; font-size: 11px; "><tspan x="45" y="0"></tspan></text></g><rect x="0" y="0" width="90" height="20" style="stroke-opacity: 0; stroke-width: 10px; " fill="none" stroke="#ffffff" class="djs-hit"></rect></g><g class=" djs-group djs-connection" data-element-id="_237d3b22-6012-49f7-90a3-cd259426caf9" style="display: block; -webkit-user-select: none; -webkit-user-drag: none; " xmlns="http://www.w3.org/2000/svg"><g class=" djs-visual"><path d="m  468,588L486,588 L522,588 " style="stroke-width: 2px; marker-end: url(#markerSi03vywgq8); " fill="none" stroke="#000000"></path></g><polyline points="468,588 486,588 522,588 " style="stroke-opacity: 0; stroke-width: 10px; " fill="none" stroke="#ffffff" class="djs-hit"></polyline></g><g class=" djs-group djs-shape" data-element-id="_237d3b22-6012-49f7-90a3-cd259426caf9_label" transform="matrix(1,0,0,1,432,578)" style="display: none; -webkit-user-select: none; -webkit-user-drag: none; " xmlns="http://www.w3.org/2000/svg"><rect fill="none" class="djs-outline" x="-5" y="-5" width="100" height="30"></rect><g class=" djs-visual"><text class=" djs-label" style="font-family: Arial, sans-serif; font-size: 11px; "><tspan x="45" y="0"></tspan></text></g><rect x="0" y="0" width="90" height="20" style="stroke-opacity: 0; stroke-width: 10px; " fill="none" stroke="#ffffff" class="djs-hit"></rect></g><g class=" djs-group djs-connection" data-element-id="_1873ed55-ba18-433f-8d1a-eb84d18da049" style="display: block; -webkit-user-select: none; -webkit-user-drag: none; " xmlns="http://www.w3.org/2000/svg"><g class=" djs-visual"><path d="m  281,402L299,402 L330,402 " style="stroke-width: 2px; marker-end: url(#markerSi03vywgq8); " fill="none" stroke="#000000"></path></g><polyline points="281,402 299,402 330,402 " style="stroke-opacity: 0; stroke-width: 10px; " fill="none" stroke="#ffffff" class="djs-hit"></polyline></g><g class=" djs-group djs-shape" data-element-id="_1873ed55-ba18-433f-8d1a-eb84d18da049_label" transform="matrix(1,0,0,1,245,392)" style="display: none; -webkit-user-select: none; -webkit-user-drag: none; " xmlns="http://www.w3.org/2000/svg"><rect fill="none" class="djs-outline" x="-5" y="-5" width="100" height="30"></rect><g class=" djs-visual"><text class=" djs-label" style="font-family: Arial, sans-serif; font-size: 11px; "><tspan x="45" y="0"></tspan></text></g><rect x="0" y="0" width="90" height="20" style="stroke-opacity: 0; stroke-width: 10px; " fill="none" stroke="#ffffff" class="djs-hit"></rect></g><g class=" djs-group djs-connection" data-element-id="_ebbaed22-6fcb-4af7-8b7a-7ebc9cc7f150" style="display: block; -webkit-user-select: none; -webkit-user-drag: none; " xmlns="http://www.w3.org/2000/svg"><g class=" djs-visual"><path d="m  608,399L758,400 " style="stroke-width: 2px; marker-end: url(#markerSi03vywgq8); " fill="none" stroke="#000000"></path></g><polyline points="608,399 758,400 " style="stroke-opacity: 0; stroke-width: 10px; " fill="none" stroke="#ffffff" class="djs-hit"></polyline></g><g class=" djs-group djs-shape" data-element-id="_ebbaed22-6fcb-4af7-8b7a-7ebc9cc7f150_label" transform="matrix(1,0,0,1,638,389.5)" style="display: none; -webkit-user-select: none; -webkit-user-drag: none; " xmlns="http://www.w3.org/2000/svg"><rect fill="none" class="djs-outline" x="-5" y="-5" width="100" height="30"></rect><g class=" djs-visual"><text class=" djs-label" style="font-family: Arial, sans-serif; font-size: 11px; "><tspan x="45" y="0"></tspan></text></g><rect x="0" y="0" width="90" height="20" style="stroke-opacity: 0; stroke-width: 10px; " fill="none" stroke="#ffffff" class="djs-hit"></rect></g><g class=" djs-group djs-connection" data-element-id="_0020ed6a-6dde-499f-9fda-36c8bde20ec6" style="display: block; -webkit-user-select: none; -webkit-user-drag: none; " xmlns="http://www.w3.org/2000/svg"><g class=" djs-visual"><path d="m  842,400L860,400 L880,400 " style="stroke-width: 2px; marker-end: url(#markerSi03vywgq8); " fill="none" stroke="#000000"></path></g><polyline points="842,400 860,400 880,400 " style="stroke-opacity: 0; stroke-width: 10px; " fill="none" stroke="#ffffff" class="djs-hit"></polyline></g><g class=" djs-group djs-shape" data-element-id="_0020ed6a-6dde-499f-9fda-36c8bde20ec6_label" transform="matrix(1,0,0,1,806,390)" style="display: none; -webkit-user-select: none; -webkit-user-drag: none; " xmlns="http://www.w3.org/2000/svg"><rect fill="none" class="djs-outline" x="-5" y="-5" width="100" height="30"></rect><g class=" djs-visual"><text class=" djs-label" style="font-family: Arial, sans-serif; font-size: 11px; "><tspan x="45" y="0"></tspan></text></g><rect x="0" y="0" width="90" height="20" style="stroke-opacity: 0; stroke-width: 10px; " fill="none" stroke="#ffffff" class="djs-hit"></rect></g><g class=" djs-group djs-connection" data-element-id="_08d345a0-2bc3-4988-bfb2-7c2576839505" style="display: block; -webkit-user-select: none; -webkit-user-drag: none; " xmlns="http://www.w3.org/2000/svg"><g class=" djs-visual"><path d="m  240,436L240,596 L270,596 " style="stroke-width: 2px; marker-end: url(#markerSi03vywgq8); " fill="none" stroke="#000000"></path></g><polyline points="240,436 240,596 270,596 " style="stroke-opacity: 0; stroke-width: 10px; " fill="none" stroke="#ffffff" class="djs-hit"></polyline></g><g class=" djs-group djs-shape" data-element-id="_08d345a0-2bc3-4988-bfb2-7c2576839505_label" transform="matrix(1,0,0,1,195,506)" style="display: none; -webkit-user-select: none; -webkit-user-drag: none; " xmlns="http://www.w3.org/2000/svg"><rect fill="none" class="djs-outline" x="-5" y="-5" width="100" height="30"></rect><g class=" djs-visual"><text class=" djs-label" style="font-family: Arial, sans-serif; font-size: 11px; "><tspan x="45" y="0"></tspan></text></g><rect x="0" y="0" width="90" height="20" style="stroke-opacity: 0; stroke-width: 10px; " fill="none" stroke="#ffffff" class="djs-hit"></rect></g><g class=" djs-group djs-connection" data-element-id="_1f3792a7-da0f-4621-8c10-a04b67e33f5b" style="display: block; -webkit-user-select: none; -webkit-user-drag: none; " xmlns="http://www.w3.org/2000/svg"><g class=" djs-visual"><path d="m  585,599L603,599 L648,599 " style="stroke-width: 2px; marker-end: url(#markerSi03vywgq8); " fill="none" stroke="#000000"></path></g><polyline points="585,599 603,599 648,599 " style="stroke-opacity: 0; stroke-width: 10px; " fill="none" stroke="#ffffff" class="djs-hit"></polyline></g><g class=" djs-group djs-shape" data-element-id="_1f3792a7-da0f-4621-8c10-a04b67e33f5b_label" transform="matrix(1,0,0,1,549,589)" style="display: none; -webkit-user-select: none; -webkit-user-drag: none; " xmlns="http://www.w3.org/2000/svg"><rect fill="none" class="djs-outline" x="-5" y="-5" width="100" height="30"></rect><g class=" djs-visual"><text class=" djs-label" style="font-family: Arial, sans-serif; font-size: 11px; "><tspan x="45" y="0"></tspan></text></g><rect x="0" y="0" width="90" height="20" style="stroke-opacity: 0; stroke-width: 10px; " fill="none" stroke="#ffffff" class="djs-hit"></rect></g><g class=" djs-group djs-connection" data-element-id="_486d13e4-86ef-49b2-bba9-f03435494f0e" style="display: block; -webkit-user-select: none; -webkit-user-drag: none; " xmlns="http://www.w3.org/2000/svg"><g class=" djs-visual"><path d="m  150,402L168,402 L198,402 " style="stroke-width: 2px; marker-end: url(#markerSi03vywgq8); " fill="none" stroke="#000000"></path></g><polyline points="150,402 168,402 198,402 " style="stroke-opacity: 0; stroke-width: 10px; " fill="none" stroke="#ffffff" class="djs-hit"></polyline></g><g class=" djs-group djs-shape" data-element-id="_486d13e4-86ef-49b2-bba9-f03435494f0e_label" transform="matrix(1,0,0,1,114,392)" style="display: none; -webkit-user-select: none; -webkit-user-drag: none; " xmlns="http://www.w3.org/2000/svg"><rect fill="none" class="djs-outline" x="-5" y="-5" width="100" height="30"></rect><g class=" djs-visual"><text class=" djs-label" style="font-family: Arial, sans-serif; font-size: 11px; "><tspan x="45" y="0"></tspan></text></g><rect x="0" y="0" width="90" height="20" style="stroke-opacity: 0; stroke-width: 10px; " fill="none" stroke="#ffffff" class="djs-hit"></rect></g></svg>