<?xml version="1.0" encoding="utf-8"?>
<!-- created with bpmn-js / http://bpmn.io -->
<!DOCTYPE svg PUBLIC "-//W3C//DTD SVG 1.1//EN" "http://www.w3.org/Graphics/SVG/1.1/DTD/svg11.dtd">
<svg xmlns="http://www.w3.org/2000/svg" xmlns:xlink="http://www.w3.org/1999/xlink" width="839" height="311" viewBox="151 71 839 311" version="1.1"><g class="djs-group"><g class="djs-element djs-shape" data-element-id="Participant_02" transform="matrix(1, 0, 0, 1, 156, 76)" style="display: block;"><g class="djs-visual"><rect x="0" y="0" width="829" height="301" rx="0" ry="0" style="stroke-linecap: round; stroke-linejoin: round; stroke: rgb(34, 36, 42); stroke-width: 1.5px; fill: white; fill-opacity: 0.95;"/><path style="fill: none; stroke-linecap: round; stroke-linejoin: round; stroke: rgb(34, 36, 42); stroke-width: 1.5px;" d="M30,0L30,301"/><text style="font-family: Arial, sans-serif; font-size: 12px; font-weight: normal; fill: rgb(34, 36, 42);" lineHeight="1.2" class="djs-label" transform="matrix(-1.83697e-16, -1, 1, -1.83697e-16, 0, 301)"><tspan x="99.16666793823242" y="18.6">Document Request</tspan></text></g><rect style="fill: none; stroke-opacity: 0; stroke: white; stroke-width: 15px;" class="djs-hit djs-hit-all" x="0" y="0" width="829" height="301"/></g><g class="djs-children"><g class="djs-group"><g class="djs-element djs-shape" data-element-id="SendTask_RequestDocument" transform="matrix(1, 0, 0, 1, 323, 99)" style="display: block;"><g class="djs-visual"><rect x="0" y="0" width="100" height="80" rx="10" ry="10" style="stroke-linecap: round; stroke-linejoin: round; stroke: rgb(34, 36, 42); stroke-width: 2px; fill: white; fill-opacity: 0.95;"/><text style="font-family: Arial, sans-serif; font-size: 12px; font-weight: normal; fill: rgb(34, 36, 42);" lineHeight="1.2" class="djs-label"><tspan x="27.66666603088379" y="36.4">Request </tspan><tspan x="23.66666603088379" y="50.8">document</tspan></text><path style="fill: rgb(34, 36, 42); stroke-linecap: round; stroke-linejoin: round; stroke: white; stroke-width: 1px;" d="m 5.984999999999999,4.997999999999999 l 0,14 l 21,0 l 0,-14 z l 10.5,6 l 10.5,-6"/></g><rect style="fill: none; stroke-opacity: 0; stroke: white; stroke-width: 15px;" class="djs-hit djs-hit-all" x="0" y="0" width="100" height="80"/></g></g><g class="djs-group"><g class="djs-element djs-shape" data-element-id="EndEvent_TalkedToCustomer" transform="matrix(1, 0, 0, 1, 900, 206)" style="display: block;"><g class="djs-visual"><circle cx="18" cy="18" r="18" style="stroke-linecap: round; stroke-linejoin: round; stroke: rgb(34, 36, 42); stroke-width: 4px; fill: white; fill-opacity: 0.95;"/></g><rect style="fill: none; stroke-opacity: 0; stroke: white; stroke-width: 15px;" class="djs-hit djs-hit-all" x="0" y="0" width="36" height="36"/></g></g><g class="djs-group"><g class="djs-element djs-shape" data-element-id="EndEvent_TalkedToCustomer_label" transform="matrix(1, 0, 0, 1, 879, 247)" style="display: block;"><g class="djs-visual"><text style="font-family: Arial, sans-serif; font-size: 11px; font-weight: normal; fill: rgb(34, 36, 42);" lineHeight="1.2" class="djs-label"><tspan x="0.34166717529296875" y="9.899999999999999">Answer received</tspan></text></g><rect style="fill: none; stroke-opacity: 0; stroke: white; stroke-width: 15px;" class="djs-hit djs-hit-all" x="0" y="0" width="82" height="14"/></g></g><g class="djs-group"><g class="djs-element djs-shape" data-element-id="SendTask_SendReminderEmail" transform="matrix(1, 0, 0, 1, 663, 280)" style="display: block;"><g class="djs-visual"><rect x="0" y="0" width="100" height="80" rx="10" ry="10" style="stroke-linecap: round; stroke-linejoin: round; stroke: rgb(34, 36, 42); stroke-width: 2px; fill: white; fill-opacity: 0.95;"/><text style="font-family: Arial, sans-serif; font-size: 12px; font-weight: normal; fill: rgb(34, 36, 42);" lineHeight="1.2" class="djs-label"><tspan x="10.666667938232422" y="36.4">Send reminder </tspan><tspan x="35.666666984558105" y="50.8">email</tspan></text><path style="fill: rgb(34, 36, 42); stroke-linecap: round; stroke-linejoin: round; stroke: white; stroke-width: 1px;" d="m 5.984999999999999,4.997999999999999 l 0,14 l 21,0 l 0,-14 z l 10.5,6 l 10.5,-6"/></g><rect style="fill: none; stroke-opacity: 0; stroke: white; stroke-width: 15px;" class="djs-hit djs-hit-all" x="0" y="0" width="100" height="80"/></g></g><g class="djs-group"><g class="djs-element djs-shape" data-element-id="UserTask_CallCustomer" transform="matrix(1, 0, 0, 1, 663, 184)" style="display: block;"><g class="djs-visual"><rect x="0" y="0" width="100" height="80" rx="10" ry="10" style="stroke-linecap: round; stroke-linejoin: round; stroke: rgb(34, 36, 42); stroke-width: 2px; fill: white; fill-opacity: 0.95;"/><text style="font-family: Arial, sans-serif; font-size: 12px; font-weight: normal; fill: rgb(34, 36, 42);" lineHeight="1.2" class="djs-label"><tspan x="13.333332061767578" y="43.599999999999994">Call customer</tspan></text><path style="fill: white; stroke-linecap: round; stroke-linejoin: round; stroke: rgb(34, 36, 42); stroke-width: 0.5px;" d="m 15,12 c 0.909,-0.845 1.594,-2.049 1.594,-3.385 0,-2.554 -1.805,-4.62199999 -4.357,-4.62199999 -2.55199998,0 -4.28799998,2.06799999 -4.28799998,4.62199999 0,1.348 0.974,2.562 1.89599998,3.405 -0.52899998,0.187 -5.669,2.097 -5.794,4.7560005 v 6.718 h 17 v -6.718 c 0,-2.2980005 -5.5279996,-4.5950005 -6.0509996,-4.7760005 zm -8,6 l 0,5.5 m 11,0 l 0,-5"/><path style="fill: white; stroke-linecap: round; stroke-linejoin: round; stroke: rgb(34, 36, 42); stroke-width: 0.5px;" d="m 15,12 m 2.162,1.009 c 0,2.4470005 -2.158,4.4310005 -4.821,4.4310005 -2.66499998,0 -4.822,-1.981 -4.822,-4.4310005 "/><path style="fill: rgb(34, 36, 42); stroke-linecap: round; stroke-linejoin: round; stroke: rgb(34, 36, 42); stroke-width: 0.5px;" d="m 15,12 m -6.9,-3.80 c 0,0 2.25099998,-2.358 4.27399998,-1.177 2.024,1.181 4.221,1.537 4.124,0.965 -0.098,-0.57 -0.117,-3.79099999 -4.191,-4.13599999 -3.57499998,0.001 -4.20799998,3.36699999 -4.20699998,4.34799999 z"/></g><rect style="fill: none; stroke-opacity: 0; stroke: white; stroke-width: 15px;" class="djs-hit djs-hit-all" x="0" y="0" width="100" height="80"/></g></g><g class="djs-group"><g class="djs-element djs-shape" data-element-id="ReceiveTask_WaitForDocument" transform="matrix(1, 0, 0, 1, 494, 99)" style="display: block;"><g class="djs-visual"><rect x="0" y="0" width="100" height="80" rx="10" ry="10" style="stroke-linecap: round; stroke-linejoin: round; stroke: rgb(34, 36, 42); stroke-width: 2px; fill: white; fill-opacity: 0.95;"/><text style="font-family: Arial, sans-serif; font-size: 12px; font-weight: normal; fill: rgb(34, 36, 42);" lineHeight="1.2" class="djs-label"><tspan x="8.558334350585938" y="43.599999999999994">Wait for answer</tspan></text><path style="fill: white; stroke-linecap: round; stroke-linejoin: round; stroke: rgb(34, 36, 42); stroke-width: 1px;" d="m 6.3,5.6000000000000005 l 0,12.6 l 18.900000000000002,0 l 0,-12.6 z l 9.450000000000001,5.4 l 9.450000000000001,-5.4"/></g><rect style="fill: none; stroke-opacity: 0; stroke: white; stroke-width: 15px;" class="djs-hit djs-hit-all" x="0" y="0" width="100" height="80"/></g></g><g class="djs-group"><g class="djs-element djs-shape" data-element-id="EndEvent_GotDocument" transform="matrix(1, 0, 0, 1, 900, 121)" style="display: block;"><g class="djs-visual"><circle cx="18" cy="18" r="18" style="stroke-linecap: round; stroke-linejoin: round; stroke: rgb(34, 36, 42); stroke-width: 4px; fill: white; fill-opacity: 0.95;"/></g><rect style="fill: none; stroke-opacity: 0; stroke: white; stroke-width: 15px;" class="djs-hit djs-hit-all" x="0" y="0" width="36" height="36"/></g></g><g class="djs-group"><g class="djs-element djs-shape" data-element-id="EndEvent_GotDocument_label" transform="matrix(1, 0, 0, 1, 894, 157)" style="display: block;"><g class="djs-visual"><text style="font-family: Arial, sans-serif; font-size: 11px; font-weight: normal; fill: rgb(34, 36, 42);" lineHeight="1.2" class="djs-label"><tspan x="0.4333324432373047" y="9.899999999999999">Document </tspan><tspan x="4.708333969116211" y="23.099999999999998">received</tspan></text></g><rect style="fill: none; stroke-opacity: 0; stroke: white; stroke-width: 15px;" class="djs-hit djs-hit-all" x="0" y="0" width="51" height="27"/></g></g><g class="djs-group"><g class="djs-element djs-shape" data-element-id="StartEvent_DocumentRequested" transform="matrix(1, 0, 0, 1, 212, 121)" style="display: block;"><g class="djs-visual"><circle cx="18" cy="18" r="18" style="stroke-linecap: round; stroke-linejoin: round; stroke: rgb(34, 36, 42); stroke-width: 2px; fill: white; fill-opacity: 0.95;"/></g><rect style="fill: none; stroke-opacity: 0; stroke: white; stroke-width: 15px;" class="djs-hit djs-hit-all" x="0" y="0" width="36" height="36"/></g></g><g class="djs-group"><g class="djs-element djs-shape" data-element-id="StartEvent_DocumentRequested_label" transform="matrix(1, 0, 0, 1, 206, 157)" style="display: block;"><g class="djs-visual"><text style="font-family: Arial, sans-serif; font-size: 11px; font-weight: normal; fill: rgb(34, 36, 42);" lineHeight="1.2" class="djs-label"><tspan x="0.4333324432373047" y="9.899999999999999">Document</tspan><tspan x="1.041666030883789" y="23.099999999999998">requested</tspan></text></g><rect style="fill: none; stroke-opacity: 0; stroke: white; stroke-width: 15px;" class="djs-hit djs-hit-all" x="0" y="0" width="51" height="27"/></g></g><g class="djs-group"><g class="djs-element djs-shape" data-element-id="EndEvent_ReminderSent" transform="matrix(1, 0, 0, 1, 900, 302)" style="display: block;"><g class="djs-visual"><circle cx="18" cy="18" r="18" style="stroke-linecap: round; stroke-linejoin: round; stroke: rgb(34, 36, 42); stroke-width: 4px; fill: white; fill-opacity: 0.95;"/></g><rect style="fill: none; stroke-opacity: 0; stroke: white; stroke-width: 15px;" class="djs-hit djs-hit-all" x="0" y="0" width="36" height="36"/></g></g><g class="djs-group"><g class="djs-element djs-shape" data-element-id="EndEvent_ReminderSent_label" transform="matrix(1, 0, 0, 1, 893, 338)" style="display: block;"><g class="djs-visual"><text style="font-family: Arial, sans-serif; font-size: 11px; font-weight: normal; fill: rgb(34, 36, 42);" lineHeight="1.2" class="djs-label"><tspan x="0.3250007629394531" y="9.899999999999999">Email sent</tspan></text></g><rect style="fill: none; stroke-opacity: 0; stroke: white; stroke-width: 15px;" class="djs-hit djs-hit-all" x="0" y="0" width="52" height="14"/></g></g><g class="djs-group"><g class="djs-element djs-shape" data-element-id="BoundaryEvent_2" transform="matrix(1, 0, 0, 1, 576, 161)" style="display: block;"><g class="djs-visual"><circle cx="18" cy="18" r="18" style="stroke-linecap: round; stroke-linejoin: round; stroke: rgb(34, 36, 42); stroke-width: 1.5px; fill: white; fill-opacity: 1;"/><circle cx="18" cy="18" r="15" style="stroke-linecap: round; stroke-linejoin: round; stroke: rgb(34, 36, 42); stroke-width: 1.5px; fill: none; fill-opacity: 1;"/><circle cx="18" cy="18" r="11" style="stroke-linecap: round; stroke-linejoin: round; stroke: rgb(34, 36, 42); stroke-width: 2px; fill: white;"/><path style="fill: none; stroke-linecap: round; stroke-linejoin: round; stroke: rgb(34, 36, 42); stroke-width: 2px;" d="M 18,18 l 2.25,-7.5 m -2.25,7.5 l 5.25,1.5 "/><path style="fill: none; stroke-linecap: round; stroke-linejoin: round; stroke: rgb(34, 36, 42); stroke-width: 1px;" transform="rotate(0,18,18)" d="M 18,18 m 0,7.5 l -0,2.25 "/><path style="fill: none; stroke-linecap: round; stroke-linejoin: round; stroke: rgb(34, 36, 42); stroke-width: 1px;" transform="rotate(30,18,18)" d="M 18,18 m 0,7.5 l -0,2.25 "/><path style="fill: none; stroke-linecap: round; stroke-linejoin: round; stroke: rgb(34, 36, 42); stroke-width: 1px;" transform="rotate(60,18,18)" d="M 18,18 m 0,7.5 l -0,2.25 "/><path style="fill: none; stroke-linecap: round; stroke-linejoin: round; stroke: rgb(34, 36, 42); stroke-width: 1px;" transform="rotate(90,18,18)" d="M 18,18 m 0,7.5 l -0,2.25 "/><path style="fill: none; stroke-linecap: round; stroke-linejoin: round; stroke: rgb(34, 36, 42); stroke-width: 1px;" transform="rotate(120,18,18)" d="M 18,18 m 0,7.5 l -0,2.25 "/><path style="fill: none; stroke-linecap: round; stroke-linejoin: round; stroke: rgb(34, 36, 42); stroke-width: 1px;" transform="rotate(150,18,18)" d="M 18,18 m 0,7.5 l -0,2.25 "/><path style="fill: none; stroke-linecap: round; stroke-linejoin: round; stroke: rgb(34, 36, 42); stroke-width: 1px;" transform="rotate(180,18,18)" d="M 18,18 m 0,7.5 l -0,2.25 "/><path style="fill: none; stroke-linecap: round; stroke-linejoin: round; stroke: rgb(34, 36, 42); stroke-width: 1px;" transform="rotate(210,18,18)" d="M 18,18 m 0,7.5 l -0,2.25 "/><path style="fill: none; stroke-linecap: round; stroke-linejoin: round; stroke: rgb(34, 36, 42); stroke-width: 1px;" transform="rotate(240,18,18)" d="M 18,18 m 0,7.5 l -0,2.25 "/><path style="fill: none; stroke-linecap: round; stroke-linejoin: round; stroke: rgb(34, 36, 42); stroke-width: 1px;" transform="rotate(270,18,18)" d="M 18,18 m 0,7.5 l -0,2.25 "/><path style="fill: none; stroke-linecap: round; stroke-linejoin: round; stroke: rgb(34, 36, 42); stroke-width: 1px;" transform="rotate(300,18,18)" d="M 18,18 m 0,7.5 l -0,2.25 "/><path style="fill: none; stroke-linecap: round; stroke-linejoin: round; stroke: rgb(34, 36, 42); stroke-width: 1px;" transform="rotate(330,18,18)" d="M 18,18 m 0,7.5 l -0,2.25 "/></g><rect style="fill: none; stroke-opacity: 0; stroke: white; stroke-width: 15px;" class="djs-hit djs-hit-all" x="0" y="0" width="36" height="36"/></g></g><g class="djs-group"><g class="djs-element djs-shape" data-element-id="BoundaryEvent_2_label" transform="matrix(1, 0, 0, 1, 606, 196)" style="display: block;"><g class="djs-visual"><text style="font-family: Arial, sans-serif; font-size: 11px; font-weight: normal; fill: rgb(34, 36, 42);" lineHeight="1.2" class="djs-label"><tspan x="0.07500076293945312" y="9.899999999999999">1 week</tspan></text></g><rect style="fill: none; stroke-opacity: 0; stroke: white; stroke-width: 15px;" class="djs-hit djs-hit-all" x="0" y="0" width="35" height="14"/></g></g><g class="djs-group"><g class="djs-element djs-shape" data-element-id="BoundaryEvent_1" transform="matrix(1, 0, 0, 1, 527, 161)" style="display: block;"><g class="djs-visual"><circle cx="18" cy="18" r="18" style="stroke-linecap: round; stroke-linejoin: round; stroke: rgb(34, 36, 42); stroke-width: 1.5px; fill: white; fill-opacity: 1; stroke-dasharray: 6px;"/><circle cx="18" cy="18" r="15" style="stroke-linecap: round; stroke-linejoin: round; stroke: rgb(34, 36, 42); stroke-width: 1.5px; fill: none; fill-opacity: 1; stroke-dasharray: 6px;"/><circle cx="18" cy="18" r="11" style="stroke-linecap: round; stroke-linejoin: round; stroke: rgb(34, 36, 42); stroke-width: 2px; fill: white;"/><path style="fill: none; stroke-linecap: round; stroke-linejoin: round; stroke: rgb(34, 36, 42); stroke-width: 2px;" d="M 18,18 l 2.25,-7.5 m -2.25,7.5 l 5.25,1.5 "/><path style="fill: none; stroke-linecap: round; stroke-linejoin: round; stroke: rgb(34, 36, 42); stroke-width: 1px;" transform="rotate(0,18,18)" d="M 18,18 m 0,7.5 l -0,2.25 "/><path style="fill: none; stroke-linecap: round; stroke-linejoin: round; stroke: rgb(34, 36, 42); stroke-width: 1px;" transform="rotate(30,18,18)" d="M 18,18 m 0,7.5 l -0,2.25 "/><path style="fill: none; stroke-linecap: round; stroke-linejoin: round; stroke: rgb(34, 36, 42); stroke-width: 1px;" transform="rotate(60,18,18)" d="M 18,18 m 0,7.5 l -0,2.25 "/><path style="fill: none; stroke-linecap: round; stroke-linejoin: round; stroke: rgb(34, 36, 42); stroke-width: 1px;" transform="rotate(90,18,18)" d="M 18,18 m 0,7.5 l -0,2.25 "/><path style="fill: none; stroke-linecap: round; stroke-linejoin: round; stroke: rgb(34, 36, 42); stroke-width: 1px;" transform="rotate(120,18,18)" d="M 18,18 m 0,7.5 l -0,2.25 "/><path style="fill: none; stroke-linecap: round; stroke-linejoin: round; stroke: rgb(34, 36, 42); stroke-width: 1px;" transform="rotate(150,18,18)" d="M 18,18 m 0,7.5 l -0,2.25 "/><path style="fill: none; stroke-linecap: round; stroke-linejoin: round; stroke: rgb(34, 36, 42); stroke-width: 1px;" transform="rotate(180,18,18)" d="M 18,18 m 0,7.5 l -0,2.25 "/><path style="fill: none; stroke-linecap: round; stroke-linejoin: round; stroke: rgb(34, 36, 42); stroke-width: 1px;" transform="rotate(210,18,18)" d="M 18,18 m 0,7.5 l -0,2.25 "/><path style="fill: none; stroke-linecap: round; stroke-linejoin: round; stroke: rgb(34, 36, 42); stroke-width: 1px;" transform="rotate(240,18,18)" d="M 18,18 m 0,7.5 l -0,2.25 "/><path style="fill: none; stroke-linecap: round; stroke-linejoin: round; stroke: rgb(34, 36, 42); stroke-width: 1px;" transform="rotate(270,18,18)" d="M 18,18 m 0,7.5 l -0,2.25 "/><path style="fill: none; stroke-linecap: round; stroke-linejoin: round; stroke: rgb(34, 36, 42); stroke-width: 1px;" transform="rotate(300,18,18)" d="M 18,18 m 0,7.5 l -0,2.25 "/><path style="fill: none; stroke-linecap: round; stroke-linejoin: round; stroke: rgb(34, 36, 42); stroke-width: 1px;" transform="rotate(330,18,18)" d="M 18,18 m 0,7.5 l -0,2.25 "/></g><rect style="fill: none; stroke-opacity: 0; stroke: white; stroke-width: 15px;" class="djs-hit djs-hit-all" x="0" y="0" width="36" height="36"/></g></g><g class="djs-group"><g class="djs-element djs-shape" data-element-id="BoundaryEvent_1_label" transform="matrix(1, 0, 0, 1, 516, 196)" style="display: block;"><g class="djs-visual"><text style="font-family: Arial, sans-serif; font-size: 11px; font-weight: normal; fill: rgb(34, 36, 42);" lineHeight="1.2" class="djs-label"><tspan x="0.1833333969116211" y="9.899999999999999">daily</tspan></text></g><rect style="fill: none; stroke-opacity: 0; stroke: white; stroke-width: 15px;" class="djs-hit djs-hit-all" x="0" y="0" width="23" height="14"/></g></g><g class="djs-group"><g class="djs-element djs-connection" data-element-id="SequenceFlow_6" style="display: block;"><g class="djs-visual"><defs><marker id="marker-7e1kpwfg26gbjvrhryrvkoqpl" viewBox="0 0 20 20" refX="11" refY="10" markerWidth="10" markerHeight="10" orient="auto"><path d="M 1 5 L 11 10 L 1 15 Z" style="stroke-linecap: round; stroke-linejoin: round; stroke: rgb(34, 36, 42); stroke-width: 1px; fill: rgb(34, 36, 42);"/></marker></defs><path style="fill: none; stroke-linecap: round; stroke-linejoin: round; stroke: rgb(34, 36, 42); stroke-width: 2px; marker-end: url('#marker-7e1kpwfg26gbjvrhryrvkoqpl');" data-corner-radius="5" d="M594,139L900,139"/></g><path d="M594,139L900,139" style="fill: none; stroke-opacity: 0; stroke: white; stroke-width: 15px;" class="djs-hit djs-hit-stroke"/></g></g><g class="djs-group"><g class="djs-element djs-connection" data-element-id="SequenceFlow_0i97ejj" style="display: block;"><g class="djs-visual"><defs><marker id="marker-5ymqev9rg0dsilcvmkbxvdd8v" viewBox="0 0 20 20" refX="11" refY="10" markerWidth="10" markerHeight="10" orient="auto"><path d="M 1 5 L 11 10 L 1 15 Z" style="stroke-linecap: round; stroke-linejoin: round; stroke: rgb(34, 36, 42); stroke-width: 1px; fill: rgb(34, 36, 42);"/></marker></defs><path style="fill: none; stroke-linecap: round; stroke-linejoin: round; stroke: rgb(34, 36, 42); stroke-width: 2px; marker-end: url('#marker-5ymqev9rg0dsilcvmkbxvdd8v');" data-corner-radius="5" d="M594,197L594,219C594,221.5,596.5,224,599,224L663,224"/></g><path d="M594,197L594,224L663,224" style="fill: none; stroke-opacity: 0; stroke: white; stroke-width: 15px;" class="djs-hit djs-hit-stroke"/></g></g><g class="djs-group"><g class="djs-element djs-connection" data-element-id="SequenceFlow_1bqpxlf" style="display: block;"><g class="djs-visual"><defs><marker id="marker-9f5noqm03bi9xw3rn90s0bogy" viewBox="0 0 20 20" refX="11" refY="10" markerWidth="10" markerHeight="10" orient="auto"><path d="M 1 5 L 11 10 L 1 15 Z" style="stroke-linecap: round; stroke-linejoin: round; stroke: rgb(34, 36, 42); stroke-width: 1px; fill: rgb(34, 36, 42);"/></marker></defs><path style="fill: none; stroke-linecap: round; stroke-linejoin: round; stroke: rgb(34, 36, 42); stroke-width: 2px; marker-end: url('#marker-9f5noqm03bi9xw3rn90s0bogy');" data-corner-radius="5" d="M545,197L545,315C545,317.5,547.5,320,550,320L663,320"/></g><path d="M545,197L545,320L663,320" style="fill: none; stroke-opacity: 0; stroke: white; stroke-width: 15px;" class="djs-hit djs-hit-stroke"/></g></g><g class="djs-group"><g class="djs-element djs-connection" data-element-id="SequenceFlow_2" style="display: block;"><g class="djs-visual"><defs><marker id="marker-6lp5ffv6bzk3ltqix5u1vxovr" viewBox="0 0 20 20" refX="11" refY="10" markerWidth="10" markerHeight="10" orient="auto"><path d="M 1 5 L 11 10 L 1 15 Z" style="stroke-linecap: round; stroke-linejoin: round; stroke: rgb(34, 36, 42); stroke-width: 1px; fill: rgb(34, 36, 42);"/></marker></defs><path style="fill: none; stroke-linecap: round; stroke-linejoin: round; stroke: rgb(34, 36, 42); stroke-width: 2px; marker-end: url('#marker-6lp5ffv6bzk3ltqix5u1vxovr');" data-corner-radius="5" d="M763,320L900,320"/></g><path d="M763,320L900,320" style="fill: none; stroke-opacity: 0; stroke: white; stroke-width: 15px;" class="djs-hit djs-hit-stroke"/></g></g><g class="djs-group"><g class="djs-element djs-connection" data-element-id="SequenceFlow_3" style="display: block;"><g class="djs-visual"><defs><marker id="marker-633ioe6p4w986a5aymkvpesk6" viewBox="0 0 20 20" refX="11" refY="10" markerWidth="10" markerHeight="10" orient="auto"><path d="M 1 5 L 11 10 L 1 15 Z" style="stroke-linecap: round; stroke-linejoin: round; stroke: rgb(34, 36, 42); stroke-width: 1px; fill: rgb(34, 36, 42);"/></marker></defs><path style="fill: none; stroke-linecap: round; stroke-linejoin: round; stroke: rgb(34, 36, 42); stroke-width: 2px; marker-end: url('#marker-633ioe6p4w986a5aymkvpesk6');" data-corner-radius="5" d="M763,224L900,224"/></g><path d="M763,224L900,224" style="fill: none; stroke-opacity: 0; stroke: white; stroke-width: 15px;" class="djs-hit djs-hit-stroke"/></g></g><g class="djs-group"><g class="djs-element djs-connection" data-element-id="SequenceFlow_18a0pzl" style="display: block;"><g class="djs-visual"><defs><marker id="marker-6xlhy1r943u2ahhnav0f4kq7e" viewBox="0 0 20 20" refX="11" refY="10" markerWidth="10" markerHeight="10" orient="auto"><path d="M 1 5 L 11 10 L 1 15 Z" style="stroke-linecap: round; stroke-linejoin: round; stroke: rgb(34, 36, 42); stroke-width: 1px; fill: rgb(34, 36, 42);"/></marker></defs><path style="fill: none; stroke-linecap: round; stroke-linejoin: round; stroke: rgb(34, 36, 42); stroke-width: 2px; marker-end: url('#marker-6xlhy1r943u2ahhnav0f4kq7e');" data-corner-radius="5" d="M423,139L494,139"/></g><path d="M423,139L494,139" style="fill: none; stroke-opacity: 0; stroke: white; stroke-width: 15px;" class="djs-hit djs-hit-stroke"/></g></g><g class="djs-group"><g class="djs-element djs-connection" data-element-id="SequenceFlow_0d7dzn0" style="display: block;"><g class="djs-visual"><defs><marker id="marker-ebsqf0leiw4txgor8hv72lmwy" viewBox="0 0 20 20" refX="11" refY="10" markerWidth="10" markerHeight="10" orient="auto"><path d="M 1 5 L 11 10 L 1 15 Z" style="stroke-linecap: round; stroke-linejoin: round; stroke: rgb(34, 36, 42); stroke-width: 1px; fill: rgb(34, 36, 42);"/></marker></defs><path style="fill: none; stroke-linecap: round; stroke-linejoin: round; stroke: rgb(34, 36, 42); stroke-width: 2px; marker-end: url('#marker-ebsqf0leiw4txgor8hv72lmwy');" data-corner-radius="5" d="M248,139L323,139"/></g><path d="M248,139L323,139" style="fill: none; stroke-opacity: 0; stroke: white; stroke-width: 15px;" class="djs-hit djs-hit-stroke"/></g></g></g></g></svg>