<?xml version="1.0" encoding="utf-8"?>
<!-- created with bpmn-js / http://bpmn.io -->
<!DOCTYPE svg PUBLIC "-//W3C//DTD SVG 1.1 Basic//EN" "http://www.w3.org/Graphics/SVG/1.1/DTD/svg11-basic.dtd">
<svg xmlns="http://www.w3.org/2000/svg" xmlns:xlink="http://www.w3.org/1999/xlink" version="1.1" baseProfile="basic">
<svg width="100%" height="100%" viewBox="0 0 1024 768"><desc>Created with Snap</desc><defs><marker viewBox="0 0 10 10" markerWidth="11" markerHeight="11" orient="auto" refX="10" refY="5" id="Shvnjr9d13" markerUnits="strokeWidth" style="overflow-x: visible; overflow-y: visible; "><path d="M 0 0 L 10 5 L 0 10 Z" style="" fill="#000000" stroke="none"></path></marker><marker viewBox="0 0 10 10" markerWidth="14" markerHeight="14" orient="auto" refX="4" refY="4" id="Shvnjr9d15" markerUnits="strokeWidth" style="overflow-x: visible; overflow-y: visible; "><circle cx="4" cy="4" r="4" style="stroke-width: 1px; stroke-dasharray: 1px, 0px; " fill="#ffffff" stroke="#000000"></circle></marker><marker viewBox="0 0 10 10" markerWidth="12" markerHeight="12" orient="auto" refX="11" refY="5" id="Shvnjr9d17" markerUnits="strokeWidth" style="overflow-x: visible; overflow-y: visible; "><path d="M 0 0 L 10 5 L 0 10 Z" style="stroke-width: 1px; stroke-linecap: round; stroke-dasharray: 1px, 0px; " stroke="#000000" fill="#ffffff"></path></marker><marker viewBox="0 0 10 10" markerWidth="10" markerHeight="10" orient="auto" refX="10" refY="5" id="Shvnjr9d19" style="stroke-width: 1.5px; stroke-linecap: round; stroke-dasharray: 1px, 0px; " stroke="#000000" fill="none"><path d="M 0 0 L 10 5 L 0 10 Z" class="djs-connection-marker"></path></marker><marker viewBox="0 0 10 10" markerWidth="16" markerHeight="9.6" orient="auto" refX="10" refY="5" id="Shvnjr9d1b" markerUnits="strokeWidth" style="overflow-x: visible; overflow-y: visible; stroke-width: 1px; stroke-dasharray: 1px, 0px; "><path d="M 0 0 L 10 5 L 0 10" style="" fill="#ffffff" stroke="#000000"></path></marker><marker viewBox="0 0 15 15" markerWidth="12" markerHeight="12" orient="auto" refX="-8" refY="3.15" id="Shvnjr9d1d" markerUnits="strokeWidth" style="overflow-x: visible; overflow-y: visible; stroke-width: 1px; stroke-dasharray: 1px, 0px; "><path d="M 0,0 7.089123,3.1832974 0.00383366,6.1129516 -7.0814464,3.1832966 z" style="" fill="#ffffff" stroke="#000000"></path></marker><marker viewBox="0 0 15 15" markerWidth="14" markerHeight="13" orient="auto" refX="-4" refY="5.5" id="Shvnjr9d1f" markerUnits="strokeWidth" style="overflow-x: visible; overflow-y: visible; stroke-width: 1px; stroke-dasharray: 1px, 0px; "><path d="M 3,0 10,11" style="" fill="#000000" stroke="#000000"></path></marker><rect width="10" height="10" class="svg---mgr"></rect></defs><g class=" djs-group djs-shape" transform="matrix(1,0,0,1,201,336)"><rect x="-10.02237838454713" y="-10" width="50.04475676909426" height="50" style="" fill="none" class="djs-outline"></rect><rect x="-0.022378384547129704" y="0" width="30.04475676909426" height="30" style="stroke-opacity: 0; " fill="none" class="djs-hit"></rect><circle cx="15" cy="15" r="15" style="stroke-width: 1px; " stroke="#000000" fill="#ffffff" class=" djs-visual"></circle></g><g class=" djs-group djs-shape" transform="matrix(1,0,0,1,141.1443,371.3333)"><rect x="38" y="-2" width="74" height="34" style="" fill="none" class="djs-outline"></rect><rect x="48" y="8" width="54" height="14" style="stroke-opacity: 0; " fill="none" class="djs-hit"></rect><g style="font-family: Arial, sans-serif; font-size: 11px; " class=" djs-label djs-visual"><text x="48.5" y="19">Start Event</text></g></g><g class=" djs-group djs-shape" transform="matrix(1,0,0,1,267,317)"><rect x="-10" y="-10" width="103" height="88" style="" fill="none" class="djs-outline"></rect><rect x="0" y="0" width="83" height="68" style="stroke-opacity: 0; " fill="none" class="djs-hit"></rect><rect x="0" y="0" width="83" height="68" rx="10" ry="10" style="stroke-width: 2px; " stroke="#000000" fill="#ffffff" class=" djs-visual"></rect><g style="font-family: Arial, sans-serif; font-size: 12px; " class=" djs-label"><text x="23" y="37.75">Task 1</text></g><path d="m 15,12 c 0.909,-0.845 1.594,-2.049 1.594,-3.385 0,-2.554 -1.805,-4.62199999 -4.357,-4.62199999 -2.55199998,0 -4.28799998,2.06799999 -4.28799998,4.62199999 0,1.348 0.974,2.562 1.89599998,3.405 -0.52899998,0.187 -5.669,2.097 -5.794,4.7560005 v 6.718 h 17 v -6.718 c 0,-2.2980005 -5.5279996,-4.5950005 -6.0509996,-4.7760005 zm -8,6 l 0,5.5 m 11,0 l 0,-5" style="stroke-width: 0.5px; " fill="None" stroke="#000000"></path><path d="m 15,12 m 2.162,1.009 c 0,2.4470005 -2.158,4.4310005 -4.821,4.4310005 -2.66499998,0 -4.822,-1.981 -4.822,-4.4310005 " style="stroke-width: 0.5px; " fill="None" stroke="#000000"></path><path d="m 15,12 m -6.9,-3.80 c 0,0 2.25099998,-2.358 4.27399998,-1.177 2.024,1.181 4.221,1.537 4.124,0.965 -0.098,-0.57 -0.117,-3.79099999 -4.191,-4.13599999 -3.57499998,0.001 -4.20799998,3.36699999 -4.20699998,4.34799999 z" style="stroke-width: 0.5px; " fill="#000000" stroke="#000000"></path></g><g class=" djs-group djs-shape" transform="matrix(1,0,0,1,386,317)"><rect x="-10" y="-10" width="103" height="88" style="" fill="none" class="djs-outline"></rect><rect x="0" y="0" width="83" height="68" style="stroke-opacity: 0; " fill="none" class="djs-hit"></rect><rect x="0" y="0" width="83" height="68" rx="10" ry="10" style="stroke-width: 2px; " stroke="#000000" fill="#ffffff" class=" djs-visual"></rect><g style="font-family: Arial, sans-serif; font-size: 12px; " class=" djs-label"><text x="23" y="37.75">Task 2</text></g><path d="m 12,18 v -1.71335 c 0.352326,-0.0705 0.703932,-0.17838 1.047628,-0.32133 0.344416,-0.14465 0.665822,-0.32133 0.966377,-0.52145 l 1.19431,1.18005 1.567487,-1.57688 -1.195028,-1.18014 c 0.403376,-0.61394 0.683079,-1.29908 0.825447,-2.01824 l 1.622133,-0.01 v -2.2196 l -1.636514,0.01 c -0.07333,-0.35153 -0.178319,-0.70024 -0.323564,-1.04372 -0.145244,-0.34406 -0.321407,-0.6644 -0.522735,-0.96217 l 1.131035,-1.13631 -1.583305,-1.56293 -1.129598,1.13589 c -0.614052,-0.40108 -1.302883,-0.68093 -2.022633,-0.82247 l 0.0093,-1.61852 h -2.241173 l 0.0042,1.63124 c -0.353763,0.0736 -0.705369,0.17977 -1.049785,0.32371 -0.344415,0.14437 -0.665102,0.32092 -0.9635006,0.52046 l -1.1698628,-1.15823 -1.5667691,1.5792 1.1684265,1.15669 c -0.4026573,0.61283 -0.68308,1.29797 -0.8247287,2.01713 l -1.6588041,0.003 v 2.22174 l 1.6724648,-0.006 c 0.073327,0.35077 0.1797598,0.70243 0.3242851,1.04472 0.1452428,0.34448 0.3214064,0.6644 0.5227339,0.96066 l -1.1993431,1.19723 1.5840256,1.56011 1.1964668,-1.19348 c 0.6140517,0.40346 1.3028827,0.68232 2.0233517,0.82331 l 7.19e-4,1.69892 h 2.226848 z m 0.221462,-3.9957 c -1.788948,0.7502 -3.8576,-0.0928 -4.6097055,-1.87438 -0.7521065,-1.78321 0.090598,-3.84627 1.8802645,-4.59604 1.78823,-0.74936 3.856881,0.0929 4.608987,1.87437 0.752106,1.78165 -0.0906,3.84612 -1.879546,4.59605 z" style="stroke-width: 1px; " fill="None" stroke="#000000"></path><path d="m 17.2,18 c -1.788948,0.7502 -3.8576,-0.0928 -4.6097055,-1.87438 -0.7521065,-1.78321 0.090598,-3.84627 1.8802645,-4.59604 1.78823,-0.74936 3.856881,0.0929 4.608987,1.87437 0.752106,1.78165 -0.0906,3.84612 -1.879546,4.59605 z" style="stroke-width: 0px; " fill="#ffffff" stroke="none"></path><path d="m 17,22 v -1.71335 c 0.352326,-0.0705 0.703932,-0.17838 1.047628,-0.32133 0.344416,-0.14465 0.665822,-0.32133 0.966377,-0.52145 l 1.19431,1.18005 1.567487,-1.57688 -1.195028,-1.18014 c 0.403376,-0.61394 0.683079,-1.29908 0.825447,-2.01824 l 1.622133,-0.01 v -2.2196 l -1.636514,0.01 c -0.07333,-0.35153 -0.178319,-0.70024 -0.323564,-1.04372 -0.145244,-0.34406 -0.321407,-0.6644 -0.522735,-0.96217 l 1.131035,-1.13631 -1.583305,-1.56293 -1.129598,1.13589 c -0.614052,-0.40108 -1.302883,-0.68093 -2.022633,-0.82247 l 0.0093,-1.61852 h -2.241173 l 0.0042,1.63124 c -0.353763,0.0736 -0.705369,0.17977 -1.049785,0.32371 -0.344415,0.14437 -0.665102,0.32092 -0.9635006,0.52046 l -1.1698628,-1.15823 -1.5667691,1.5792 1.1684265,1.15669 c -0.4026573,0.61283 -0.68308,1.29797 -0.8247287,2.01713 l -1.6588041,0.003 v 2.22174 l 1.6724648,-0.006 c 0.073327,0.35077 0.1797598,0.70243 0.3242851,1.04472 0.1452428,0.34448 0.3214064,0.6644 0.5227339,0.96066 l -1.1993431,1.19723 1.5840256,1.56011 1.1964668,-1.19348 c 0.6140517,0.40346 1.3028827,0.68232 2.0233517,0.82331 l 7.19e-4,1.69892 h 2.226848 z m 0.221462,-3.9957 c -1.788948,0.7502 -3.8576,-0.0928 -4.6097055,-1.87438 -0.7521065,-1.78321 0.090598,-3.84627 1.8802645,-4.59604 1.78823,-0.74936 3.856881,0.0929 4.608987,1.87437 0.752106,1.78165 -0.0906,3.84612 -1.879546,4.59605 z" style="stroke-width: 1px; " fill="#ffffff" stroke="#000000"></path></g><g class=" djs-group djs-shape" transform="matrix(1,0,0,1,505,317)"><rect x="-10" y="-10" width="103" height="88" style="" fill="none" class="djs-outline"></rect><rect x="0" y="0" width="83" height="68" style="stroke-opacity: 0; " fill="none" class="djs-hit"></rect><rect x="0" y="0" width="83" height="68" rx="10" ry="10" style="stroke-width: 2px; " stroke="#000000" fill="#ffffff" class=" djs-visual"></rect><g style="font-family: Arial, sans-serif; font-size: 12px; " class=" djs-label"><text x="23" y="37.75">Task 3</text></g><path d="m 15,12 c 0.909,-0.845 1.594,-2.049 1.594,-3.385 0,-2.554 -1.805,-4.62199999 -4.357,-4.62199999 -2.55199998,0 -4.28799998,2.06799999 -4.28799998,4.62199999 0,1.348 0.974,2.562 1.89599998,3.405 -0.52899998,0.187 -5.669,2.097 -5.794,4.7560005 v 6.718 h 17 v -6.718 c 0,-2.2980005 -5.5279996,-4.5950005 -6.0509996,-4.7760005 zm -8,6 l 0,5.5 m 11,0 l 0,-5" style="stroke-width: 0.5px; " fill="None" stroke="#000000"></path><path d="m 15,12 m 2.162,1.009 c 0,2.4470005 -2.158,4.4310005 -4.821,4.4310005 -2.66499998,0 -4.822,-1.981 -4.822,-4.4310005 " style="stroke-width: 0.5px; " fill="None" stroke="#000000"></path><path d="m 15,12 m -6.9,-3.80 c 0,0 2.25099998,-2.358 4.27399998,-1.177 2.024,1.181 4.221,1.537 4.124,0.965 -0.098,-0.57 -0.117,-3.79099999 -4.191,-4.13599999 -3.57499998,0.001 -4.20799998,3.36699999 -4.20699998,4.34799999 z" style="stroke-width: 0.5px; " fill="#000000" stroke="#000000"></path></g><g class=" djs-group djs-shape" transform="matrix(1,0,0,1,625,335)"><rect x="-10.023870276850271" y="-10" width="52.04774055370054" height="52" style="" fill="none" class="djs-outline"></rect><rect x="-0.023870276850271543" y="0" width="32.04774055370054" height="32" style="stroke-opacity: 0; " fill="none" class="djs-hit"></rect><circle cx="16" cy="16" r="16" style="stroke-width: 4px; " stroke="#000000" fill="#ffffff" class=" djs-visual"></circle></g><g class=" djs-group djs-shape" transform="matrix(1,0,0,1,566.063,372.3333)"><rect x="41" y="-2" width="68" height="34" style="" fill="none" class="djs-outline"></rect><rect x="51" y="8" width="48" height="14" style="stroke-opacity: 0; " fill="none" class="djs-hit"></rect><g style="font-family: Arial, sans-serif; font-size: 11px; " class=" djs-label djs-visual"><text x="51" y="19">End Event</text></g></g><g class=" djs-group djs-connection"><path d="m  231,351L249,351 L267,351 " style="stroke-width: 1px; marker-end: url(#Shvnjr9d13); stroke-opacity: 0; " fill="none" stroke="#000000" class="djs-hit"></path><path d="m  231,351L249,351 L267,351 " style="stroke-width: 1px; marker-end: url(#Shvnjr9d13); " fill="None" stroke="#000000" class=" djs-visual"></path></g><g class=" djs-group djs-shape" transform="matrix(1,0,0,1,195,351)"><rect x="-10" y="-10" width="20" height="20" style="" fill="none" class="djs-outline"></rect><rect x="0" y="0" width="0" height="0" style="stroke-opacity: 0; " fill="none" class="djs-hit"></rect><g style="font-family: Arial, sans-serif; font-size: 11px; " class=" djs-label djs-visual"><text x="45" y="5"></text></g></g><g class=" djs-group djs-connection"><path d="m  350,351L386,351 " style="stroke-width: 1px; marker-end: url(#Shvnjr9d13); stroke-opacity: 0; " fill="none" stroke="#000000" class="djs-hit"></path><path d="m  350,351L386,351 " style="stroke-width: 1px; marker-end: url(#Shvnjr9d13); " fill="None" stroke="#000000" class=" djs-visual"></path></g><g class=" djs-group djs-shape" transform="matrix(1,0,0,1,323,351)"><rect x="-10" y="-10" width="20" height="20" style="" fill="none" class="djs-outline"></rect><rect x="0" y="0" width="0" height="0" style="stroke-opacity: 0; " fill="none" class="djs-hit"></rect><g style="font-family: Arial, sans-serif; font-size: 11px; " class=" djs-label djs-visual"><text x="45" y="5"></text></g></g><g class=" djs-group djs-connection"><path d="m  469,351L505,351 " style="stroke-width: 1px; marker-end: url(#Shvnjr9d13); stroke-opacity: 0; " fill="none" stroke="#000000" class="djs-hit"></path><path d="m  469,351L505,351 " style="stroke-width: 1px; marker-end: url(#Shvnjr9d13); " fill="None" stroke="#000000" class=" djs-visual"></path></g><g class=" djs-group djs-shape" transform="matrix(1,0,0,1,442,351)"><rect x="-10" y="-10" width="20" height="20" style="" fill="none" class="djs-outline"></rect><rect x="0" y="0" width="0" height="0" style="stroke-opacity: 0; " fill="none" class="djs-hit"></rect><g style="font-family: Arial, sans-serif; font-size: 11px; " class=" djs-label djs-visual"><text x="45" y="5"></text></g></g><g class=" djs-group djs-connection"><path d="m  589,351L607,351 L625,351 " style="stroke-width: 1px; marker-end: url(#Shvnjr9d13); stroke-opacity: 0; " fill="none" stroke="#000000" class="djs-hit"></path><path d="m  589,351L607,351 L625,351 " style="stroke-width: 1px; marker-end: url(#Shvnjr9d13); " fill="None" stroke="#000000" class=" djs-visual"></path></g><g class=" djs-group djs-shape" transform="matrix(1,0,0,1,553,351)"><rect x="-10" y="-10" width="20" height="20" style="" fill="none" class="djs-outline"></rect><rect x="0" y="0" width="0" height="0" style="stroke-opacity: 0; " fill="none" class="djs-hit"></rect><g style="font-family: Arial, sans-serif; font-size: 11px; " class=" djs-label djs-visual"><text x="45" y="5"></text></g></g></svg>