<?xml version="1.0" encoding="utf-8"?>
<!-- created with bpmn-js / http://bpmn.io -->
<!DOCTYPE svg PUBLIC "-//W3C//DTD SVG 1.1 Basic//EN" "http://www.w3.org/Graphics/SVG/1.1/DTD/svg11-basic.dtd">
<svg xmlns="http://www.w3.org/2000/svg" xmlns:xlink="http://www.w3.org/1999/xlink" version="1.1" baseProfile="basic">
<svg width="100%" height="100%" viewBox="0 0 1024 768"><desc>Created with Snap</desc><defs><marker viewBox="0 0 10 10" markerWidth="11" markerHeight="11" orient="auto" refX="10" refY="5" id="Shvnjrahq3" markerUnits="strokeWidth" style="overflow-x: visible; overflow-y: visible; "><path d="M 0 0 L 10 5 L 0 10 Z" style="" fill="#000000" stroke="none"></path></marker><marker viewBox="0 0 10 10" markerWidth="14" markerHeight="14" orient="auto" refX="4" refY="4" id="Shvnjrahq5" markerUnits="strokeWidth" style="overflow-x: visible; overflow-y: visible; "><circle cx="4" cy="4" r="4" style="stroke-width: 1px; stroke-dasharray: 1px, 0px; " fill="#ffffff" stroke="#000000"></circle></marker><marker viewBox="0 0 10 10" markerWidth="12" markerHeight="12" orient="auto" refX="11" refY="5" id="Shvnjrahq7" markerUnits="strokeWidth" style="overflow-x: visible; overflow-y: visible; "><path d="M 0 0 L 10 5 L 0 10 Z" style="stroke-width: 1px; stroke-linecap: round; stroke-dasharray: 1px, 0px; " stroke="#000000" fill="#ffffff"></path></marker><marker viewBox="0 0 10 10" markerWidth="10" markerHeight="10" orient="auto" refX="10" refY="5" id="Shvnjrahq9" style="stroke-width: 1.5px; stroke-linecap: round; stroke-dasharray: 1px, 0px; " stroke="#000000" fill="none"><path d="M 0 0 L 10 5 L 0 10 Z" class="djs-connection-marker"></path></marker><marker viewBox="0 0 10 10" markerWidth="16" markerHeight="9.6" orient="auto" refX="10" refY="5" id="Shvnjrahqb" markerUnits="strokeWidth" style="overflow-x: visible; overflow-y: visible; stroke-width: 1px; stroke-dasharray: 1px, 0px; "><path d="M 0 0 L 10 5 L 0 10" style="" fill="#ffffff" stroke="#000000"></path></marker><marker viewBox="0 0 15 15" markerWidth="12" markerHeight="12" orient="auto" refX="-8" refY="3.15" id="Shvnjrahqd" markerUnits="strokeWidth" style="overflow-x: visible; overflow-y: visible; stroke-width: 1px; stroke-dasharray: 1px, 0px; "><path d="M 0,0 7.089123,3.1832974 0.00383366,6.1129516 -7.0814464,3.1832966 z" style="" fill="#ffffff" stroke="#000000"></path></marker><marker viewBox="0 0 15 15" markerWidth="14" markerHeight="13" orient="auto" refX="-4" refY="5.5" id="Shvnjrahqf" markerUnits="strokeWidth" style="overflow-x: visible; overflow-y: visible; stroke-width: 1px; stroke-dasharray: 1px, 0px; "><path d="M 3,0 10,11" style="" fill="#000000" stroke="#000000"></path></marker><rect width="10" height="10" class="svg---mgr"></rect></defs><g class=" djs-group djs-shape" transform="matrix(1,0,0,1,72,295)"><rect x="-10.02237838454713" y="-10" width="50.04475676909426" height="50" style="" fill="none" class="djs-outline"></rect><rect x="-0.022378384547129704" y="0" width="30.04475676909426" height="30" style="stroke-opacity: 0; " fill="none" class="djs-hit"></rect><circle cx="15" cy="15" r="15" style="stroke-width: 1px; " stroke="#000000" fill="#ffffff" class=" djs-visual"></circle></g><g class=" djs-group djs-shape" transform="matrix(1,0,0,1,12.1443,330.3333)"><rect x="38" y="-2" width="74" height="34" style="" fill="none" class="djs-outline"></rect><rect x="48" y="8" width="54" height="14" style="stroke-opacity: 0; " fill="none" class="djs-hit"></rect><g style="font-family: Arial, sans-serif; font-size: 11px; " class=" djs-label djs-visual"><text x="48.5" y="19">Start Event</text></g></g><g class=" djs-group djs-shape" transform="matrix(1,0,0,1,145,276)"><rect x="-10" y="-10" width="103" height="88" style="" fill="none" class="djs-outline"></rect><rect x="0" y="0" width="83" height="68" style="stroke-opacity: 0; " fill="none" class="djs-hit"></rect><rect x="0" y="0" width="83" height="68" rx="10" ry="10" style="stroke-width: 2px; " stroke="#000000" fill="#ffffff" class=" djs-visual"></rect><g style="font-family: Arial, sans-serif; font-size: 12px; " class=" djs-label"><text x="23" y="37.75">Task 1</text></g></g><g class=" djs-group djs-shape" transform="matrix(1,0,0,1,282,266)"><rect x="-10" y="-10" width="128" height="108" style="" fill="none" class="djs-outline"></rect><rect x="0" y="0" width="108" height="88" style="stroke-opacity: 0; " fill="none" class="djs-hit"></rect><rect x="0" y="0" width="108" height="88" rx="10" ry="10" style="stroke-width: 2px; " stroke="#000000" fill="#ffffff" class=" djs-visual"></rect><g style="font-family: Arial, sans-serif; font-size: 12px; " class=" djs-label"><text x="25.5" y="40.25">Collapsed </text><text x="18" y="55.25"> Sub-Process </text></g><rect x="0" y="0" width="14" height="14" rx="0" ry="0" style="stroke-width: 1px; " stroke="#000000" fill="#ffffff" transform="matrix(1,0,0,1,46.5,68)"></rect><path d="m46.5,68 m 7,2 l 0,10 m -5,-5 l 10,0" style="stroke-width: 1px; " fill="None" stroke="#000000"></path></g><g class=" djs-group djs-shape" transform="matrix(1,0,0,1,338,250)"><rect x="-10.023870276850271" y="-10" width="52.04774055370054" height="52" style="" fill="none" class="djs-outline"></rect><rect x="-0.023870276850271543" y="0" width="32.04774055370054" height="32" style="stroke-opacity: 0; " fill="none" class="djs-hit"></rect><circle cx="16" cy="16" r="16" style="stroke-width: 1px; stroke-dasharray: 4px; " stroke="#000000" fill="#ffffff" class=" djs-visual"></circle><circle cx="16" cy="16" r="13" style="stroke-width: 1px; stroke-dasharray: 5px; " stroke="#000000" fill="#ffffff"></circle><path d="m 7.52,10.08 l 0,11.2 l 16.799999999999997,0 l 0,-11.2 z l 8.399999999999999,4.8 l 8.399999999999999,-4.8" style="stroke-width: 1px; " fill="None" stroke="#000000"></path></g><g class=" djs-group djs-shape" transform="matrix(1,0,0,1,224.9258,208.3446)"><rect x="-4" y="-2" width="158" height="48" style="" fill="none" class="djs-outline"></rect><rect x="6" y="8" width="138" height="28" style="stroke-opacity: 0; " fill="none" class="djs-hit"></rect><g style="font-family: Arial, sans-serif; font-size: 11px; " class=" djs-label djs-visual"><text x="6" y="19">Boundary Intermediate Event</text><text x="13" y="33"> Non-Interrupting Message </text></g></g><g class=" djs-group djs-shape" transform="matrix(1,0,0,1,347,338)"><rect x="-10.023870276850271" y="-10" width="52.04774055370054" height="52" style="" fill="none" class="djs-outline"></rect><rect x="-0.023870276850271543" y="0" width="32.04774055370054" height="32" style="stroke-opacity: 0; " fill="none" class="djs-hit"></rect><circle cx="16" cy="16" r="16" style="stroke-width: 1px; stroke-dasharray: 4px; " stroke="#000000" fill="#ffffff" class=" djs-visual"></circle><circle cx="16" cy="16" r="13" style="stroke-width: 1px; stroke-dasharray: 5px; " stroke="#000000" fill="#ffffff"></circle><path d="m 16,17.76 c -2.4959999999999996,2.1173333333333333 -4.991999999999999,4.234666666666667 -7.4879999999999995,6.351999999999999 2.4959999999999996,-5.857184888888889 4.991999999999999,-11.714370666666667 7.4879999999999995,-17.571555555555555 2.1893333333333334,5.857184888888889 4.378666666666667,11.714370666666667 6.568,17.571555555555555 -2.1893333333333334,-2.1173333333333333 -4.378666666666667,-4.234666666666667 -6.568,-6.351999999999999 z" style="stroke-width: 1px; " fill="None" stroke="#000000"></path></g><g class=" djs-group djs-shape" transform="matrix(1,0,0,1,237.5738,370.3318)"><rect x="-4" y="-2" width="158" height="48" style="" fill="none" class="djs-outline"></rect><rect x="6" y="8" width="138" height="28" style="stroke-opacity: 0; " fill="none" class="djs-hit"></rect><g style="font-family: Arial, sans-serif; font-size: 11px; " class=" djs-label djs-visual"><text x="6" y="19">Boundary Intermediate Event </text><text x="22" y="33">Interrupting Escalation </text></g></g><g class=" djs-group djs-shape" transform="matrix(1,0,0,1,409,398)"><rect x="-10" y="-10" width="103" height="88" style="" fill="none" class="djs-outline"></rect><rect x="0" y="0" width="83" height="68" style="stroke-opacity: 0; " fill="none" class="djs-hit"></rect><rect x="0" y="0" width="83" height="68" rx="10" ry="10" style="stroke-width: 2px; " stroke="#000000" fill="#ffffff" class=" djs-visual"></rect><g style="font-family: Arial, sans-serif; font-size: 12px; " class=" djs-label"><text x="23" y="37.75">Task 4</text></g></g><g class=" djs-group djs-shape" transform="matrix(1,0,0,1,567,294)"><rect x="-10.023870276850271" y="-10" width="52.04774055370054" height="52" style="" fill="none" class="djs-outline"></rect><rect x="-0.023870276850271543" y="0" width="32.04774055370054" height="32" style="stroke-opacity: 0; " fill="none" class="djs-hit"></rect><circle cx="16" cy="16" r="16" style="stroke-width: 4px; " stroke="#000000" fill="#ffffff" class=" djs-visual"></circle></g><g class=" djs-group djs-shape" transform="matrix(1,0,0,1,508.063,331.3333)"><rect x="36" y="-2" width="78" height="34" style="" fill="none" class="djs-outline"></rect><rect x="46" y="8" width="58" height="14" style="stroke-opacity: 0; " fill="none" class="djs-hit"></rect><g style="font-family: Arial, sans-serif; font-size: 11px; " class=" djs-label djs-visual"><text x="46.5" y="19">End Event 1</text></g></g><g class=" djs-group djs-shape" transform="matrix(1,0,0,1,414,158)"><rect x="-10" y="-10" width="103" height="88" style="" fill="none" class="djs-outline"></rect><rect x="0" y="0" width="83" height="68" style="stroke-opacity: 0; " fill="none" class="djs-hit"></rect><rect x="0" y="0" width="83" height="68" rx="10" ry="10" style="stroke-width: 2px; " stroke="#000000" fill="#ffffff" class=" djs-visual"></rect><g style="font-family: Arial, sans-serif; font-size: 12px; " class=" djs-label"><text x="23" y="37.75">Task 3</text></g></g><g class=" djs-group djs-shape" transform="matrix(1,0,0,1,426,276)"><rect x="-10" y="-10" width="103" height="88" style="" fill="none" class="djs-outline"></rect><rect x="0" y="0" width="83" height="68" style="stroke-opacity: 0; " fill="none" class="djs-hit"></rect><rect x="0" y="0" width="83" height="68" rx="10" ry="10" style="stroke-width: 2px; " stroke="#000000" fill="#ffffff" class=" djs-visual"></rect><g style="font-family: Arial, sans-serif; font-size: 12px; " class=" djs-label"><text x="23" y="37.75">Task 2</text></g></g><g class=" djs-group djs-shape" transform="matrix(1,0,0,1,525,416)"><rect x="-10.023870276850271" y="-10" width="52.04774055370054" height="52" style="" fill="none" class="djs-outline"></rect><rect x="-0.023870276850271543" y="0" width="32.04774055370054" height="32" style="stroke-opacity: 0; " fill="none" class="djs-hit"></rect><circle cx="16" cy="16" r="16" style="stroke-width: 4px; " stroke="#000000" fill="#ffffff" class=" djs-visual"></circle></g><g class=" djs-group djs-shape" transform="matrix(1,0,0,1,466.063,453.3333)"><rect x="36" y="-2" width="78" height="34" style="" fill="none" class="djs-outline"></rect><rect x="46" y="8" width="58" height="14" style="stroke-opacity: 0; " fill="none" class="djs-hit"></rect><g style="font-family: Arial, sans-serif; font-size: 11px; " class=" djs-label djs-visual"><text x="46.5" y="19">End Event 2</text></g></g><g class=" djs-group djs-connection"><path d="m  102,310L145,310 " style="stroke-width: 1px; marker-end: url(#Shvnjrahq3); stroke-opacity: 0; " fill="none" stroke="#000000" class="djs-hit"></path><path d="m  102,310L145,310 " style="stroke-width: 1px; marker-end: url(#Shvnjrahq3); " fill="None" stroke="#000000" class=" djs-visual"></path></g><g class=" djs-group djs-shape" transform="matrix(1,0,0,1,78.5,310)"><rect x="-10" y="-10" width="20" height="20" style="" fill="none" class="djs-outline"></rect><rect x="0" y="0" width="0" height="0" style="stroke-opacity: 0; " fill="none" class="djs-hit"></rect><g style="font-family: Arial, sans-serif; font-size: 11px; " class=" djs-label djs-visual"><text x="45" y="5"></text></g></g><g class=" djs-group djs-connection"><path d="m  228,310L246,310 L282,310 " style="stroke-width: 1px; marker-end: url(#Shvnjrahq3); stroke-opacity: 0; " fill="none" stroke="#000000" class="djs-hit"></path><path d="m  228,310L246,310 L282,310 " style="stroke-width: 1px; marker-end: url(#Shvnjrahq3); " fill="None" stroke="#000000" class=" djs-visual"></path></g><g class=" djs-group djs-shape" transform="matrix(1,0,0,1,192,310)"><rect x="-10" y="-10" width="20" height="20" style="" fill="none" class="djs-outline"></rect><rect x="0" y="0" width="0" height="0" style="stroke-opacity: 0; " fill="none" class="djs-hit"></rect><g style="font-family: Arial, sans-serif; font-size: 11px; " class=" djs-label djs-visual"><text x="45" y="5"></text></g></g><g class=" djs-group djs-connection"><path d="m  363,370L363,432 L409,432 " style="stroke-width: 1px; marker-end: url(#Shvnjrahq3); stroke-opacity: 0; " fill="none" stroke="#000000" class="djs-hit"></path><path d="m  363,370L363,432 L409,432 " style="stroke-width: 1px; marker-end: url(#Shvnjrahq3); " fill="None" stroke="#000000" class=" djs-visual"></path></g><g class=" djs-group djs-shape" transform="matrix(1,0,0,1,318,401)"><rect x="-10" y="-10" width="20" height="20" style="" fill="none" class="djs-outline"></rect><rect x="0" y="0" width="0" height="0" style="stroke-opacity: 0; " fill="none" class="djs-hit"></rect><g style="font-family: Arial, sans-serif; font-size: 11px; " class=" djs-label djs-visual"><text x="45" y="5"></text></g></g><g class=" djs-group djs-connection"><path d="m  354,250L354,192 L414,192 " style="stroke-width: 1px; marker-end: url(#Shvnjrahq3); stroke-opacity: 0; " fill="none" stroke="#000000" class="djs-hit"></path><path d="m  354,250L354,192 L414,192 " style="stroke-width: 1px; marker-end: url(#Shvnjrahq3); " fill="None" stroke="#000000" class=" djs-visual"></path></g><g class=" djs-group djs-shape" transform="matrix(1,0,0,1,309,221)"><rect x="-10" y="-10" width="20" height="20" style="" fill="none" class="djs-outline"></rect><rect x="0" y="0" width="0" height="0" style="stroke-opacity: 0; " fill="none" class="djs-hit"></rect><g style="font-family: Arial, sans-serif; font-size: 11px; " class=" djs-label djs-visual"><text x="45" y="5"></text></g></g><g class=" djs-group djs-connection"><path d="m  390,310L408,310 L426,310 " style="stroke-width: 1px; marker-end: url(#Shvnjrahq3); stroke-opacity: 0; " fill="none" stroke="#000000" class="djs-hit"></path><path d="m  390,310L408,310 L426,310 " style="stroke-width: 1px; marker-end: url(#Shvnjrahq3); " fill="None" stroke="#000000" class=" djs-visual"></path></g><g class=" djs-group djs-shape" transform="matrix(1,0,0,1,354,310)"><rect x="-10" y="-10" width="20" height="20" style="" fill="none" class="djs-outline"></rect><rect x="0" y="0" width="0" height="0" style="stroke-opacity: 0; " fill="none" class="djs-hit"></rect><g style="font-family: Arial, sans-serif; font-size: 11px; " class=" djs-label djs-visual"><text x="45" y="5"></text></g></g><g class=" djs-group djs-connection"><path d="m  509,310L527,310 L567,310 " style="stroke-width: 1px; marker-end: url(#Shvnjrahq3); stroke-opacity: 0; " fill="none" stroke="#000000" class="djs-hit"></path><path d="m  509,310L527,310 L567,310 " style="stroke-width: 1px; marker-end: url(#Shvnjrahq3); " fill="None" stroke="#000000" class=" djs-visual"></path></g><g class=" djs-group djs-shape" transform="matrix(1,0,0,1,473,310)"><rect x="-10" y="-10" width="20" height="20" style="" fill="none" class="djs-outline"></rect><rect x="0" y="0" width="0" height="0" style="stroke-opacity: 0; " fill="none" class="djs-hit"></rect><g style="font-family: Arial, sans-serif; font-size: 11px; " class=" djs-label djs-visual"><text x="45" y="5"></text></g></g><g class=" djs-group djs-connection"><path d="m  498,192L583,192 L583,294 " style="stroke-width: 1px; marker-end: url(#Shvnjrahq3); stroke-opacity: 0; " fill="none" stroke="#000000" class="djs-hit"></path><path d="m  498,192L583,192 L583,294 " style="stroke-width: 1px; marker-end: url(#Shvnjrahq3); " fill="None" stroke="#000000" class=" djs-visual"></path></g><g class=" djs-group djs-shape" transform="matrix(1,0,0,1,495.5,192)"><rect x="-10" y="-10" width="20" height="20" style="" fill="none" class="djs-outline"></rect><rect x="0" y="0" width="0" height="0" style="stroke-opacity: 0; " fill="none" class="djs-hit"></rect><g style="font-family: Arial, sans-serif; font-size: 11px; " class=" djs-label djs-visual"><text x="45" y="5"></text></g></g><g class=" djs-group djs-connection"><path d="m  492,432L525,432 " style="stroke-width: 1px; marker-end: url(#Shvnjrahq3); stroke-opacity: 0; " fill="none" stroke="#000000" class="djs-hit"></path><path d="m  492,432L525,432 " style="stroke-width: 1px; marker-end: url(#Shvnjrahq3); " fill="None" stroke="#000000" class=" djs-visual"></path></g><g class=" djs-group djs-shape" transform="matrix(1,0,0,1,463.5,432)"><rect x="-10" y="-10" width="20" height="20" style="" fill="none" class="djs-outline"></rect><rect x="0" y="0" width="0" height="0" style="stroke-opacity: 0; " fill="none" class="djs-hit"></rect><g style="font-family: Arial, sans-serif; font-size: 11px; " class=" djs-label djs-visual"><text x="45" y="5"></text></g></g></svg>