<?xml version="1.0" encoding="utf-8"?>
<!-- created with bpmn-js / http://bpmn.io -->
<!DOCTYPE svg PUBLIC "-//W3C//DTD SVG 1.1 Basic//EN" "http://www.w3.org/Graphics/SVG/1.1/DTD/svg11-basic.dtd">
<svg xmlns="http://www.w3.org/2000/svg" xmlns:xlink="http://www.w3.org/1999/xlink" version="1.1" baseProfile="basic">
<svg width="100%" height="100%" viewBox="0 0 1024 768"><desc>Created with Snap</desc><defs><marker viewBox="0 0 10 10" markerWidth="11" markerHeight="11" orient="auto" refX="10" refY="5" id="Shvnjraw13" markerUnits="strokeWidth" style="overflow-x: visible; overflow-y: visible; "><path d="M 0 0 L 10 5 L 0 10 Z" style="" fill="#000000" stroke="none"></path></marker><marker viewBox="0 0 10 10" markerWidth="14" markerHeight="14" orient="auto" refX="4" refY="4" id="Shvnjraw15" markerUnits="strokeWidth" style="overflow-x: visible; overflow-y: visible; "><circle cx="4" cy="4" r="4" style="stroke-width: 1px; stroke-dasharray: 1px, 0px; " fill="#ffffff" stroke="#000000"></circle></marker><marker viewBox="0 0 10 10" markerWidth="12" markerHeight="12" orient="auto" refX="11" refY="5" id="Shvnjraw17" markerUnits="strokeWidth" style="overflow-x: visible; overflow-y: visible; "><path d="M 0 0 L 10 5 L 0 10 Z" style="stroke-width: 1px; stroke-linecap: round; stroke-dasharray: 1px, 0px; " stroke="#000000" fill="#ffffff"></path></marker><marker viewBox="0 0 10 10" markerWidth="10" markerHeight="10" orient="auto" refX="10" refY="5" id="Shvnjraw19" style="stroke-width: 1.5px; stroke-linecap: round; stroke-dasharray: 1px, 0px; " stroke="#000000" fill="none"><path d="M 0 0 L 10 5 L 0 10 Z" class="djs-connection-marker"></path></marker><marker viewBox="0 0 10 10" markerWidth="16" markerHeight="9.6" orient="auto" refX="10" refY="5" id="Shvnjraw1b" markerUnits="strokeWidth" style="overflow-x: visible; overflow-y: visible; stroke-width: 1px; stroke-dasharray: 1px, 0px; "><path d="M 0 0 L 10 5 L 0 10" style="" fill="#ffffff" stroke="#000000"></path></marker><marker viewBox="0 0 15 15" markerWidth="12" markerHeight="12" orient="auto" refX="-8" refY="3.15" id="Shvnjraw1d" markerUnits="strokeWidth" style="overflow-x: visible; overflow-y: visible; stroke-width: 1px; stroke-dasharray: 1px, 0px; "><path d="M 0,0 7.089123,3.1832974 0.00383366,6.1129516 -7.0814464,3.1832966 z" style="" fill="#ffffff" stroke="#000000"></path></marker><marker viewBox="0 0 15 15" markerWidth="14" markerHeight="13" orient="auto" refX="-4" refY="5.5" id="Shvnjraw1f" markerUnits="strokeWidth" style="overflow-x: visible; overflow-y: visible; stroke-width: 1px; stroke-dasharray: 1px, 0px; "><path d="M 3,0 10,11" style="" fill="#000000" stroke="#000000"></path></marker><rect width="10" height="10" class="svg---mgr"></rect></defs><g class=" djs-group djs-shape" transform="matrix(1,0,0,1,72,120)"><rect x="-10" y="-10" width="908" height="164" style="" fill="none" class="djs-outline"></rect><rect x="0" y="0" width="888" height="144" style="stroke-opacity: 0; " fill="none" class="djs-hit"></rect><rect x="0" y="0" width="888" height="144" rx="0" ry="0" style="stroke-width: 2px; " stroke="#000000" fill="None" class=" djs-visual"></rect><polyline points="30,0,30,144" style="stroke-width: 2px; " fill="none" stroke="#000000"></polyline><g style="font-family: Arial, sans-serif; font-size: 12px; " class=" djs-label" transform="matrix(0,-1,1,0,0,144)"><text x="59.5" y="18.75">Pool</text></g></g><g class=" djs-group djs-shape" transform="matrix(1,0,0,1,199,158)"><rect x="-10" y="-10" width="103" height="88" style="" fill="none" class="djs-outline"></rect><rect x="0" y="0" width="83" height="68" style="stroke-opacity: 0; " fill="none" class="djs-hit"></rect><rect x="0" y="0" width="83" height="68" rx="10" ry="10" style="stroke-width: 2px; " stroke="#000000" fill="#ffffff" class=" djs-visual"></rect><g style="font-family: Arial, sans-serif; font-size: 12px; " class=" djs-label"><text x="23" y="37.75">Task 1</text></g></g><g class=" djs-group djs-shape" transform="matrix(1,0,0,1,758,158)"><rect x="-10" y="-10" width="103" height="88" style="" fill="none" class="djs-outline"></rect><rect x="0" y="0" width="83" height="68" style="stroke-opacity: 0; " fill="none" class="djs-hit"></rect><rect x="0" y="0" width="83" height="68" rx="10" ry="10" style="stroke-width: 2px; " stroke="#000000" fill="#ffffff" class=" djs-visual"></rect><g style="font-family: Arial, sans-serif; font-size: 12px; " class=" djs-label"><text x="23" y="37.75">Task 2</text></g></g><g class=" djs-group djs-shape" transform="matrix(1,0,0,1,872,176)"><rect x="-10.023870276850271" y="-10" width="52.04774055370054" height="52" style="" fill="none" class="djs-outline"></rect><rect x="-0.023870276850271543" y="0" width="32.04774055370054" height="32" style="stroke-opacity: 0; " fill="none" class="djs-hit"></rect><circle cx="16" cy="16" r="16" style="stroke-width: 4px; " stroke="#000000" fill="#ffffff" class=" djs-visual"></circle></g><g class=" djs-group djs-shape" transform="matrix(1,0,0,1,813.063,213.3333)"><rect x="36" y="-2" width="78" height="34" style="" fill="none" class="djs-outline"></rect><rect x="46" y="8" width="58" height="14" style="stroke-opacity: 0; " fill="none" class="djs-hit"></rect><g style="font-family: Arial, sans-serif; font-size: 11px; " class=" djs-label djs-visual"><text x="46.5" y="19">End Event 1</text></g></g><g class=" djs-group djs-shape" transform="matrix(1,0,0,1,126,177)"><rect x="-10.02237838454713" y="-10" width="50.04475676909426" height="50" style="" fill="none" class="djs-outline"></rect><rect x="-0.022378384547129704" y="0" width="30.04475676909426" height="30" style="stroke-opacity: 0; " fill="none" class="djs-hit"></rect><circle cx="15" cy="15" r="15" style="stroke-width: 1px; " stroke="#000000" fill="#ffffff" class=" djs-visual"></circle></g><g class=" djs-group djs-shape" transform="matrix(1,0,0,1,66.1443,212.3333)"><rect x="34" y="-2" width="82" height="34" style="" fill="none" class="djs-outline"></rect><rect x="44" y="8" width="62" height="14" style="stroke-opacity: 0; " fill="none" class="djs-hit"></rect><g style="font-family: Arial, sans-serif; font-size: 11px; " class=" djs-label djs-visual"><text x="44" y="19">Start Event 1</text></g></g><g class=" djs-group djs-connection"><path d="m  156,192L199,192 " style="stroke-width: 1px; marker-end: url(#Shvnjraw13); stroke-opacity: 0; " fill="none" stroke="#000000" class="djs-hit"></path><path d="m  156,192L199,192 " style="stroke-width: 1px; marker-end: url(#Shvnjraw13); " fill="None" stroke="#000000" class=" djs-visual"></path></g><g class=" djs-group djs-shape" transform="matrix(1,0,0,1,132.5,192)"><rect x="-10" y="-10" width="20" height="20" style="" fill="none" class="djs-outline"></rect><rect x="0" y="0" width="0" height="0" style="stroke-opacity: 0; " fill="none" class="djs-hit"></rect><g style="font-family: Arial, sans-serif; font-size: 11px; " class=" djs-label djs-visual"><text x="45" y="5"></text></g></g><g class=" djs-group djs-connection"><path d="m  842,192L860,192 L872,192 " style="stroke-width: 1px; marker-end: url(#Shvnjraw13); stroke-opacity: 0; " fill="none" stroke="#000000" class="djs-hit"></path><path d="m  842,192L860,192 L872,192 " style="stroke-width: 1px; marker-end: url(#Shvnjraw13); " fill="None" stroke="#000000" class=" djs-visual"></path></g><g class=" djs-group djs-shape" transform="matrix(1,0,0,1,806,192)"><rect x="-10" y="-10" width="20" height="20" style="" fill="none" class="djs-outline"></rect><rect x="0" y="0" width="0" height="0" style="stroke-opacity: 0; " fill="none" class="djs-hit"></rect><g style="font-family: Arial, sans-serif; font-size: 11px; " class=" djs-label djs-visual"><text x="45" y="5"></text></g></g><g class=" djs-group djs-connection"><path d="m  282,192L758,192 " style="stroke-width: 1px; marker-end: url(#Shvnjraw13); stroke-opacity: 0; " fill="none" stroke="#000000" class="djs-hit"></path><path d="m  282,192L758,192 " style="stroke-width: 1px; marker-end: url(#Shvnjraw13); " fill="None" stroke="#000000" class=" djs-visual"></path></g><g class=" djs-group djs-shape" transform="matrix(1,0,0,1,475,192)"><rect x="-10" y="-10" width="20" height="20" style="" fill="none" class="djs-outline"></rect><rect x="0" y="0" width="0" height="0" style="stroke-opacity: 0; " fill="none" class="djs-hit"></rect><g style="font-family: Arial, sans-serif; font-size: 11px; " class=" djs-label djs-visual"><text x="45" y="5"></text></g></g><g class=" djs-group djs-connection"><path d="m  241,226L240,368 " style="marker-end: url(#Shvnjraw17); marker-start: url(#Shvnjraw15); stroke-dasharray: 3px; stroke-width: 1px; stroke-opacity: 0; " fill="none" stroke="#000000" class="djs-hit"></path><path d="m  241,226L240,368 " style="marker-end: url(#Shvnjraw17); marker-start: url(#Shvnjraw15); stroke-dasharray: 3px; stroke-width: 1px; " fill="None" stroke="#000000" class=" djs-visual"></path></g><g class=" djs-group djs-connection"><path d="m  800,366L800,226 " style="marker-end: url(#Shvnjraw17); marker-start: url(#Shvnjraw15); stroke-dasharray: 3px; stroke-width: 1px; stroke-opacity: 0; " fill="none" stroke="#000000" class="djs-hit"></path><path d="m  800,366L800,226 " style="marker-end: url(#Shvnjraw17); marker-start: url(#Shvnjraw15); stroke-dasharray: 3px; stroke-width: 1px; " fill="None" stroke="#000000" class=" djs-visual"></path></g><g class=" djs-group djs-shape" transform="matrix(1,0,0,1,75,301)"><rect x="-10" y="-10" width="905" height="223" style="" fill="none" class="djs-outline"></rect><rect x="0" y="0" width="885" height="203" style="stroke-opacity: 0; " fill="none" class="djs-hit"></rect><rect x="0" y="0" width="885" height="203" rx="0" ry="0" style="stroke-width: 2px; " stroke="#000000" fill="None" class=" djs-visual"></rect><g style="font-family: Arial, sans-serif; font-size: 12px; " class=" djs-label" transform="matrix(0,-1,1,0,0,203)"><text x="82.5" y="18.75">Lane 1</text></g></g><g class=" djs-group djs-shape" transform="matrix(1,0,0,1,758,366)"><rect x="-10" y="-10" width="103" height="88" style="" fill="none" class="djs-outline"></rect><rect x="0" y="0" width="83" height="68" style="stroke-opacity: 0; " fill="none" class="djs-hit"></rect><rect x="0" y="0" width="83" height="68" rx="10" ry="10" style="stroke-width: 2px; " stroke="#000000" fill="#ffffff" class=" djs-visual"></rect><g style="font-family: Arial, sans-serif; font-size: 12px; " class=" djs-label"><text x="23" y="37.75">Task 5</text></g></g><g class=" djs-group djs-shape" transform="matrix(1,0,0,1,120,387)"><rect x="-10.02237838454713" y="-10" width="50.04475676909426" height="50" style="" fill="none" class="djs-outline"></rect><rect x="-0.022378384547129704" y="0" width="30.04475676909426" height="30" style="stroke-opacity: 0; " fill="none" class="djs-hit"></rect><circle cx="15" cy="15" r="15" style="stroke-width: 1px; " stroke="#000000" fill="#ffffff" class=" djs-visual"></circle></g><g class=" djs-group djs-shape" transform="matrix(1,0,0,1,60.1443,422.3333)"><rect x="34" y="-2" width="82" height="34" style="" fill="none" class="djs-outline"></rect><rect x="44" y="8" width="62" height="14" style="stroke-opacity: 0; " fill="none" class="djs-hit"></rect><g style="font-family: Arial, sans-serif; font-size: 11px; " class=" djs-label djs-visual"><text x="44" y="19">Start Event 2</text></g></g><g class=" djs-group djs-shape" transform="matrix(1,0,0,1,330,330)"><rect x="-10" y="-10" width="298" height="158" style="" fill="none" class="djs-outline"></rect><rect x="0" y="0" width="278" height="138" style="stroke-opacity: 0; " fill="none" class="djs-hit"></rect><rect x="0" y="0" width="278" height="138" rx="10" ry="10" style="stroke-width: 2px; " stroke="#000000" fill="#ffffff" class=" djs-visual"></rect><g style="font-family: Arial, sans-serif; font-size: 12px; " class=" djs-label"><text x="69" y="20">Expanded Sub-Process 1</text></g></g><g class=" djs-group djs-shape" transform="matrix(1,0,0,1,354,377)"><rect x="-10.02237838454713" y="-10" width="50.04475676909426" height="50" style="" fill="none" class="djs-outline"></rect><rect x="-0.022378384547129704" y="0" width="30.04475676909426" height="30" style="stroke-opacity: 0; " fill="none" class="djs-hit"></rect><circle cx="15" cy="15" r="15" style="stroke-width: 1px; " stroke="#000000" fill="#ffffff" class=" djs-visual"></circle></g><g class=" djs-group djs-shape" transform="matrix(1,0,0,1,294.1443,412.3333)"><rect x="34" y="-2" width="82" height="34" style="" fill="none" class="djs-outline"></rect><rect x="44" y="8" width="62" height="14" style="stroke-opacity: 0; " fill="none" class="djs-hit"></rect><g style="font-family: Arial, sans-serif; font-size: 11px; " class=" djs-label djs-visual"><text x="44" y="19">Start Event 3</text></g></g><g class=" djs-group djs-shape" transform="matrix(1,0,0,1,418,358)"><rect x="-10" y="-10" width="103" height="88" style="" fill="none" class="djs-outline"></rect><rect x="0" y="0" width="83" height="68" style="stroke-opacity: 0; " fill="none" class="djs-hit"></rect><rect x="0" y="0" width="83" height="68" rx="10" ry="10" style="stroke-width: 2px; " stroke="#000000" fill="#ffffff" class=" djs-visual"></rect><g style="font-family: Arial, sans-serif; font-size: 12px; " class=" djs-label"><text x="23" y="37.75">Task 4</text></g></g><g class=" djs-group djs-shape" transform="matrix(1,0,0,1,553,376)"><rect x="-10.023870276850271" y="-10" width="52.04774055370054" height="52" style="" fill="none" class="djs-outline"></rect><rect x="-0.023870276850271543" y="0" width="32.04774055370054" height="32" style="stroke-opacity: 0; " fill="none" class="djs-hit"></rect><circle cx="16" cy="16" r="16" style="stroke-width: 4px; " stroke="#000000" fill="#ffffff" class=" djs-visual"></circle></g><g class=" djs-group djs-shape" transform="matrix(1,0,0,1,494.063,413.3333)"><rect x="36" y="-2" width="78" height="34" style="" fill="none" class="djs-outline"></rect><rect x="46" y="8" width="58" height="14" style="stroke-opacity: 0; " fill="none" class="djs-hit"></rect><g style="font-family: Arial, sans-serif; font-size: 11px; " class=" djs-label djs-visual"><text x="46.5" y="19">End Event 3</text></g></g><g class=" djs-group djs-connection"><path d="m  384,392L418,392 " style="stroke-width: 1px; marker-end: url(#Shvnjraw13); stroke-opacity: 0; " fill="none" stroke="#000000" class="djs-hit"></path><path d="m  384,392L418,392 " style="stroke-width: 1px; marker-end: url(#Shvnjraw13); " fill="None" stroke="#000000" class=" djs-visual"></path></g><g class=" djs-group djs-shape" transform="matrix(1,0,0,1,356,392)"><rect x="-10" y="-10" width="20" height="20" style="" fill="none" class="djs-outline"></rect><rect x="0" y="0" width="0" height="0" style="stroke-opacity: 0; " fill="none" class="djs-hit"></rect><g style="font-family: Arial, sans-serif; font-size: 11px; " class=" djs-label djs-visual"><text x="45" y="5"></text></g></g><g class=" djs-group djs-connection"><path d="m  501,392L519,392 L553,392 " style="stroke-width: 1px; marker-end: url(#Shvnjraw13); stroke-opacity: 0; " fill="none" stroke="#000000" class="djs-hit"></path><path d="m  501,392L519,392 L553,392 " style="stroke-width: 1px; marker-end: url(#Shvnjraw13); " fill="None" stroke="#000000" class=" djs-visual"></path></g><g class=" djs-group djs-shape" transform="matrix(1,0,0,1,465,392)"><rect x="-10" y="-10" width="20" height="20" style="" fill="none" class="djs-outline"></rect><rect x="0" y="0" width="0" height="0" style="stroke-opacity: 0; " fill="none" class="djs-hit"></rect><g style="font-family: Arial, sans-serif; font-size: 11px; " class=" djs-label djs-visual"><text x="45" y="5"></text></g></g><g class=" djs-group djs-shape" transform="matrix(1,0,0,1,880,384)"><rect x="-10.023870276850271" y="-10" width="52.04774055370054" height="52" style="" fill="none" class="djs-outline"></rect><rect x="-0.023870276850271543" y="0" width="32.04774055370054" height="32" style="stroke-opacity: 0; " fill="none" class="djs-hit"></rect><circle cx="16" cy="16" r="16" style="stroke-width: 4px; " stroke="#000000" fill="#ffffff" class=" djs-visual"></circle></g><g class=" djs-group djs-shape" transform="matrix(1,0,0,1,821.063,421.3333)"><rect x="36" y="-2" width="78" height="34" style="" fill="none" class="djs-outline"></rect><rect x="46" y="8" width="58" height="14" style="stroke-opacity: 0; " fill="none" class="djs-hit"></rect><g style="font-family: Arial, sans-serif; font-size: 11px; " class=" djs-label djs-visual"><text x="46.5" y="19">End Event 2</text></g></g><g class=" djs-group djs-shape" transform="matrix(1,0,0,1,198,368)"><rect x="-10" y="-10" width="103" height="88" style="" fill="none" class="djs-outline"></rect><rect x="0" y="0" width="83" height="68" style="stroke-opacity: 0; " fill="none" class="djs-hit"></rect><rect x="0" y="0" width="83" height="68" rx="10" ry="10" style="stroke-width: 2px; " stroke="#000000" fill="#ffffff" class=" djs-visual"></rect><g style="font-family: Arial, sans-serif; font-size: 12px; " class=" djs-label"><text x="23" y="37.75">Task 3</text></g></g><g class=" djs-group djs-shape" transform="matrix(1,0,0,1,75,504)"><rect x="-10" y="-10" width="905" height="224" style="" fill="none" class="djs-outline"></rect><rect x="0" y="0" width="885" height="204" style="stroke-opacity: 0; " fill="none" class="djs-hit"></rect><rect x="0" y="0" width="885" height="204" rx="0" ry="0" style="stroke-width: 2px; " stroke="#000000" fill="None" class=" djs-visual"></rect><g style="font-family: Arial, sans-serif; font-size: 12px; " class=" djs-label" transform="matrix(0,-1,1,0,0,204)"><text x="83" y="18.75">Lane 2</text></g></g><g class=" djs-group djs-shape" transform="matrix(1,0,0,1,648,583)"><rect x="-10.023870276850271" y="-10" width="52.04774055370054" height="52" style="" fill="none" class="djs-outline"></rect><rect x="-0.023870276850271543" y="0" width="32.04774055370054" height="32" style="stroke-opacity: 0; " fill="none" class="djs-hit"></rect><circle cx="16" cy="16" r="16" style="stroke-width: 4px; " stroke="#000000" fill="#ffffff" class=" djs-visual"></circle></g><g class=" djs-group djs-shape" transform="matrix(1,0,0,1,589.063,620.3333)"><rect x="36" y="-2" width="78" height="34" style="" fill="none" class="djs-outline"></rect><rect x="46" y="8" width="58" height="14" style="stroke-opacity: 0; " fill="none" class="djs-hit"></rect><g style="font-family: Arial, sans-serif; font-size: 11px; " class=" djs-label djs-visual"><text x="46.5" y="19">End Event 5</text></g></g><g class=" djs-group djs-shape" transform="matrix(1,0,0,1,270,525)"><rect x="-10" y="-10" width="335" height="167" style="" fill="none" class="djs-outline"></rect><rect x="0" y="0" width="315" height="147" style="stroke-opacity: 0; " fill="none" class="djs-hit"></rect><rect x="0" y="0" width="315" height="147" rx="10" ry="10" style="stroke-width: 2px; " stroke="#000000" fill="#ffffff" class=" djs-visual"></rect><g style="font-family: Arial, sans-serif; font-size: 12px; " class=" djs-label"><text x="87.5" y="20">Expanded Sub-Process 2</text></g></g><g class=" djs-group djs-shape" transform="matrix(1,0,0,1,300,573)"><rect x="-10.02237838454713" y="-10" width="50.04475676909426" height="50" style="" fill="none" class="djs-outline"></rect><rect x="-0.022378384547129704" y="0" width="30.04475676909426" height="30" style="stroke-opacity: 0; " fill="none" class="djs-hit"></rect><circle cx="15" cy="15" r="15" style="stroke-width: 1px; " stroke="#000000" fill="#ffffff" class=" djs-visual"></circle></g><g class=" djs-group djs-shape" transform="matrix(1,0,0,1,240.1443,608.3333)"><rect x="34" y="-2" width="82" height="34" style="" fill="none" class="djs-outline"></rect><rect x="44" y="8" width="62" height="14" style="stroke-opacity: 0; " fill="none" class="djs-hit"></rect><g style="font-family: Arial, sans-serif; font-size: 11px; " class=" djs-label djs-visual"><text x="44" y="19">Start Event 4</text></g></g><g class=" djs-group djs-shape" transform="matrix(1,0,0,1,384,554)"><rect x="-10" y="-10" width="103" height="88" style="" fill="none" class="djs-outline"></rect><rect x="0" y="0" width="83" height="68" style="stroke-opacity: 0; " fill="none" class="djs-hit"></rect><rect x="0" y="0" width="83" height="68" rx="10" ry="10" style="stroke-width: 2px; " stroke="#000000" fill="#ffffff" class=" djs-visual"></rect><g style="font-family: Arial, sans-serif; font-size: 12px; " class=" djs-label"><text x="23" y="37.75">Task 6</text></g></g><g class=" djs-group djs-shape" transform="matrix(1,0,0,1,522,572)"><rect x="-10.023870276850271" y="-10" width="52.04774055370054" height="52" style="" fill="none" class="djs-outline"></rect><rect x="-0.023870276850271543" y="0" width="32.04774055370054" height="32" style="stroke-opacity: 0; " fill="none" class="djs-hit"></rect><circle cx="16" cy="16" r="16" style="stroke-width: 4px; " stroke="#000000" fill="#ffffff" class=" djs-visual"></circle></g><g class=" djs-group djs-shape" transform="matrix(1,0,0,1,463.063,609.3333)"><rect x="36" y="-2" width="78" height="34" style="" fill="none" class="djs-outline"></rect><rect x="46" y="8" width="58" height="14" style="stroke-opacity: 0; " fill="none" class="djs-hit"></rect><g style="font-family: Arial, sans-serif; font-size: 11px; " class=" djs-label djs-visual"><text x="46.5" y="19">End Event 4</text></g></g><g class=" djs-group djs-connection"><path d="m  330,588L348,588 L384,588 " style="stroke-width: 1px; marker-end: url(#Shvnjraw13); stroke-opacity: 0; " fill="none" stroke="#000000" class="djs-hit"></path><path d="m  330,588L348,588 L384,588 " style="stroke-width: 1px; marker-end: url(#Shvnjraw13); " fill="None" stroke="#000000" class=" djs-visual"></path></g><g class=" djs-group djs-shape" transform="matrix(1,0,0,1,294,588)"><rect x="-10" y="-10" width="20" height="20" style="" fill="none" class="djs-outline"></rect><rect x="0" y="0" width="0" height="0" style="stroke-opacity: 0; " fill="none" class="djs-hit"></rect><g style="font-family: Arial, sans-serif; font-size: 11px; " class=" djs-label djs-visual"><text x="45" y="5"></text></g></g><g class=" djs-group djs-connection"><path d="m  468,588L486,588 L522,588 " style="stroke-width: 1px; marker-end: url(#Shvnjraw13); stroke-opacity: 0; " fill="none" stroke="#000000" class="djs-hit"></path><path d="m  468,588L486,588 L522,588 " style="stroke-width: 1px; marker-end: url(#Shvnjraw13); " fill="None" stroke="#000000" class=" djs-visual"></path></g><g class=" djs-group djs-shape" transform="matrix(1,0,0,1,432,588)"><rect x="-10" y="-10" width="20" height="20" style="" fill="none" class="djs-outline"></rect><rect x="0" y="0" width="0" height="0" style="stroke-opacity: 0; " fill="none" class="djs-hit"></rect><g style="font-family: Arial, sans-serif; font-size: 11px; " class=" djs-label djs-visual"><text x="45" y="5"></text></g></g><g class=" djs-group djs-connection"><path d="m  281,402L299,402 L330,402 " style="stroke-width: 1px; marker-end: url(#Shvnjraw13); stroke-opacity: 0; " fill="none" stroke="#000000" class="djs-hit"></path><path d="m  281,402L299,402 L330,402 " style="stroke-width: 1px; marker-end: url(#Shvnjraw13); " fill="None" stroke="#000000" class=" djs-visual"></path></g><g class=" djs-group djs-shape" transform="matrix(1,0,0,1,245,402)"><rect x="-10" y="-10" width="20" height="20" style="" fill="none" class="djs-outline"></rect><rect x="0" y="0" width="0" height="0" style="stroke-opacity: 0; " fill="none" class="djs-hit"></rect><g style="font-family: Arial, sans-serif; font-size: 11px; " class=" djs-label djs-visual"><text x="45" y="5"></text></g></g><g class=" djs-group djs-connection"><path d="m  608,399L758,400 " style="stroke-width: 1px; marker-end: url(#Shvnjraw13); stroke-opacity: 0; " fill="none" stroke="#000000" class="djs-hit"></path><path d="m  608,399L758,400 " style="stroke-width: 1px; marker-end: url(#Shvnjraw13); " fill="None" stroke="#000000" class=" djs-visual"></path></g><g class=" djs-group djs-shape" transform="matrix(1,0,0,1,638,399.5)"><rect x="-10" y="-10" width="20" height="20" style="" fill="none" class="djs-outline"></rect><rect x="0" y="0" width="0" height="0" style="stroke-opacity: 0; " fill="none" class="djs-hit"></rect><g style="font-family: Arial, sans-serif; font-size: 11px; " class=" djs-label djs-visual"><text x="45" y="5"></text></g></g><g class=" djs-group djs-connection"><path d="m  842,400L860,400 L880,400 " style="stroke-width: 1px; marker-end: url(#Shvnjraw13); stroke-opacity: 0; " fill="none" stroke="#000000" class="djs-hit"></path><path d="m  842,400L860,400 L880,400 " style="stroke-width: 1px; marker-end: url(#Shvnjraw13); " fill="None" stroke="#000000" class=" djs-visual"></path></g><g class=" djs-group djs-shape" transform="matrix(1,0,0,1,806,400)"><rect x="-10" y="-10" width="20" height="20" style="" fill="none" class="djs-outline"></rect><rect x="0" y="0" width="0" height="0" style="stroke-opacity: 0; " fill="none" class="djs-hit"></rect><g style="font-family: Arial, sans-serif; font-size: 11px; " class=" djs-label djs-visual"><text x="45" y="5"></text></g></g><g class=" djs-group djs-connection"><path d="m  240,436L240,596 L270,596 " style="stroke-width: 1px; marker-end: url(#Shvnjraw13); stroke-opacity: 0; " fill="none" stroke="#000000" class="djs-hit"></path><path d="m  240,436L240,596 L270,596 " style="stroke-width: 1px; marker-end: url(#Shvnjraw13); " fill="None" stroke="#000000" class=" djs-visual"></path></g><g class=" djs-group djs-shape" transform="matrix(1,0,0,1,195,516)"><rect x="-10" y="-10" width="20" height="20" style="" fill="none" class="djs-outline"></rect><rect x="0" y="0" width="0" height="0" style="stroke-opacity: 0; " fill="none" class="djs-hit"></rect><g style="font-family: Arial, sans-serif; font-size: 11px; " class=" djs-label djs-visual"><text x="45" y="5"></text></g></g><g class=" djs-group djs-connection"><path d="m  585,599L603,599 L648,599 " style="stroke-width: 1px; marker-end: url(#Shvnjraw13); stroke-opacity: 0; " fill="none" stroke="#000000" class="djs-hit"></path><path d="m  585,599L603,599 L648,599 " style="stroke-width: 1px; marker-end: url(#Shvnjraw13); " fill="None" stroke="#000000" class=" djs-visual"></path></g><g class=" djs-group djs-shape" transform="matrix(1,0,0,1,549,599)"><rect x="-10" y="-10" width="20" height="20" style="" fill="none" class="djs-outline"></rect><rect x="0" y="0" width="0" height="0" style="stroke-opacity: 0; " fill="none" class="djs-hit"></rect><g style="font-family: Arial, sans-serif; font-size: 11px; " class=" djs-label djs-visual"><text x="45" y="5"></text></g></g><g class=" djs-group djs-connection"><path d="m  150,402L168,402 L198,402 " style="stroke-width: 1px; marker-end: url(#Shvnjraw13); stroke-opacity: 0; " fill="none" stroke="#000000" class="djs-hit"></path><path d="m  150,402L168,402 L198,402 " style="stroke-width: 1px; marker-end: url(#Shvnjraw13); " fill="None" stroke="#000000" class=" djs-visual"></path></g><g class=" djs-group djs-shape" transform="matrix(1,0,0,1,114,402)"><rect x="-10" y="-10" width="20" height="20" style="" fill="none" class="djs-outline"></rect><rect x="0" y="0" width="0" height="0" style="stroke-opacity: 0; " fill="none" class="djs-hit"></rect><g style="font-family: Arial, sans-serif; font-size: 11px; " class=" djs-label djs-visual"><text x="45" y="5"></text></g></g></svg>