<?xml version="1.0" ?>
<svg xmlns="http://www.w3.org/2000/svg" id="sid-78cf0368-c97e-4dea-885f-0e535c20d6c7" name="Collaboration C.1.0" version="1.1" xml:lang="" height="773" width="1044" viewBox="0 0 1044773">
  <defs>
    <marker id="backslash" markerWidth="6" markerHeight="6" refX="-2" refY="3" markerUnits="strokeWidth" orient="auto">
      <path d="M 0,0 10,10" stroke="#666" stroke-width="1px"/>
    </marker>
    <marker id="circle" markerWidth="10" markerHeight="10" refX="0" refY="3" markerUnits="strokeWidth" orient="auto">
      <circle cx="3" cy="3" r="3" stroke-width="1px" fill="#ffffff" stroke="#666666"/>
    </marker>
    <marker id="diamond" markerWidth="10" markerHeight="10" refX="0" refY="2" markerUnits="strokeWidth" orient="auto">
      <path d="M 0,2 L 4,4 8,2 4,0 z" fill="#ffffff" stroke="#666666"/>
    </marker>
    <marker id="unfilled-envelope" markerWidth="16" markerHeight="12" refX="3" refY="-20" markerUnits="strokeWidth" orient="auto">
      <path d="m 353.77539,495.84961 0,694.62499 1052.97461,0 0,-694.62499 z m 108.98242,45.44336 835.00779,0 -417.50388,274.67187 z m -63.54101,12.58984 481.04492,316.47657 481.04488,-316.47657 0,591.15039 -962.0898,0 z" stroke-width="1px" fill="#ffffff" stroke="#666666"/>
    </marker>
    <marker id="filled-arrow" markerWidth="10" markerHeight="10" refX="8" refY="3" orient="auto" markerUnits="strokeWidth">
      <path d="M0,0 L0,6 L9,3 z" fill="#666666"/>
    </marker>
    <marker id="unfilled-arrow" markerWidth="10" markerHeight="10" refX="8" refY="3" orient="auto" markerUnits="strokeWidth">
      <path d="M0,0 L0,6 L9,3 z" fill="#ffffff" stroke="#666666"/>
    </marker>
    <marker id="open-arrow" markerWidth="10" markerHeight="10" refX="8" refY="3" orient="auto" markerUnits="strokeWidth">
      <path d="M 0,0 C 4.514306,2.8087928 4.7790399,2.7522338 0,6 M 0,6 9,3 0,0" fill="#666666"/>
    </marker>
  </defs>
  <rect class="participant" data-name="Team-Assistant" data-type="participant" fill="#ffffff" id="sid-46891B57-A9D3-4A8B-AEBF-D4BA5F3961AD" height="205.0" stroke="#666666" width="1007.0" x="17.0" y="15.0"/>
  <line class="participantBorder" x1="45" stroke="#666666" y1="15.0" x2="45" y2="220"/>
  <text class="label participantLabel" fill="#666666" text-anchor="middle" transform="rotate(-90, 36, 117.5)" x="36" y="117.5" style="font-size:11.00px;font-family:Segoe UI,sans-serif" stroke-width="0">Team-Assistant</text>
  <rect class="participant" data-name="Process Engine - Invoice Receipt" data-type="participant" fill="#ffffff" id="Process_Engine_1" height="488.0" stroke="#666666" width="1009.0" x="15.0" y="270.0"/>
  <line class="participantBorder" x1="43" stroke="#666666" y1="270.0" x2="43" y2="758"/>
  <text class="label participantLabel" fill="#666666" text-anchor="middle" transform="rotate(-90, 34, 514.5)" x="34" y="514.5" style="font-size:11.00px;font-family:Segoe UI,sans-serif" stroke-width="0">Process Engine - Invoice Receipt</text>
  <rect class="lane" data-name="" data-type="lane" fill="#ffffff" fill-opacity="1" stroke="#666666" stroke-width="1" id="sid-744AEFB3-C93D-46A3-8976-EFA91784A51F" height="205.0" width="977.0" x="47.0" y="15.0"/>
  <text class="label laneLabel" fill="#666666" text-anchor="middle" transform="rotate(-90, 1024, 220)" x="1024" y="220" style="font-size:11.00px;font-family:sans-serif" stroke-width="0"/>
  <rect class="lane" data-name="Approver" data-type="lane" fill="#ffffff" fill-opacity="1" stroke="#666666" stroke-width="1" id="Approver" height="161.0" width="979.0" x="45.0" y="453.0"/>
  <text class="label laneLabel" fill="#666666" text-anchor="middle" transform="rotate(-90, 64, 533)" x="64" y="533" style="font-size:11.00px;font-family:Segoe UI,sans-serif" stroke-width="0">Approver</text>
  <rect class="lane" data-name="Team Assistant" data-type="lane" fill="#ffffff" fill-opacity="1" stroke="#666666" stroke-width="1" id="teamAssistant" height="183.0" width="979.0" x="45.0" y="270.0"/>
  <text class="label laneLabel" fill="#666666" text-anchor="middle" transform="rotate(-90, 64, 361)" x="64" y="361" style="font-size:11.00px;font-family:Segoe UI,sans-serif" stroke-width="0">Team Assistant</text>
  <rect class="lane" data-name="Accountant" data-type="lane" fill="#ffffff" fill-opacity="1" stroke="#666666" stroke-width="1" id="Accountant" height="144.0" width="979.0" x="45.0" y="614.0"/>
  <text class="label laneLabel" fill="#666666" text-anchor="middle" transform="rotate(-90, 64, 686.5)" x="64" y="686.5" style="font-size:11.00px;font-family:Segoe UI,sans-serif" stroke-width="0">Accountant</text>
  <path id="sid-915AC9A0-CD35-4DF2-93F7-4535397622F8" class="flow messageFlow" data-type="messageFlow" d="M 846.0 214.0 L 846.0 254.0 L 629.0 254.0 L 629.0 322.0" fill="#ffffff" stroke="#666666" fill-opacity="0" stroke-width="2.0" style="marker-start:url(#circle); marker-end:url(#unfilled-arrow)" stroke-dasharray="10 5"/>
  <text class="label messageFlowLabel" id="sid-915AC9A0-CD35-4DF2-93F7-4535397622F8_label" fill="#666666" text-anchor="middle" transform="rotate(0) translate(0, 0)" x="846.0" y="225" style="font-size:11.00px;font-family:sans-serif" stroke-width="0"/>
  <path id="sid-AB6EB7C8-DF5E-42C2-88D0-FA166583AF15" class="flow messageFlow" data-type="messageFlow" d="M 576.0 173.0 L 576.0 254.0 L 261.0 254.0 L 261.0 322.0" fill="#ffffff" stroke="#666666" fill-opacity="0" stroke-width="2.0" style="marker-start:url(#circle); marker-end:url(#unfilled-arrow)" stroke-dasharray="10 5"/>
  <text class="label messageFlowLabel" id="sid-AB6EB7C8-DF5E-42C2-88D0-FA166583AF15_label" fill="#666666" text-anchor="middle" transform="rotate(0) translate(0, 0)" x="576.0" y="184" style="font-size:11.00px;font-family:sans-serif" stroke-width="0"/>
  <path id="sid-7A070DED-8B83-48E1-88A1-5543C481E7BC" class="flow messageFlow" data-type="messageFlow" d="M 216.0 173.0 L 216.0 253.0 L 125.0 253.0 L 125.0 347.0" fill="#ffffff" stroke="#666666" fill-opacity="0" stroke-width="2.0" style="marker-start:url(#circle); marker-end:url(#unfilled-arrow)" stroke-dasharray="10 5"/>
  <text class="label messageFlowLabel" id="sid-7A070DED-8B83-48E1-88A1-5543C481E7BC_label" fill="#666666" text-anchor="middle" transform="rotate(0) translate(0, 0)" x="216.0" y="184" style="font-size:11.00px;font-family:sans-serif" stroke-width="0"/>
  <path id="sid-90902E27-C1CD-4F90-A8F2-486DA4F42117" class="flow messageFlow" data-type="messageFlow" d="M 228.0 322.0 L 228.0 235.0 L 470.0 235.0 L 470.0 148.0" fill="#ffffff" stroke="#666666" fill-opacity="0" stroke-width="2.0" style="marker-start:url(#circle); marker-end:url(#unfilled-arrow)" stroke-dasharray="10 5"/>
  <text class="label messageFlowLabel" id="sid-90902E27-C1CD-4F90-A8F2-486DA4F42117_label" fill="#666666" text-anchor="middle" transform="rotate(0) translate(0, 0)" x="228.0" y="333" style="font-size:11.00px;font-family:sans-serif" stroke-width="0"/>
  <path id="sid-0518A412-1ED3-4CFD-A75C-69FF37EFFC16" class="flow messageFlow" data-type="messageFlow" d="M 596.0 322.0 L 596.0 237.0 L 746.0 237.0 L 746.0 189.0" fill="#ffffff" stroke="#666666" fill-opacity="0" stroke-width="2.0" style="marker-start:url(#circle); marker-end:url(#unfilled-arrow)" stroke-dasharray="10 5"/>
  <text class="label messageFlowLabel" id="sid-0518A412-1ED3-4CFD-A75C-69FF37EFFC16_label" fill="#666666" text-anchor="middle" transform="rotate(0) translate(0, 0)" x="596.0" y="333" style="font-size:11.00px;font-family:sans-serif" stroke-width="0"/>
  <path id="sid-71EF9530-A32A-49BC-A783-9B98A5801362" class="flow sequenceFlow" data-type="sequenceFlow" d="M 672.0 113.0 L 672.0 77.0 L 731.0 77.0" fill="#ffffff" stroke="#666666" fill-opacity="0" stroke-width="2.0" style=" marker-end:url(#filled-arrow)"/>
  <text class="label sequenceFlowLabel" id="sid-71EF9530-A32A-49BC-A783-9B98A5801362_label" fill="#666666" text-anchor="middle" transform="rotate(0) translate(0, 0)" x="672.0" y="124" style="font-size:11.00px;font-family:sans-serif" stroke-width="0"/>
  <path id="sid-C0540F47-C3C0-4FA8-B000-6D87640A6178" class="flow sequenceFlow" data-type="sequenceFlow" d="M 415.0 133.0 L 455.0 133.0" fill="#ffffff" stroke="#666666" fill-opacity="0" stroke-width="2.0" style=" marker-end:url(#filled-arrow)"/>
  <text class="label sequenceFlowLabel" id="sid-C0540F47-C3C0-4FA8-B000-6D87640A6178_label" fill="#666666" text-anchor="middle" transform="rotate(0) translate(0, 0)" x="415.0" y="144" style="font-size:11.00px;font-family:sans-serif" stroke-width="0"/>
  <path id="sid-4AD2006C-9290-42B0-A904-DD8076B791C4" class="flow sequenceFlow" data-type="sequenceFlow" d="M 485.0 133.0 L 527.0 133.0" fill="#ffffff" stroke="#666666" fill-opacity="0" stroke-width="2.0" style=" marker-end:url(#filled-arrow)"/>
  <text class="label sequenceFlowLabel" id="sid-4AD2006C-9290-42B0-A904-DD8076B791C4_label" fill="#666666" text-anchor="middle" transform="rotate(0) translate(0, 0)" x="485.0" y="144" style="font-size:11.00px;font-family:sans-serif" stroke-width="0"/>
  <path id="sid-3E8B2FCF-E408-4A5D-9455-8FDE7BB3EF96" class="flow sequenceFlow" data-type="sequenceFlow" d="M 267.0 133.0 L 315.0 133.0" fill="#ffffff" stroke="#666666" fill-opacity="0" stroke-width="2.0" style=" marker-end:url(#filled-arrow)"/>
  <text class="label sequenceFlowLabel" id="sid-3E8B2FCF-E408-4A5D-9455-8FDE7BB3EF96_label" fill="#666666" text-anchor="middle" transform="rotate(0) translate(0, 0)" x="267.0" y="144" style="font-size:11.00px;font-family:sans-serif" stroke-width="0"/>
  <path id="sid-4686AFBC-E33A-4657-95A0-B2E27E704152" class="flow sequenceFlow" data-type="sequenceFlow" d="M 672.0 153.0 L 672.0 174.0 L 731.0 174.0" fill="#ffffff" stroke="#666666" fill-opacity="0" stroke-width="2.0" style=" marker-end:url(#filled-arrow)"/>
  <text class="label sequenceFlowLabel" id="sid-4686AFBC-E33A-4657-95A0-B2E27E704152_label" fill="#666666" text-anchor="middle" transform="rotate(0) translate(0, 0)" x="672.0" y="164" style="font-size:11.00px;font-family:sans-serif" stroke-width="0"/>
  <path id="sid-6CB8539C-E02A-4496-94E7-17FAECB0D4B1" class="flow sequenceFlow" data-type="sequenceFlow" d="M 897.0 174.0 L 941.0 174.0" fill="#ffffff" stroke="#666666" fill-opacity="0" stroke-width="2.0" style=" marker-end:url(#filled-arrow)"/>
  <text class="label sequenceFlowLabel" id="sid-6CB8539C-E02A-4496-94E7-17FAECB0D4B1_label" fill="#666666" text-anchor="middle" transform="rotate(0) translate(0, 0)" x="897.0" y="185" style="font-size:11.00px;font-family:sans-serif" stroke-width="0"/>
  <path id="sid-D03CC374-8575-4F38-98B4-4DFF014C43CB" class="flow sequenceFlow" data-type="sequenceFlow" d="M 761.0 174.0 L 797.0 174.0" fill="#ffffff" stroke="#666666" fill-opacity="0" stroke-width="2.0" style=" marker-end:url(#filled-arrow)"/>
  <text class="label sequenceFlowLabel" id="sid-D03CC374-8575-4F38-98B4-4DFF014C43CB_label" fill="#666666" text-anchor="middle" transform="rotate(0) translate(0, 0)" x="761.0" y="185" style="font-size:11.00px;font-family:sans-serif" stroke-width="0"/>
  <path id="sid-3019478F-48D5-4B85-95B1-E192B9BE4183" class="flow sequenceFlow" data-type="sequenceFlow" d="M 761.0 77.0 L 941.0 77.0" fill="#ffffff" stroke="#666666" fill-opacity="0" stroke-width="2.0" style=" marker-end:url(#filled-arrow)"/>
  <text class="label sequenceFlowLabel" id="sid-3019478F-48D5-4B85-95B1-E192B9BE4183_label" fill="#666666" text-anchor="middle" transform="rotate(0) translate(0, 0)" x="761.0" y="88" style="font-size:11.00px;font-family:sans-serif" stroke-width="0"/>
  <path id="sid-26030150-7369-4B7F-8264-B3ABC62BA735" class="flow sequenceFlow" data-type="sequenceFlow" d="M 627.0 133.0 L 652.0 133.0" fill="#ffffff" stroke="#666666" fill-opacity="0" stroke-width="2.0" style=" marker-end:url(#filled-arrow)"/>
  <text class="label sequenceFlowLabel" id="sid-26030150-7369-4B7F-8264-B3ABC62BA735_label" fill="#666666" text-anchor="middle" transform="rotate(0) translate(0, 0)" x="627.0" y="144" style="font-size:11.00px;font-family:sans-serif" stroke-width="0"/>
  <path id="sid-7971C38C-2EF5-41F2-A24E-3FFCA069EDBF" class="flow sequenceFlow" data-type="sequenceFlow" d="M 129.0 133.0 L 167.0 133.0" fill="#ffffff" stroke="#666666" fill-opacity="0" stroke-width="2.0" style=" marker-end:url(#filled-arrow)"/>
  <text class="label sequenceFlowLabel" id="sid-7971C38C-2EF5-41F2-A24E-3FFCA069EDBF_label" fill="#666666" text-anchor="middle" transform="rotate(0) translate(0, 0)" x="129.0" y="144" style="font-size:11.00px;font-family:sans-serif" stroke-width="0"/>
  <path id="invoiceApproved" class="flow sequenceFlow" data-type="sequenceFlow" d="M 543.0 535.0 L 602.0 535.0 L 602.0 695.0 L 653.0 695.0" fill="#ffffff" stroke="#666666" fill-opacity="0" stroke-width="2.0" style=" marker-end:url(#filled-arrow)" data-condition="${approved}"/>
  <text class="label sequenceFlowLabel" id="invoiceApproved_label" fill="#666666" text-anchor="middle" transform="rotate(0) translate(0, 0)" x="561.5" y="551" style="font-size:11.00px;font-family:Segoe UI,sans-serif" stroke-width="0">yes</text>
  <path id="invoiceNotApproved" class="flow sequenceFlow" data-type="sequenceFlow" d="M 523.0 515.0 L 523.0 362.0 L 563.0 362.0" fill="#ffffff" stroke="#666666" fill-opacity="0" stroke-width="2.0" style=" marker-end:url(#filled-arrow)" data-condition="${!approved}"/>
  <text class="label sequenceFlowLabel" id="invoiceNotApproved_label" fill="#666666" text-anchor="middle" transform="rotate(0) translate(0, 0)" x="539.5" y="505" style="font-size:11.00px;font-family:Segoe UI,sans-serif" stroke-width="0">no</text>
  <path id="reviewSuccessful" class="flow sequenceFlow" data-type="sequenceFlow" d="M 728.0 342.0 L 728.0 305.0 L 418.0 305.0 L 418.0 495.0" fill="#ffffff" stroke="#666666" fill-opacity="0" stroke-width="2.0" style=" marker-end:url(#filled-arrow)" data-condition="${clarified == 'yes'}"/>
  <text class="label sequenceFlowLabel" id="reviewSuccessful_label" fill="#666666" text-anchor="middle" transform="rotate(0) translate(0, 0)" x="746.5" y="332" style="font-size:11.00px;font-family:Segoe UI,sans-serif" stroke-width="0">yes</text>
  <path id="reviewNotSuccessful" class="flow sequenceFlow" data-type="sequenceFlow" d="M 748.0 362.0 L 941.0 362.0" fill="#ffffff" stroke="#666666" fill-opacity="0" stroke-width="2.0" style=" marker-end:url(#filled-arrow)" data-condition="${clarified == 'no'}"/>
  <text class="label sequenceFlowLabel" id="reviewNotSuccessful_label" fill="#666666" text-anchor="middle" transform="rotate(0) translate(0, 0)" x="764.5" y="378" style="font-size:11.00px;font-family:Segoe UI,sans-serif" stroke-width="0">no</text>
  <path id="sequenceFlow_180" class="flow sequenceFlow" data-type="sequenceFlow" d="M 468.0 535.0 L 503.0 535.0" fill="#ffffff" stroke="#666666" fill-opacity="0" stroke-width="2.0" style=" marker-end:url(#filled-arrow)"/>
  <text class="label sequenceFlowLabel" id="sequenceFlow_180_label" fill="#666666" text-anchor="middle" transform="rotate(0) translate(0, 0)" x="468.0" y="546" style="font-size:11.00px;font-family:sans-serif" stroke-width="0"/>
  <path id="sequenceFlow_183" class="flow sequenceFlow" data-type="sequenceFlow" d="M 663.0 362.0 L 708.0 362.0" fill="#ffffff" stroke="#666666" fill-opacity="0" stroke-width="2.0" style=" marker-end:url(#filled-arrow)"/>
  <text class="label sequenceFlowLabel" id="sequenceFlow_183_label" fill="#666666" text-anchor="middle" transform="rotate(0) translate(0, 0)" x="663.0" y="373" style="font-size:11.00px;font-family:sans-serif" stroke-width="0"/>
  <path id="sequenceFlow_178" class="flow sequenceFlow" data-type="sequenceFlow" d="M 295.0 362.0 L 325.0 362.0 L 325.0 535.0 L 368.0 535.0" fill="#ffffff" stroke="#666666" fill-opacity="0" stroke-width="2.0" style=" marker-end:url(#filled-arrow)"/>
  <text class="label sequenceFlowLabel" id="sequenceFlow_178_label" fill="#666666" text-anchor="middle" transform="rotate(0) translate(0, 0)" x="295.0" y="373" style="font-size:11.00px;font-family:sans-serif" stroke-width="0"/>
  <path id="SequenceFlow_2" class="flow sequenceFlow" data-type="sequenceFlow" d="M 753.0 695.0 L 795.0 695.0" fill="#ffffff" stroke="#666666" fill-opacity="0" stroke-width="2.0" style=" marker-end:url(#filled-arrow)"/>
  <text class="label sequenceFlowLabel" id="SequenceFlow_2_label" fill="#666666" text-anchor="middle" transform="rotate(0) translate(0, 0)" x="753.0" y="706" style="font-size:11.00px;font-family:sans-serif" stroke-width="0"/>
  <path id="SequenceFlow_3" class="flow sequenceFlow" data-type="sequenceFlow" d="M 895.0 695.0 L 941.0 695.0" fill="#ffffff" stroke="#666666" fill-opacity="0" stroke-width="2.0" style=" marker-end:url(#filled-arrow)"/>
  <text class="label sequenceFlowLabel" id="SequenceFlow_3_label" fill="#666666" text-anchor="middle" transform="rotate(0) translate(0, 0)" x="895.0" y="706" style="font-size:11.00px;font-family:sans-serif" stroke-width="0"/>
  <path id="SequenceFlow_1" class="flow sequenceFlow" data-type="sequenceFlow" d="M 140.0 362.0 L 195.0 362.0" fill="#ffffff" stroke="#666666" fill-opacity="0" stroke-width="2.0" style=" marker-end:url(#filled-arrow)"/>
  <text class="label sequenceFlowLabel" id="SequenceFlow_1_label" fill="#666666" text-anchor="middle" transform="rotate(0) translate(0, 0)" x="140.0" y="373" style="font-size:11.00px;font-family:sans-serif" stroke-width="0"/>
  <path id="sid-F0D29912-929D-491C-8D23-73BD80CF980A" class="gateway eventBasedGateway" data-type="eventBasedGateway" d="M 652.5 133 l 20,-20 l 20,20 l -20,20 l -20,-20 Z" fill="#b98b00" stroke="#666666" stroke-width="1.0"/>
  <text class="label eventBasedGatewayLabel" id="sid-F0D29912-929D-491C-8D23-73BD80CF980A_label" fill="#666666" text-anchor="middle" transform="rotate(0, 672.5, 167)" x="672.5" y="164" style="font-size:11.00px;font-family:sans-serif" stroke-width="0"/>
  <text class="label eventBasedGatewayLabel" id="sid-F0D29912-929D-491C-8D23-73BD80CF980A_label" fill="#666666" text-anchor="middle" transform="rotate(0, 672.5, 167)" x="672.5" y="175" style="font-size:11.00px;font-family:sans-serif" stroke-width="0"/>
  <text class="label eventBasedGatewayLabel" id="sid-F0D29912-929D-491C-8D23-73BD80CF980A_label" fill="#666666" text-anchor="middle" transform="rotate(0, 672.5, 167)" x="672.5" y="186" style="font-size:11.00px;font-family:sans-serif" stroke-width="0"/>
  <g class="eventBasedGateway" id="sid-F0D29912-929D-491C-8D23-73BD80CF980A" transform="translate(652.5,113.0) scale(0.019)">
    <path d="
    m 1008.9358,339.64943 c -104.72556,-0.19598 -209.46382,22.87793 -303.21382,69.75293 -253.5,121.49999 -406.5,413.99999 -370.5,691.50004 34.5,328.5 342,600 672.00002,594 18,0 34.5,-1.5 52.5,-3 264,-15 504,-204 589.5,-454.5 93,-252 9,-552.00005 -192,-729.00005 -121.5703,-111.51561 -284.9142,-168.4472 -448.2862,-168.75292 z m 2.3145,73.0371 c 69.8812,-0.1961 139.8311,11.41114 205.9717,35.71583 255,88.49999 421.5,362.99999 393,630.00004 -24,301.5 -307.5,553.5 -610.50002,543 -175.5,-1.5 -346.5,-85.5 -457.5,-220.5 -175.5,-201 -181.5,-519.00005 -27,-735.00005 C 625.37823,503.97267 818.04925,413.22871 1011.2503,412.68653 Z m -6.2637,65.04785 c -36.94837,-0.19981 -73.9365,3.4336 -110.26462,11.16797 -250.5,49.5 -438,297 -424.5,550.50005 4.5,279 262.5,525 541.50002,516 129,0 258,-51 354,-136.5 183,-154.5 231,-435 124.5,-645.00005 -87.3281,-182.25 -285.714,-295.08897 -485.2354,-296.16797 z m 1.7022,71.96192 c 20.1983,-0.17702 40.4238,1.03417 60.5332,3.70605 229.5,22.5 412.5,240 408,468.00005 4.5,246 -220.5,468 -466.5,462 -84.00002,0 -166.50002,-22.5 -238.50002,-64.5 -186,-103.5 -271.5,-345 -207,-546.00005 55.73438,-190.3125 248.21593,-321.49488 443.46682,-323.20605 z m 2.247,22.52344 -13.89546,10.08398 -402.83497,292.43555 159.17578,489.47753 h 515.10355 l 159.1758,-489.47753 z m 0,58.37694 361.1573,262.18067 -137.9473,424.21585 H 785.72881 L 647.78156,892.77735 Z
  "/>
  </g>
  <path id="invoice_approved" class="gateway exclusiveGateway" data-type="exclusiveGateway" d="M 503.0 535 l 20,-20 l 20,20 l -20,20 l -20,-20 Z" fill="#b98b00" stroke="#666666" stroke-width="1.0"/>
  <text class="label exclusiveGatewayLabel" id="invoice_approved_label" fill="#666666" text-anchor="middle" transform="rotate(0) translate(0, 0)" x="523" y="566" style="font-size:11.00px;font-family:Segoe UI,sans-serif" stroke-width="0">Invoice</text>
  <text class="label exclusiveGatewayLabel" id="invoice_approved_label" fill="#666666" text-anchor="middle" transform="rotate(0) translate(0, 14)" x="523" y="566" style="font-size:11.00px;font-family:Segoe UI,sans-serif" stroke-width="0">approved?</text>
  <g class="exclusiveGateway" id="invoice_approved" transform="translate(503.0,515.0) scale(0.019)">
    <path d=""/>
  </g>
  <path id="reviewSuccessful_gw" class="gateway exclusiveGateway" data-type="exclusiveGateway" d="M 708.0 362 l 20,-20 l 20,20 l -20,20 l -20,-20 Z" fill="#b98b00" stroke="#666666" stroke-width="1.0"/>
  <text class="label exclusiveGatewayLabel" id="reviewSuccessful_gw_label" fill="#666666" text-anchor="middle" transform="rotate(0) translate(0, 0)" x="728.5" y="393" style="font-size:11.00px;font-family:Segoe UI,sans-serif" stroke-width="0">Review</text>
  <text class="label exclusiveGatewayLabel" id="reviewSuccessful_gw_label" fill="#666666" text-anchor="middle" transform="rotate(0) translate(0, 14)" x="728.5" y="393" style="font-size:11.00px;font-family:Segoe UI,sans-serif" stroke-width="0">successful?</text>
  <g class="exclusiveGateway" id="reviewSuccessful_gw" transform="translate(708.0,342.0) scale(0.019)">
    <path d=""/>
  </g>
  <g>
    <rect id="archiveInvoice" class="task serviceTask collapsed" data-name="Archive
Invoice" data-type="serviceTask" stroke="#666666" stroke-width="1px" fill="#c2d7eb" height="80.0" rx="5" ry="5" width="100.0" x="795.0" y="655.0">
      <title>Synchronous service type: webService</title>
    </rect>
    <path class="icon serviceTask" data-called-element="" transform="translate(795.0,650) scale(0.025)" d="
    m 502.79102,430.86719 c -0.029,23.16793 0.007,46.33803 0.0664,69.50586 -19.75822,5.58977 -37.81291,13.3895 -54.86328,22.94531 l -49.83398,-49.23438 -93.17969,93.72071 49.82812,49.22461 c -9.62553,17.25239 -17.14126,35.5876 -22.38671,54.63086 l -70.58594,0.1289 0,131.99219 71.32226,-0.25586 c 6.5223,25.86049 20.71775,49.10841 34.85547,69.89649 l 0,-113.85547 -62.3457,0.22265 0,-44.24804 62.03515,-0.11133 3.48243,-17.64063 c 5.07807,-25.72661 15.13518,-50.25154 29.58398,-72.19531 l 9.88477,-15.01172 -43.58594,-43.05664 31.36914,-31.55078 43.66406,43.13867 14.85938,-9.91601 c 22.70793,-14.98185 47.5452,-25.02345 72.3125,-30.25391 l 17.50781,-3.63477 -0.1582,-60.60547 45.06445,0 -0.34766,60.28907 17.80078,0 100.44532,0 c -11.09189,-13.23987 -57.05937,-30.46883 -74.20899,-35.26953 l 0.39844,-68.85352 c -49.09303,-0.001 -87.58233,0.002 -132.98437,-0.002 z M 627.5,557.14258 l 0.18164,69.50195 c -19.75895,5.58977 -37.81442,13.3904 -54.86523,22.94727 l -49.83399,-49.23438 -93.18164,93.7207 49.83008,49.22461 c -9.62596,17.25334 -17.14323,35.58672 -22.38867,54.63086 l -70.58399,0.12696 0,131.99414 71.32227,-0.25586 c 5.61403,19.5727 13.39624,37.44691 22.93359,54.32031 l -51.02929,50.83006 94.21875,92.5996 50.84765,-50.6113 c 17.41694,9.6713 35.9307,17.1805 55.125,22.4063 l 0.0332,71.832 c 45.33069,0.3969 93.59252,0.1916 132.33398,0.1875 l 0,-72.6817 c 19.77359,-5.5754 37.88508,-13.4324 54.93945,-22.9843 l 50.80664,50.0937 93.24219,-93.6035 -50.91211,-50.17188 c 9.64765,-17.29877 17.16457,-35.6625 22.41602,-54.72656 l 69.11716,-0.42773 0,-131.86524 -69.89255,0.42383 c -5.6184,-19.59148 -13.28919,-37.34286 -22.95313,-54.32812 L 957.5,692.67578 863.33398,599.91797 815.10352,648.31445 c -17.34555,-9.59252 -35.7847,-17.0838 -54.9043,-22.3164 l 0.39648,-68.85547 -133.09375,0 z m 43.94727,43.83398 45.06445,0 -0.34766,60.29102 17.79883,3.49219 c 25.84421,5.0715 50.61607,15.11631 72.64844,29.47656 l 14.91797,9.72461 42.08984,-42.23242 31.69727,31.2207 -42.15039,42.25781 10.14257,14.96875 c 14.88113,22.46311 24.75154,46.74626 30.32422,71.75 l 3.66602,17.53906 60.91601,-0.36914 0,44.20118 -60.57617,0.37304 -3.47851,17.54102 c -5.10956,25.75548 -15.14566,50.27988 -29.61914,72.26172 l -9.89454,15.03125 44.6211,43.97269 -31.36328,31.4843 -44.625,-44 -14.83594,9.8555 c -22.71504,14.8447 -47.35354,25.1247 -72.21289,30.1895 l -17.625,3.5195 0,64.0058 c -12.04845,0.03 -25.19108,0.01 -44.68945,-0.017 l -0.0293,-63.5254 -17.70313,-3.4571 c -25.88034,-5.0538 -50.60932,-15.0522 -72.60351,-29.4726 l -14.875,-9.7539 -44.79688,44.5918 -31.70117,-31.1563 44.85938,-44.68551 -10.23633,-15.03125 C 511.93509,952.6096 502.0822,928.30086 496.5,903.32617 l -3.66406,-17.48633 -62.34571,0.22266 0,-44.24609 62.03516,-0.11329 3.48242,-17.63867 c 5.07811,-25.7268 15.13538,-50.25378 29.58399,-72.19726 l 9.88476,-15.01172 -43.58594,-43.05664 31.36719,-31.55078 43.66602,43.13867 14.85937,-9.91406 c 22.73674,-14.88428 46.86454,-24.76034 72.3125,-30.25391 l 17.50782,-3.63477 z m 23.27148,161.05664 c -54.25711,0 -98.71094,44.45573 -98.71094,98.71289 0,54.25717 44.45383,98.70899 98.71094,98.70899 54.25711,0 98.71094,-44.45182 98.71094,-98.70899 0,-54.25716 -44.45383,-98.71289 -98.71094,-98.71289 z m 0,43.83399 c 30.56804,0 54.87891,24.31093 54.87891,54.8789 0,30.56798 -24.31087,54.87696 -54.87891,54.87696 -30.56804,0 -54.87695,-24.30898 -54.87695,-54.87696 0,-30.56797 24.30891,-54.8789 54.87695,-54.8789 z
  "/>
    <text class="label serviceTaskLabel" id="archiveInvoice_label" fill="#666666" text-anchor="middle" transform="rotate(0) translate(0, 0)" x="845.5" y="689" style="font-size:11.00px;font-family:Segoe UI,sans-serif" stroke-width="0">Archive</text>
    <text class="label serviceTaskLabel" id="archiveInvoice_label" fill="#666666" text-anchor="middle" transform="rotate(0) translate(0, 14)" x="845.5" y="689" style="font-size:11.00px;font-family:Segoe UI,sans-serif" stroke-width="0">Invoice</text>
  </g>
  <rect id="archiveInvoiceIssueBG" class="issue" fill="yellow" height="24" width="24" rx="2" ry="2" visibility="hidden" x="783" y="643"/>
  <g id="archiveInvoiceIssue" class="issue" transform="translate(785,645) scale(0.04)" visibility="hidden">
    <path fill="#ff6c06" d="M256 46.387l214.551 427.613h-429.103l214.552-427.613zM256 0c-11.035 0-22.070 7.441-30.442 22.324l-218.537 435.556c-16.743 29.766-2.5 54.12 31.652 54.12h434.654c34.15 0 48.396-24.354 31.65-54.12h0.001l-218.537-435.556c-8.371-14.883-19.406-22.324-30.441-22.324v0z"/>
    <path fill="#ff6c06" d="M288 416c0 17.673-14.327 32-32 32s-32-14.327-32-32c0-17.673 14.327-32 32-32s32 14.327 32 32z"/>
    <path fill="#ff6c06" d="M256 352c-17.673 0-32-14.327-32-32v-96c0-17.673 14.327-32 32-32s32 14.327 32 32v96c0 17.673-14.327 32-32 32z"/>
  </g>
  <g>
    <rect id="sid-05039C4F-59F7-4CBD-8C84-D35E27C7B5EF" class="task task collapsed" data-name="Scan Invoice" data-type="task" stroke="#666666" stroke-width="1px" fill="#c2d7eb" height="80.0" rx="5" ry="5" width="100.0" x="167.0" y="93.0">
      <title> n/a </title>
    </rect>
    <path class="icon task" data-called-element=""/>
    <text class="label taskLabel" id="sid-05039C4F-59F7-4CBD-8C84-D35E27C7B5EF_label" fill="#666666" text-anchor="middle" transform="rotate(0, 217.5, 139)" x="217.5" y="136" style="font-size:11.00px;font-family:Segoe UI,sans-serif" stroke-width="0">Scan Invoice</text>
    <text class="label taskLabel" id="sid-05039C4F-59F7-4CBD-8C84-D35E27C7B5EF_label" fill="#666666" text-anchor="middle" transform="rotate(0, 217.5, 139)" x="217.5" y="147" style="font-size:11.00px;font-family:Segoe UI,sans-serif" stroke-width="0"/>
    <text class="label taskLabel" id="sid-05039C4F-59F7-4CBD-8C84-D35E27C7B5EF_label" fill="#666666" text-anchor="middle" transform="rotate(0, 217.5, 139)" x="217.5" y="158" style="font-size:11.00px;font-family:Segoe UI,sans-serif" stroke-width="0"/>
  </g>
  <rect id="sid-05039C4F-59F7-4CBD-8C84-D35E27C7B5EFIssueBG" class="issue" fill="yellow" height="24" width="24" rx="2" ry="2" visibility="hidden" x="155" y="81"/>
  <g id="sid-05039C4F-59F7-4CBD-8C84-D35E27C7B5EFIssue" class="issue" transform="translate(157,83) scale(0.04)" visibility="hidden">
    <path fill="#ff6c06" d="M256 46.387l214.551 427.613h-429.103l214.552-427.613zM256 0c-11.035 0-22.070 7.441-30.442 22.324l-218.537 435.556c-16.743 29.766-2.5 54.12 31.652 54.12h434.654c34.15 0 48.396-24.354 31.65-54.12h0.001l-218.537-435.556c-8.371-14.883-19.406-22.324-30.441-22.324v0z"/>
    <path fill="#ff6c06" d="M288 416c0 17.673-14.327 32-32 32s-32-14.327-32-32c0-17.673 14.327-32 32-32s32 14.327 32 32z"/>
    <path fill="#ff6c06" d="M256 352c-17.673 0-32-14.327-32-32v-96c0-17.673 14.327-32 32-32s32 14.327 32 32v96c0 17.673-14.327 32-32 32z"/>
  </g>
  <g>
    <rect id="sid-CFAC8502-0E69-4F08-BE36-8499B8C0FA44" class="task task collapsed" data-name="Archive
original" data-type="task" stroke="#666666" stroke-width="1px" fill="#c2d7eb" height="80.0" rx="5" ry="5" width="100.0" x="315.0" y="93.0">
      <title> n/a </title>
    </rect>
    <path class="icon task" data-called-element=""/>
    <text class="label taskLabel" id="sid-CFAC8502-0E69-4F08-BE36-8499B8C0FA44_label" fill="#666666" text-anchor="middle" transform="rotate(0) translate(0, 0)" x="365.5" y="127" style="font-size:11.00px;font-family:Segoe UI,sans-serif" stroke-width="0">Archive</text>
    <text class="label taskLabel" id="sid-CFAC8502-0E69-4F08-BE36-8499B8C0FA44_label" fill="#666666" text-anchor="middle" transform="rotate(0) translate(0, 14)" x="365.5" y="127" style="font-size:11.00px;font-family:Segoe UI,sans-serif" stroke-width="0">original</text>
  </g>
  <rect id="sid-CFAC8502-0E69-4F08-BE36-8499B8C0FA44IssueBG" class="issue" fill="yellow" height="24" width="24" rx="2" ry="2" visibility="hidden" x="303" y="81"/>
  <g id="sid-CFAC8502-0E69-4F08-BE36-8499B8C0FA44Issue" class="issue" transform="translate(305,83) scale(0.04)" visibility="hidden">
    <path fill="#ff6c06" d="M256 46.387l214.551 427.613h-429.103l214.552-427.613zM256 0c-11.035 0-22.070 7.441-30.442 22.324l-218.537 435.556c-16.743 29.766-2.5 54.12 31.652 54.12h434.654c34.15 0 48.396-24.354 31.65-54.12h0.001l-218.537-435.556c-8.371-14.883-19.406-22.324-30.441-22.324v0z"/>
    <path fill="#ff6c06" d="M288 416c0 17.673-14.327 32-32 32s-32-14.327-32-32c0-17.673 14.327-32 32-32s32 14.327 32 32z"/>
    <path fill="#ff6c06" d="M256 352c-17.673 0-32-14.327-32-32v-96c0-17.673 14.327-32 32-32s32 14.327 32 32v96c0 17.673-14.327 32-32 32z"/>
  </g>
  <g>
    <rect id="sid-64AFCE49-96A2-4A51-96CB-9DF689C37DAD" class="task task collapsed" data-name="Assign approver" data-type="task" stroke="#666666" stroke-width="1px" fill="#c2d7eb" height="80.0" rx="5" ry="5" width="100.0" x="527.5" y="93.0">
      <title> n/a </title>
    </rect>
    <path class="icon task" data-called-element=""/>
    <text class="label taskLabel" id="sid-64AFCE49-96A2-4A51-96CB-9DF689C37DAD_label" fill="#666666" text-anchor="middle" transform="rotate(0, 577, 139)" x="577" y="136" style="font-size:11.00px;font-family:Segoe UI,sans-serif" stroke-width="0">Assign approver</text>
    <text class="label taskLabel" id="sid-64AFCE49-96A2-4A51-96CB-9DF689C37DAD_label" fill="#666666" text-anchor="middle" transform="rotate(0, 577, 139)" x="577" y="147" style="font-size:11.00px;font-family:Segoe UI,sans-serif" stroke-width="0"/>
    <text class="label taskLabel" id="sid-64AFCE49-96A2-4A51-96CB-9DF689C37DAD_label" fill="#666666" text-anchor="middle" transform="rotate(0, 577, 139)" x="577" y="158" style="font-size:11.00px;font-family:Segoe UI,sans-serif" stroke-width="0"/>
  </g>
  <rect id="sid-64AFCE49-96A2-4A51-96CB-9DF689C37DADIssueBG" class="issue" fill="yellow" height="24" width="24" rx="2" ry="2" visibility="hidden" x="515.5" y="81"/>
  <g id="sid-64AFCE49-96A2-4A51-96CB-9DF689C37DADIssue" class="issue" transform="translate(517.5,83) scale(0.04)" visibility="hidden">
    <path fill="#ff6c06" d="M256 46.387l214.551 427.613h-429.103l214.552-427.613zM256 0c-11.035 0-22.070 7.441-30.442 22.324l-218.537 435.556c-16.743 29.766-2.5 54.12 31.652 54.12h434.654c34.15 0 48.396-24.354 31.65-54.12h0.001l-218.537-435.556c-8.371-14.883-19.406-22.324-30.441-22.324v0z"/>
    <path fill="#ff6c06" d="M288 416c0 17.673-14.327 32-32 32s-32-14.327-32-32c0-17.673 14.327-32 32-32s32 14.327 32 32z"/>
    <path fill="#ff6c06" d="M256 352c-17.673 0-32-14.327-32-32v-96c0-17.673 14.327-32 32-32s32 14.327 32 32v96c0 17.673-14.327 32-32 32z"/>
  </g>
  <g>
    <rect id="sid-6FC20E19-AF3A-4A77-8588-2D671C98D93D" class="task task collapsed" data-name="Review and document result" data-type="task" stroke="#666666" stroke-width="1px" fill="#c2d7eb" height="80.0" rx="5" ry="5" width="100.0" x="797.5" y="134.0">
      <title> n/a </title>
    </rect>
    <path class="icon task" data-called-element=""/>
    <text class="label taskLabel" id="sid-6FC20E19-AF3A-4A77-8588-2D671C98D93D_label" fill="#666666" text-anchor="middle" transform="rotate(0, 847.5, 163)" x="847.5" y="160" style="font-size:11.00px;font-family:Segoe UI,sans-serif" stroke-width="0">Review</text>
    <text class="label taskLabel" id="sid-6FC20E19-AF3A-4A77-8588-2D671C98D93D_label" fill="#666666" text-anchor="middle" transform="rotate(0, 847.5, 163)" x="847.5" y="171" style="font-size:11.00px;font-family:Segoe UI,sans-serif" stroke-width="0">and document</text>
    <text class="label taskLabel" id="sid-6FC20E19-AF3A-4A77-8588-2D671C98D93D_label" fill="#666666" text-anchor="middle" transform="rotate(0, 847.5, 163)" x="847.5" y="182" style="font-size:11.00px;font-family:Segoe UI,sans-serif" stroke-width="0">result</text>
    <text class="label taskLabel" id="sid-6FC20E19-AF3A-4A77-8588-2D671C98D93D_label" fill="#666666" text-anchor="middle" transform="rotate(0, 847.5, 163)" x="847.5" y="193" style="font-size:11.00px;font-family:Segoe UI,sans-serif" stroke-width="0"/>
    <text class="label taskLabel" id="sid-6FC20E19-AF3A-4A77-8588-2D671C98D93D_label" fill="#666666" text-anchor="middle" transform="rotate(0, 847.5, 163)" x="847.5" y="204" style="font-size:11.00px;font-family:Segoe UI,sans-serif" stroke-width="0"/>
    <text class="label taskLabel" id="sid-6FC20E19-AF3A-4A77-8588-2D671C98D93D_label" fill="#666666" text-anchor="middle" transform="rotate(0, 847.5, 163)" x="847.5" y="215" style="font-size:11.00px;font-family:Segoe UI,sans-serif" stroke-width="0"/>
  </g>
  <rect id="sid-6FC20E19-AF3A-4A77-8588-2D671C98D93DIssueBG" class="issue" fill="yellow" height="24" width="24" rx="2" ry="2" visibility="hidden" x="785.5" y="122"/>
  <g id="sid-6FC20E19-AF3A-4A77-8588-2D671C98D93DIssue" class="issue" transform="translate(787.5,124) scale(0.04)" visibility="hidden">
    <path fill="#ff6c06" d="M256 46.387l214.551 427.613h-429.103l214.552-427.613zM256 0c-11.035 0-22.070 7.441-30.442 22.324l-218.537 435.556c-16.743 29.766-2.5 54.12 31.652 54.12h434.654c34.15 0 48.396-24.354 31.65-54.12h0.001l-218.537-435.556c-8.371-14.883-19.406-22.324-30.441-22.324v0z"/>
    <path fill="#ff6c06" d="M288 416c0 17.673-14.327 32-32 32s-32-14.327-32-32c0-17.673 14.327-32 32-32s32 14.327 32 32z"/>
    <path fill="#ff6c06" d="M256 352c-17.673 0-32-14.327-32-32v-96c0-17.673 14.327-32 32-32s32 14.327 32 32v96c0 17.673-14.327 32-32 32z"/>
  </g>
  <g>
    <rect id="approveInvoice" class="task userTask collapsed" data-name="Approve Invoice" data-resource=" n/a " data-type="userTask" stroke="#666666" stroke-width="1px" fill="#c2d7eb" height="80.0" rx="5" ry="5" width="100.0" x="368.0" y="495.0">
      <title> n/a </title>
    </rect>
    <path class="icon userTask" data-called-element="" transform="translate(363,490) scale(0.02)" d="
    M 991.75,365 C 814.47261,365 687.65259,501.28069 687.29688,656.51367 l 0,0.0449 0,0.043 c 0.0112,46.94485 12.71406,96.48986 32.56054,141.17774 14.33025,32.26709 32.14702,61.93151 53.85742,85.69531 C 644.68593,927.61788 493.52222,1000.2699 417.11719,1143.5293 L 413,1151.25 l 0,463.75 1157.5,0 0,-463.75 -4.1172,-7.7207 c -75.3061,-141.1989 -223.1988,-213.74978 -350.9805,-258.07618 62.3794,-63.43263 80.7808,-145.30578 80.8008,-228.85156 l 0,-0.043 0,-0.0449 C 1295.8474,501.2807 1169.0274,365 991.75,365 z M 870.70898,530.29883 c 8.19443,0.0206 17.19117,0.29432 27.10938,0.8789 79.02308,4.65771 105.61894,18.88222 126.06254,32.37305 20.4435,13.49083 34.8553,26.33317 88.8828,27.9082 l 0.016,0 0.018,0 c 42.1017,-1.5748 62.3491,-9.0811 76.8691,-17.58398 5.8837,-3.44545 10.8241,-7.02722 15.8867,-10.44727 13.3814,28.68227 20.5671,60.38893 20.6485,93.20313 -0.028,93.43999 -16.0919,158.87652 -101.7676,212.42383 l 8.3809,63.16992 c 17.8327,5.41537 36.2658,11.35733 54.9746,17.87305 2.6128,10.90011 5.6316,25.19633 7.6621,40.39453 2.1271,15.92241 2.9637,32.48881 1.6523,44.92771 -1.3114,12.4389 -5.1734,19.1539 -5.8515,19.8321 -43.5469,43.5468 -120.8464,68.9433 -199.252,68.9433 -78.40557,0 -155.70507,-25.3965 -199.25195,-68.9433 -0.67811,-0.6782 -4.54017,-7.3932 -5.85157,-19.8321 -1.31139,-12.4389 -0.47481,-29.0053 1.65235,-44.92771 2.04162,-15.28211 5.08445,-29.66261 7.70703,-40.58399 18.52194,-6.44112 36.76978,-12.32071 54.42969,-17.68359 l 4.99609,-67.6875 c -4.068,-5.21708 -8.21297,-8.67324 -13.16016,-12.38477 -19.12128,-14.34532 -42.30994,-45.90379 -58.68945,-82.78515 -16.37367,-36.86821 -26.51791,-79.00946 -26.5332,-112.74414 0.10174,-40.44431 10.98577,-79.211 30.97656,-112.69727 3.57689,-1.33139 7.34871,-2.73853 11.58789,-4.13281 14.90781,-4.90324 35.33655,-9.58342 70.8457,-9.49414 z M 719.36133,979.85547 c -0.0629,0.45883 -0.13379,0.90664 -0.19531,1.36719 -2.58689,19.36354 -4.10696,40.44054 -1.88282,61.53714 2.22414,21.0966 7.79068,43.8102 25.96875,61.9882 62.04773,62.0478 155.95092,89.4473 248.74805,89.4473 92.7971,0 186.7003,-27.3995 248.748,-89.4473 18.1781,-18.178 23.7447,-40.8916 25.9688,-61.9882 2.2241,-21.0967 0.7041,-42.1736 -1.8828,-61.53714 -0.051,-0.38161 -0.1102,-0.75238 -0.1621,-1.13282 94.3337,41.36896 185.5148,100.61546 235.8281,189.07426 l 0,375.8359 -167.5,0 0,-265 -70,0 0,265 -544,0 0,-265 -70,0 0,265 -166,0 0,-375.8359 c 50.40811,-88.6256 141.83798,-147.9292 236.36133,-189.30863 z
  "/>
    <text class="label userTaskLabel" id="approveInvoice_label" fill="#666666" text-anchor="middle" transform="rotate(0, 418, 532)" x="418" y="529" style="font-size:11.00px;font-family:Segoe UI,sans-serif" stroke-width="0">Approve</text>
    <text class="label userTaskLabel" id="approveInvoice_label" fill="#666666" text-anchor="middle" transform="rotate(0, 418, 532)" x="418" y="540" style="font-size:11.00px;font-family:Segoe UI,sans-serif" stroke-width="0">Invoice</text>
    <text class="label userTaskLabel" id="approveInvoice_label" fill="#666666" text-anchor="middle" transform="rotate(0, 418, 532)" x="418" y="551" style="font-size:11.00px;font-family:Segoe UI,sans-serif" stroke-width="0"/>
    <text class="label userTaskLabel" id="approveInvoice_label" fill="#666666" text-anchor="middle" transform="rotate(0, 418, 532)" x="418" y="562" style="font-size:11.00px;font-family:Segoe UI,sans-serif" stroke-width="0"/>
  </g>
  <rect id="approveInvoiceIssueBG" class="issue" fill="yellow" height="24" width="24" rx="2" ry="2" visibility="hidden" x="356" y="483"/>
  <g id="approveInvoiceIssue" class="issue" transform="translate(358,485) scale(0.04)" visibility="hidden">
    <path fill="#ff6c06" d="M256 46.387l214.551 427.613h-429.103l214.552-427.613zM256 0c-11.035 0-22.070 7.441-30.442 22.324l-218.537 435.556c-16.743 29.766-2.5 54.12 31.652 54.12h434.654c34.15 0 48.396-24.354 31.65-54.12h0.001l-218.537-435.556c-8.371-14.883-19.406-22.324-30.441-22.324v0z"/>
    <path fill="#ff6c06" d="M288 416c0 17.673-14.327 32-32 32s-32-14.327-32-32c0-17.673 14.327-32 32-32s32 14.327 32 32z"/>
    <path fill="#ff6c06" d="M256 352c-17.673 0-32-14.327-32-32v-96c0-17.673 14.327-32 32-32s32 14.327 32 32v96c0 17.673-14.327 32-32 32z"/>
  </g>
  <g>
    <rect id="assignApprover" class="task userTask collapsed" data-name="Assign
Approver" data-resource=" n/a " data-type="userTask" stroke="#666666" stroke-width="1px" fill="#c2d7eb" height="80.0" rx="5" ry="5" width="100.0" x="195.0" y="322.0">
      <title> n/a </title>
    </rect>
    <path class="icon userTask" data-called-element="" transform="translate(190,317) scale(0.02)" d="
    M 991.75,365 C 814.47261,365 687.65259,501.28069 687.29688,656.51367 l 0,0.0449 0,0.043 c 0.0112,46.94485 12.71406,96.48986 32.56054,141.17774 14.33025,32.26709 32.14702,61.93151 53.85742,85.69531 C 644.68593,927.61788 493.52222,1000.2699 417.11719,1143.5293 L 413,1151.25 l 0,463.75 1157.5,0 0,-463.75 -4.1172,-7.7207 c -75.3061,-141.1989 -223.1988,-213.74978 -350.9805,-258.07618 62.3794,-63.43263 80.7808,-145.30578 80.8008,-228.85156 l 0,-0.043 0,-0.0449 C 1295.8474,501.2807 1169.0274,365 991.75,365 z M 870.70898,530.29883 c 8.19443,0.0206 17.19117,0.29432 27.10938,0.8789 79.02308,4.65771 105.61894,18.88222 126.06254,32.37305 20.4435,13.49083 34.8553,26.33317 88.8828,27.9082 l 0.016,0 0.018,0 c 42.1017,-1.5748 62.3491,-9.0811 76.8691,-17.58398 5.8837,-3.44545 10.8241,-7.02722 15.8867,-10.44727 13.3814,28.68227 20.5671,60.38893 20.6485,93.20313 -0.028,93.43999 -16.0919,158.87652 -101.7676,212.42383 l 8.3809,63.16992 c 17.8327,5.41537 36.2658,11.35733 54.9746,17.87305 2.6128,10.90011 5.6316,25.19633 7.6621,40.39453 2.1271,15.92241 2.9637,32.48881 1.6523,44.92771 -1.3114,12.4389 -5.1734,19.1539 -5.8515,19.8321 -43.5469,43.5468 -120.8464,68.9433 -199.252,68.9433 -78.40557,0 -155.70507,-25.3965 -199.25195,-68.9433 -0.67811,-0.6782 -4.54017,-7.3932 -5.85157,-19.8321 -1.31139,-12.4389 -0.47481,-29.0053 1.65235,-44.92771 2.04162,-15.28211 5.08445,-29.66261 7.70703,-40.58399 18.52194,-6.44112 36.76978,-12.32071 54.42969,-17.68359 l 4.99609,-67.6875 c -4.068,-5.21708 -8.21297,-8.67324 -13.16016,-12.38477 -19.12128,-14.34532 -42.30994,-45.90379 -58.68945,-82.78515 -16.37367,-36.86821 -26.51791,-79.00946 -26.5332,-112.74414 0.10174,-40.44431 10.98577,-79.211 30.97656,-112.69727 3.57689,-1.33139 7.34871,-2.73853 11.58789,-4.13281 14.90781,-4.90324 35.33655,-9.58342 70.8457,-9.49414 z M 719.36133,979.85547 c -0.0629,0.45883 -0.13379,0.90664 -0.19531,1.36719 -2.58689,19.36354 -4.10696,40.44054 -1.88282,61.53714 2.22414,21.0966 7.79068,43.8102 25.96875,61.9882 62.04773,62.0478 155.95092,89.4473 248.74805,89.4473 92.7971,0 186.7003,-27.3995 248.748,-89.4473 18.1781,-18.178 23.7447,-40.8916 25.9688,-61.9882 2.2241,-21.0967 0.7041,-42.1736 -1.8828,-61.53714 -0.051,-0.38161 -0.1102,-0.75238 -0.1621,-1.13282 94.3337,41.36896 185.5148,100.61546 235.8281,189.07426 l 0,375.8359 -167.5,0 0,-265 -70,0 0,265 -544,0 0,-265 -70,0 0,265 -166,0 0,-375.8359 c 50.40811,-88.6256 141.83798,-147.9292 236.36133,-189.30863 z
  "/>
    <text class="label userTaskLabel" id="assignApprover_label" fill="#666666" text-anchor="middle" transform="rotate(0) translate(0, 0)" x="245" y="356" style="font-size:11.00px;font-family:Segoe UI,sans-serif" stroke-width="0">Assign</text>
    <text class="label userTaskLabel" id="assignApprover_label" fill="#666666" text-anchor="middle" transform="rotate(0) translate(0, 14)" x="245" y="356" style="font-size:11.00px;font-family:Segoe UI,sans-serif" stroke-width="0">Approver</text>
  </g>
  <rect id="assignApproverIssueBG" class="issue" fill="yellow" height="24" width="24" rx="2" ry="2" visibility="hidden" x="183" y="310"/>
  <g id="assignApproverIssue" class="issue" transform="translate(185,312) scale(0.04)" visibility="hidden">
    <path fill="#ff6c06" d="M256 46.387l214.551 427.613h-429.103l214.552-427.613zM256 0c-11.035 0-22.070 7.441-30.442 22.324l-218.537 435.556c-16.743 29.766-2.5 54.12 31.652 54.12h434.654c34.15 0 48.396-24.354 31.65-54.12h0.001l-218.537-435.556c-8.371-14.883-19.406-22.324-30.441-22.324v0z"/>
    <path fill="#ff6c06" d="M288 416c0 17.673-14.327 32-32 32s-32-14.327-32-32c0-17.673 14.327-32 32-32s32 14.327 32 32z"/>
    <path fill="#ff6c06" d="M256 352c-17.673 0-32-14.327-32-32v-96c0-17.673 14.327-32 32-32s32 14.327 32 32v96c0 17.673-14.327 32-32 32z"/>
  </g>
  <g>
    <rect id="reviewInvoice" class="task userTask collapsed" data-name="Rechnung klären" data-resource=" n/a " data-type="userTask" stroke="#666666" stroke-width="1px" fill="#c2d7eb" height="80.0" rx="5" ry="5" width="100.0" x="563.0" y="322.0">
      <title> n/a </title>
    </rect>
    <path class="icon userTask" data-called-element="" transform="translate(558,317) scale(0.02)" d="
    M 991.75,365 C 814.47261,365 687.65259,501.28069 687.29688,656.51367 l 0,0.0449 0,0.043 c 0.0112,46.94485 12.71406,96.48986 32.56054,141.17774 14.33025,32.26709 32.14702,61.93151 53.85742,85.69531 C 644.68593,927.61788 493.52222,1000.2699 417.11719,1143.5293 L 413,1151.25 l 0,463.75 1157.5,0 0,-463.75 -4.1172,-7.7207 c -75.3061,-141.1989 -223.1988,-213.74978 -350.9805,-258.07618 62.3794,-63.43263 80.7808,-145.30578 80.8008,-228.85156 l 0,-0.043 0,-0.0449 C 1295.8474,501.2807 1169.0274,365 991.75,365 z M 870.70898,530.29883 c 8.19443,0.0206 17.19117,0.29432 27.10938,0.8789 79.02308,4.65771 105.61894,18.88222 126.06254,32.37305 20.4435,13.49083 34.8553,26.33317 88.8828,27.9082 l 0.016,0 0.018,0 c 42.1017,-1.5748 62.3491,-9.0811 76.8691,-17.58398 5.8837,-3.44545 10.8241,-7.02722 15.8867,-10.44727 13.3814,28.68227 20.5671,60.38893 20.6485,93.20313 -0.028,93.43999 -16.0919,158.87652 -101.7676,212.42383 l 8.3809,63.16992 c 17.8327,5.41537 36.2658,11.35733 54.9746,17.87305 2.6128,10.90011 5.6316,25.19633 7.6621,40.39453 2.1271,15.92241 2.9637,32.48881 1.6523,44.92771 -1.3114,12.4389 -5.1734,19.1539 -5.8515,19.8321 -43.5469,43.5468 -120.8464,68.9433 -199.252,68.9433 -78.40557,0 -155.70507,-25.3965 -199.25195,-68.9433 -0.67811,-0.6782 -4.54017,-7.3932 -5.85157,-19.8321 -1.31139,-12.4389 -0.47481,-29.0053 1.65235,-44.92771 2.04162,-15.28211 5.08445,-29.66261 7.70703,-40.58399 18.52194,-6.44112 36.76978,-12.32071 54.42969,-17.68359 l 4.99609,-67.6875 c -4.068,-5.21708 -8.21297,-8.67324 -13.16016,-12.38477 -19.12128,-14.34532 -42.30994,-45.90379 -58.68945,-82.78515 -16.37367,-36.86821 -26.51791,-79.00946 -26.5332,-112.74414 0.10174,-40.44431 10.98577,-79.211 30.97656,-112.69727 3.57689,-1.33139 7.34871,-2.73853 11.58789,-4.13281 14.90781,-4.90324 35.33655,-9.58342 70.8457,-9.49414 z M 719.36133,979.85547 c -0.0629,0.45883 -0.13379,0.90664 -0.19531,1.36719 -2.58689,19.36354 -4.10696,40.44054 -1.88282,61.53714 2.22414,21.0966 7.79068,43.8102 25.96875,61.9882 62.04773,62.0478 155.95092,89.4473 248.74805,89.4473 92.7971,0 186.7003,-27.3995 248.748,-89.4473 18.1781,-18.178 23.7447,-40.8916 25.9688,-61.9882 2.2241,-21.0967 0.7041,-42.1736 -1.8828,-61.53714 -0.051,-0.38161 -0.1102,-0.75238 -0.1621,-1.13282 94.3337,41.36896 185.5148,100.61546 235.8281,189.07426 l 0,375.8359 -167.5,0 0,-265 -70,0 0,265 -544,0 0,-265 -70,0 0,265 -166,0 0,-375.8359 c 50.40811,-88.6256 141.83798,-147.9292 236.36133,-189.30863 z
  "/>
    <text class="label userTaskLabel" id="reviewInvoice_label" fill="#666666" text-anchor="middle" transform="rotate(0, 613.5, 359)" x="613.5" y="356" style="font-size:11.00px;font-family:Segoe UI,sans-serif" stroke-width="0">Rechnung</text>
    <text class="label userTaskLabel" id="reviewInvoice_label" fill="#666666" text-anchor="middle" transform="rotate(0, 613.5, 359)" x="613.5" y="367" style="font-size:11.00px;font-family:Segoe UI,sans-serif" stroke-width="0">klären</text>
    <text class="label userTaskLabel" id="reviewInvoice_label" fill="#666666" text-anchor="middle" transform="rotate(0, 613.5, 359)" x="613.5" y="378" style="font-size:11.00px;font-family:Segoe UI,sans-serif" stroke-width="0"/>
    <text class="label userTaskLabel" id="reviewInvoice_label" fill="#666666" text-anchor="middle" transform="rotate(0, 613.5, 359)" x="613.5" y="389" style="font-size:11.00px;font-family:Segoe UI,sans-serif" stroke-width="0"/>
  </g>
  <rect id="reviewInvoiceIssueBG" class="issue" fill="yellow" height="24" width="24" rx="2" ry="2" visibility="hidden" x="551" y="310"/>
  <g id="reviewInvoiceIssue" class="issue" transform="translate(553,312) scale(0.04)" visibility="hidden">
    <path fill="#ff6c06" d="M256 46.387l214.551 427.613h-429.103l214.552-427.613zM256 0c-11.035 0-22.070 7.441-30.442 22.324l-218.537 435.556c-16.743 29.766-2.5 54.12 31.652 54.12h434.654c34.15 0 48.396-24.354 31.65-54.12h0.001l-218.537-435.556c-8.371-14.883-19.406-22.324-30.441-22.324v0z"/>
    <path fill="#ff6c06" d="M288 416c0 17.673-14.327 32-32 32s-32-14.327-32-32c0-17.673 14.327-32 32-32s32 14.327 32 32z"/>
    <path fill="#ff6c06" d="M256 352c-17.673 0-32-14.327-32-32v-96c0-17.673 14.327-32 32-32s32 14.327 32 32v96c0 17.673-14.327 32-32 32z"/>
  </g>
  <g>
    <rect id="prepareBankTransfer" class="task userTask collapsed" data-name="Prepare
Bank
Transfer" data-resource="accounting" data-type="userTask" stroke="#666666" stroke-width="1px" fill="#c2d7eb" height="80.0" rx="5" ry="5" width="100.0" x="653.0" y="655.0">
      <title>accounting</title>
    </rect>
    <path class="icon userTask" data-called-element="" transform="translate(648,650) scale(0.02)" d="
    M 991.75,365 C 814.47261,365 687.65259,501.28069 687.29688,656.51367 l 0,0.0449 0,0.043 c 0.0112,46.94485 12.71406,96.48986 32.56054,141.17774 14.33025,32.26709 32.14702,61.93151 53.85742,85.69531 C 644.68593,927.61788 493.52222,1000.2699 417.11719,1143.5293 L 413,1151.25 l 0,463.75 1157.5,0 0,-463.75 -4.1172,-7.7207 c -75.3061,-141.1989 -223.1988,-213.74978 -350.9805,-258.07618 62.3794,-63.43263 80.7808,-145.30578 80.8008,-228.85156 l 0,-0.043 0,-0.0449 C 1295.8474,501.2807 1169.0274,365 991.75,365 z M 870.70898,530.29883 c 8.19443,0.0206 17.19117,0.29432 27.10938,0.8789 79.02308,4.65771 105.61894,18.88222 126.06254,32.37305 20.4435,13.49083 34.8553,26.33317 88.8828,27.9082 l 0.016,0 0.018,0 c 42.1017,-1.5748 62.3491,-9.0811 76.8691,-17.58398 5.8837,-3.44545 10.8241,-7.02722 15.8867,-10.44727 13.3814,28.68227 20.5671,60.38893 20.6485,93.20313 -0.028,93.43999 -16.0919,158.87652 -101.7676,212.42383 l 8.3809,63.16992 c 17.8327,5.41537 36.2658,11.35733 54.9746,17.87305 2.6128,10.90011 5.6316,25.19633 7.6621,40.39453 2.1271,15.92241 2.9637,32.48881 1.6523,44.92771 -1.3114,12.4389 -5.1734,19.1539 -5.8515,19.8321 -43.5469,43.5468 -120.8464,68.9433 -199.252,68.9433 -78.40557,0 -155.70507,-25.3965 -199.25195,-68.9433 -0.67811,-0.6782 -4.54017,-7.3932 -5.85157,-19.8321 -1.31139,-12.4389 -0.47481,-29.0053 1.65235,-44.92771 2.04162,-15.28211 5.08445,-29.66261 7.70703,-40.58399 18.52194,-6.44112 36.76978,-12.32071 54.42969,-17.68359 l 4.99609,-67.6875 c -4.068,-5.21708 -8.21297,-8.67324 -13.16016,-12.38477 -19.12128,-14.34532 -42.30994,-45.90379 -58.68945,-82.78515 -16.37367,-36.86821 -26.51791,-79.00946 -26.5332,-112.74414 0.10174,-40.44431 10.98577,-79.211 30.97656,-112.69727 3.57689,-1.33139 7.34871,-2.73853 11.58789,-4.13281 14.90781,-4.90324 35.33655,-9.58342 70.8457,-9.49414 z M 719.36133,979.85547 c -0.0629,0.45883 -0.13379,0.90664 -0.19531,1.36719 -2.58689,19.36354 -4.10696,40.44054 -1.88282,61.53714 2.22414,21.0966 7.79068,43.8102 25.96875,61.9882 62.04773,62.0478 155.95092,89.4473 248.74805,89.4473 92.7971,0 186.7003,-27.3995 248.748,-89.4473 18.1781,-18.178 23.7447,-40.8916 25.9688,-61.9882 2.2241,-21.0967 0.7041,-42.1736 -1.8828,-61.53714 -0.051,-0.38161 -0.1102,-0.75238 -0.1621,-1.13282 94.3337,41.36896 185.5148,100.61546 235.8281,189.07426 l 0,375.8359 -167.5,0 0,-265 -70,0 0,265 -544,0 0,-265 -70,0 0,265 -166,0 0,-375.8359 c 50.40811,-88.6256 141.83798,-147.9292 236.36133,-189.30863 z
  "/>
    <text class="label userTaskLabel" id="prepareBankTransfer_label" fill="#666666" text-anchor="middle" transform="rotate(0) translate(0, 0)" x="703.5" y="681" style="font-size:11.00px;font-family:Segoe UI,sans-serif" stroke-width="0">Prepare</text>
    <text class="label userTaskLabel" id="prepareBankTransfer_label" fill="#666666" text-anchor="middle" transform="rotate(0) translate(0, 14)" x="703.5" y="681" style="font-size:11.00px;font-family:Segoe UI,sans-serif" stroke-width="0">Bank</text>
    <text class="label userTaskLabel" id="prepareBankTransfer_label" fill="#666666" text-anchor="middle" transform="rotate(0) translate(0, 28)" x="703.5" y="681" style="font-size:11.00px;font-family:Segoe UI,sans-serif" stroke-width="0">Transfer</text>
  </g>
  <rect id="prepareBankTransferIssueBG" class="issue" fill="yellow" height="24" width="24" rx="2" ry="2" visibility="hidden" x="641" y="643"/>
  <g id="prepareBankTransferIssue" class="issue" transform="translate(643,645) scale(0.04)" visibility="hidden">
    <path fill="#ff6c06" d="M256 46.387l214.551 427.613h-429.103l214.552-427.613zM256 0c-11.035 0-22.070 7.441-30.442 22.324l-218.537 435.556c-16.743 29.766-2.5 54.12 31.652 54.12h434.654c34.15 0 48.396-24.354 31.65-54.12h0.001l-218.537-435.556c-8.371-14.883-19.406-22.324-30.441-22.324v0z"/>
    <path fill="#ff6c06" d="M288 416c0 17.673-14.327 32-32 32s-32-14.327-32-32c0-17.673 14.327-32 32-32s32 14.327 32 32z"/>
    <path fill="#ff6c06" d="M256 352c-17.673 0-32-14.327-32-32v-96c0-17.673 14.327-32 32-32s32 14.327 32 32v96c0 17.673-14.327 32-32 32z"/>
  </g>
  <circle id="sid-36EA43D1-0FE6-4197-AC57-7A43785B784B" class="event startEvent" data-type="startEvent" cx="114" cy="133" fill="#6db700" r="15" stroke="#666666" stroke-width="2">
    <title>Message:  n/a </title>
  </circle>
  <text class="label startEventLabel" id="sid-36EA43D1-0FE6-4197-AC57-7A43785B784B_label" fill="#666666" text-anchor="middle" transform="rotate(0) translate(0, 0)" x="114.5" y="159" style="font-size:11.00px;font-family:Segoe UI,sans-serif" stroke-width="0">Invoice</text>
  <text class="label startEventLabel" id="sid-36EA43D1-0FE6-4197-AC57-7A43785B784B_label" fill="#666666" text-anchor="middle" transform="rotate(0) translate(0, 14)" x="114.5" y="159" style="font-size:11.00px;font-family:Segoe UI,sans-serif" stroke-width="0">received</text>
  <g class="messagestartEvent" id="sid-36EA43D1-0FE6-4197-AC57-7A43785B784B" transform="translate(104,121) scale(0.03)">
    <path d="
    m 0,155.99997 c 0,213.36589 8.677966,331.27411 8.677966,544.64001 279.750004,0 420.652544,0 700.402544,0 0,-213.3659 8.67797,-322.59615 8.67797,-535.96204 -279.75,0 -438.00848,-8.67797 -717.75848,-8.67797 z m 125.68783,56.61408 c 155.43814,0 310.87631,0 466.31441,0 -82.5961,50.82447 -165.1995,162.39825 -247.7853,174.57169 C 271.37659,328.99182 198.53197,270.80323 125.68783,212.61405 z m 535.58158,6.80525 c 0,127.07227 0,297.53431 0,424.60661 -213.1641,0 -382.9383,0 -596.102365,0 0,-127.0625 0,-297.51482 0,-424.57732 C 171.71782,304.60095 243.55192,372.40335 350.10747,457.54975 456.72557,372.39355 554.65611,304.5814 661.26941,219.4193 z
  " fill="#666666"/>
  </g>
  <circle id="StartEvent_1" class="event startEvent" data-type="startEvent" cx="125" cy="362" fill="#6db700" r="15" stroke="#666666" stroke-width="2">
    <title>Message: invoice-received-C.1.0</title>
  </circle>
  <text class="label startEventLabel" id="StartEvent_1_label" fill="#666666" text-anchor="middle" transform="rotate(0) translate(0, 0)" x="125.5" y="388" style="font-size:11.00px;font-family:Segoe UI,sans-serif" stroke-width="0">Invoice</text>
  <text class="label startEventLabel" id="StartEvent_1_label" fill="#666666" text-anchor="middle" transform="rotate(0) translate(0, 14)" x="125.5" y="388" style="font-size:11.00px;font-family:Segoe UI,sans-serif" stroke-width="0">received</text>
  <g class="messagestartEvent" id="StartEvent_1" transform="translate(115,350) scale(0.03)">
    <path d="
    m 0,155.99997 c 0,213.36589 8.677966,331.27411 8.677966,544.64001 279.750004,0 420.652544,0 700.402544,0 0,-213.3659 8.67797,-322.59615 8.67797,-535.96204 -279.75,0 -438.00848,-8.67797 -717.75848,-8.67797 z m 125.68783,56.61408 c 155.43814,0 310.87631,0 466.31441,0 -82.5961,50.82447 -165.1995,162.39825 -247.7853,174.57169 C 271.37659,328.99182 198.53197,270.80323 125.68783,212.61405 z m 535.58158,6.80525 c 0,127.07227 0,297.53431 0,424.60661 -213.1641,0 -382.9383,0 -596.102365,0 0,-127.0625 0,-297.51482 0,-424.57732 C 171.71782,304.60095 243.55192,372.40335 350.10747,457.54975 456.72557,372.39355 554.65611,304.5814 661.26941,219.4193 z
  " fill="#666666"/>
  </g>
  <circle id="sid-40EC6574-E644-425C-8CE7-EE384F0C3520" class="event intermediateCatchEvent" data-type="intermediateCatchEvent" cx="470.75" cy="133" fill="#2953e7" r="15" stroke="#666666" stroke-width="6">
    <title>Message:  n/a </title>
  </circle>
  <circle class="intermediateCatchEvent" cx="470.75" cy="133" fill="none" r="15" stroke="#2953e7" stroke-width="2"/>
  <text class="label intermediateCatchEventLabel" id="sid-40EC6574-E644-425C-8CE7-EE384F0C3520_label" fill="#666666" text-anchor="middle" transform="rotate(0) translate(0, 0)" x="470.5" y="95" style="font-size:11.00px;font-family:Segoe UI,sans-serif" stroke-width="0">Approver to </text>
  <text class="label intermediateCatchEventLabel" id="sid-40EC6574-E644-425C-8CE7-EE384F0C3520_label" fill="#666666" text-anchor="middle" transform="rotate(0) translate(0, 14)" x="470.5" y="95" style="font-size:11.00px;font-family:Segoe UI,sans-serif" stroke-width="0">be assigned</text>
  <g class="messageintermediateCatchEvent" id="sid-40EC6574-E644-425C-8CE7-EE384F0C3520" transform="translate(460.75,121) scale(0.03)">
    <path d="
    m 0,155.99997 c 0,213.36589 8.677966,331.27411 8.677966,544.64001 279.750004,0 420.652544,0 700.402544,0 0,-213.3659 8.67797,-322.59615 8.67797,-535.96204 -279.75,0 -438.00848,-8.67797 -717.75848,-8.67797 z m 125.68783,56.61408 c 155.43814,0 310.87631,0 466.31441,0 -82.5961,50.82447 -165.1995,162.39825 -247.7853,174.57169 C 271.37659,328.99182 198.53197,270.80323 125.68783,212.61405 z m 535.58158,6.80525 c 0,127.07227 0,297.53431 0,424.60661 -213.1641,0 -382.9383,0 -596.102365,0 0,-127.0625 0,-297.51482 0,-424.57732 C 171.71782,304.60095 243.55192,372.40335 350.10747,457.54975 456.72557,372.39355 554.65611,304.5814 661.26941,219.4193 z
  " fill="#666666"/>
  </g>
  <circle id="sid-B548B980-12E3-408E-9AC4-7031B85A8F2D" class="event intermediateCatchEvent" data-type="intermediateCatchEvent" cx="746.75" cy="174" fill="#2953e7" r="15" stroke="#666666" stroke-width="6">
    <title>Message:  n/a </title>
  </circle>
  <circle class="intermediateCatchEvent" cx="746.75" cy="174" fill="none" r="15" stroke="#2953e7" stroke-width="2"/>
  <text class="label intermediateCatchEventLabel" id="sid-B548B980-12E3-408E-9AC4-7031B85A8F2D_label" fill="#666666" text-anchor="middle" transform="rotate(0) translate(0, 0)" x="746" y="136" style="font-size:11.00px;font-family:Segoe UI,sans-serif" stroke-width="0">Invoice review</text>
  <text class="label intermediateCatchEventLabel" id="sid-B548B980-12E3-408E-9AC4-7031B85A8F2D_label" fill="#666666" text-anchor="middle" transform="rotate(0) translate(0, 14)" x="746" y="136" style="font-size:11.00px;font-family:Segoe UI,sans-serif" stroke-width="0"> needed</text>
  <g class="messageintermediateCatchEvent" id="sid-B548B980-12E3-408E-9AC4-7031B85A8F2D" transform="translate(736.75,162) scale(0.03)">
    <path d="
    m 0,155.99997 c 0,213.36589 8.677966,331.27411 8.677966,544.64001 279.750004,0 420.652544,0 700.402544,0 0,-213.3659 8.67797,-322.59615 8.67797,-535.96204 -279.75,0 -438.00848,-8.67797 -717.75848,-8.67797 z m 125.68783,56.61408 c 155.43814,0 310.87631,0 466.31441,0 -82.5961,50.82447 -165.1995,162.39825 -247.7853,174.57169 C 271.37659,328.99182 198.53197,270.80323 125.68783,212.61405 z m 535.58158,6.80525 c 0,127.07227 0,297.53431 0,424.60661 -213.1641,0 -382.9383,0 -596.102365,0 0,-127.0625 0,-297.51482 0,-424.57732 C 171.71782,304.60095 243.55192,372.40335 350.10747,457.54975 456.72557,372.39355 554.65611,304.5814 661.26941,219.4193 z
  " fill="#666666"/>
  </g>
  <circle id="sid-0E349B8B-14A7-4565-988A-38F3A9B624D2" class="event intermediateCatchEvent" data-type="intermediateCatchEvent" cx="746.75" cy="77" fill="#2953e7" r="15" stroke="#666666" stroke-width="6">
    <title>Timer:  n/a </title>
  </circle>
  <circle class="intermediateCatchEvent" cx="746.75" cy="77" fill="none" r="15" stroke="#2953e7" stroke-width="2"/>
  <text class="label intermediateCatchEventLabel" id="sid-0E349B8B-14A7-4565-988A-38F3A9B624D2_label" fill="#666666" text-anchor="middle" transform="rotate(0, 746, 59)" x="746" y="56" style="font-size:11.00px;font-family:Segoe UI,sans-serif" stroke-width="0">7 days</text>
  <text class="label intermediateCatchEventLabel" id="sid-0E349B8B-14A7-4565-988A-38F3A9B624D2_label" fill="#666666" text-anchor="middle" transform="rotate(0, 746, 59)" x="746" y="67" style="font-size:11.00px;font-family:Segoe UI,sans-serif" stroke-width="0"/>
  <text class="label intermediateCatchEventLabel" id="sid-0E349B8B-14A7-4565-988A-38F3A9B624D2_label" fill="#666666" text-anchor="middle" transform="rotate(0, 746, 59)" x="746" y="78" style="font-size:11.00px;font-family:Segoe UI,sans-serif" stroke-width="0"/>
  <g class="timerintermediateCatchEvent" id="sid-0E349B8B-14A7-4565-988A-38F3A9B624D2" transform="translate(736.75,65) scale(0.022)">
    <path d="
    m 491.54975,113.21091 c -171.52852,1.21202 -335.10028,113.88462 -398.318318,273.28516 -65.7902,155.80082 -29.419078,347.56962 88.884758,468.44142 115.0263,123.8297 304.55446,169.46411 463.30666,111.4277 166.3595,-56.6747 288.5728,-221.2307 292.9765,-397.1894 8.8625,-170.94524 -93.8743,-339.96923 -248.5585,-412.56644 -59.0266,-28.5789 -124.5452,-43.4576 -190.1172,-43.3711 -2.7264,-0.0372 -5.4512,-0.0466 -8.1739,-0.0273 z m 15.6426,79.97266 c 156.7062,0.70105 303.7146,116.51969 340.2578,269.17578 40.6988,149.01854 -27.8705,318.93594 -161.3613,397.01564 -136.3004,85.5433 -328.47043,62.7447 -440.39453,-53.1094 -118.11394,-113.9435 -139.14739,-311.08537 -48.53125,-447.73437 64.1785,-101.9465 182.05034,-166.46657 302.56058,-165.29297 2.4918,-0.0472 4.9813,-0.0658 7.4687,-0.0547 z m 105.9512,102.07226 c -39.9674,72.5091 -79.935,145.01824 -119.9024,217.52734 -37.03237,3.9378 -45.82998,60.12112 -11.6621,75.10552 22.5699,15.6663 40.2472,-10.3922 60.793,-9.4942 l 183.293,0 0,-50 -183.9375,0 c 38.4017,-69.66799 76.8034,-139.33589 115.2051,-209.00389 -14.5964,-8.0449 -29.1927,-16.08987 -43.7891,-24.13477 z
  " fill="#666666"/>
  </g>
  <circle id="sid-BC9AC0B6-1785-4E35-A974-7FEF1A586B9D" class="event endEvent" data-type="endEvent" cx="955" cy="77" fill="#be0000" r="14" stroke="#666666" stroke-width="4">
    <title/>
  </circle>
  <text class="label endEventLabel" id="sid-BC9AC0B6-1785-4E35-A974-7FEF1A586B9D_label" fill="#666666" text-anchor="middle" transform="rotate(0, 955, 105)" x="955" y="102" style="font-size:11.00px;font-family:sans-serif" stroke-width="0"/>
  <text class="label endEventLabel" id="sid-BC9AC0B6-1785-4E35-A974-7FEF1A586B9D_label" fill="#666666" text-anchor="middle" transform="rotate(0, 955, 105)" x="955" y="113" style="font-size:11.00px;font-family:sans-serif" stroke-width="0"/>
  <text class="label endEventLabel" id="sid-BC9AC0B6-1785-4E35-A974-7FEF1A586B9D_label" fill="#666666" text-anchor="middle" transform="rotate(0, 955, 105)" x="955" y="124" style="font-size:11.00px;font-family:sans-serif" stroke-width="0"/>
  <circle id="sid-282524E6-660F-431D-8F19-1C3E9E9DE817" class="event endEvent" data-type="endEvent" cx="955" cy="174" fill="#be0000" r="14" stroke="#666666" stroke-width="4">
    <title/>
  </circle>
  <text class="label endEventLabel" id="sid-282524E6-660F-431D-8F19-1C3E9E9DE817_label" fill="#666666" text-anchor="middle" transform="rotate(0, 955, 202)" x="955" y="199" style="font-size:11.00px;font-family:sans-serif" stroke-width="0"/>
  <text class="label endEventLabel" id="sid-282524E6-660F-431D-8F19-1C3E9E9DE817_label" fill="#666666" text-anchor="middle" transform="rotate(0, 955, 202)" x="955" y="210" style="font-size:11.00px;font-family:sans-serif" stroke-width="0"/>
  <text class="label endEventLabel" id="sid-282524E6-660F-431D-8F19-1C3E9E9DE817_label" fill="#666666" text-anchor="middle" transform="rotate(0, 955, 202)" x="955" y="221" style="font-size:11.00px;font-family:sans-serif" stroke-width="0"/>
  <circle id="invoiceNotProcessed" class="event endEvent" data-type="endEvent" cx="955" cy="362" fill="#be0000" r="14" stroke="#666666" stroke-width="4">
    <title/>
  </circle>
  <text class="label endEventLabel" id="invoiceNotProcessed_label" fill="#666666" text-anchor="middle" transform="rotate(0) translate(0, 0)" x="955" y="387" style="font-size:11.00px;font-family:Segoe UI,sans-serif" stroke-width="0">Invoice not</text>
  <text class="label endEventLabel" id="invoiceNotProcessed_label" fill="#666666" text-anchor="middle" transform="rotate(0) translate(0, 14)" x="955" y="387" style="font-size:11.00px;font-family:Segoe UI,sans-serif" stroke-width="0">processed</text>
  <circle id="invoiceProcessed" class="event endEvent" data-type="endEvent" cx="955" cy="695" fill="#be0000" r="14" stroke="#666666" stroke-width="4">
    <title/>
  </circle>
  <text class="label endEventLabel" id="invoiceProcessed_label" fill="#666666" text-anchor="middle" transform="rotate(0) translate(0, 0)" x="955.5" y="720" style="font-size:11.00px;font-family:Segoe UI,sans-serif" stroke-width="0">Invoice</text>
  <text class="label endEventLabel" id="invoiceProcessed_label" fill="#666666" text-anchor="middle" transform="rotate(0) translate(0, 14)" x="955.5" y="720" style="font-size:11.00px;font-family:Segoe UI,sans-serif" stroke-width="0">processed</text>
</svg>