<?xml version="1.0" encoding="utf-8"?>
<!-- created with bpmn-js / http://bpmn.io -->
<!DOCTYPE svg PUBLIC "-//W3C//DTD SVG 1.1 Basic//EN" "http://www.w3.org/Graphics/SVG/1.1/DTD/svg11-basic.dtd">
<svg xmlns="http://www.w3.org/2000/svg" xmlns:xlink="http://www.w3.org/1999/xlink" version="1.1" baseProfile="basic">
<desc>Created with Snap</desc><defs><marker viewBox="0 0 10 10" markerWidth="10" markerHeight="6" orient="auto" refX="10" refY="5" id="Sht6uul0o8b" markerUnits="strokeWidth" style="overflow: visible;"><path d="M 0 0 L 10 5 L 0 10 Z" fill="#000000" stroke="none" style=""></path></marker><marker viewBox="0 0 10 10" markerWidth="7" markerHeight="7" orient="auto" refX="4" refY="4" id="Sht6uul0o8d" markerUnits="strokeWidth" style="overflow: visible;"><circle cx="4" cy="4" r="4" fill="#ffffff" stroke="#000000" style="stroke-width: 1px; stroke-dasharray: 1px, 0px;"></circle></marker><marker viewBox="0 0 10 10" markerWidth="6" markerHeight="6" orient="auto" refX="11" refY="5" id="Sht6uul0o8f" markerUnits="strokeWidth" style="overflow: visible;"><path d="M 0 0 L 10 5 L 0 10 Z" stroke="#000000" fill="#ffffff" style="stroke-width: 1px; stroke-linecap: round; stroke-dasharray: 1px, 0px;"></path></marker><marker viewBox="0 0 10 10" markerWidth="10" markerHeight="10" orient="auto" refX="10" refY="5" id="Sht6uul0o8h" stroke="#000000" fill="none" style="stroke-width: 1.5px; stroke-linecap: round; stroke-dasharray: 1px, 0px;"><path d="M 0 0 L 10 5 L 0 10 Z" class="djs-connection-marker"></path></marker><rect width="10" height="10" class="svg---mgr"></rect></defs><g class=" djs-group djs-shape" transform="matrix(1,0,0,1,72,120)"><rect x="-10" y="-10" width="908" height="164" fill="none" class="djs-outline" style=""></rect><rect x="0" y="0" width="888" height="144" rx="0" ry="0" stroke="#000000" fill="none" class="djs-hit" style="stroke-width: 2px; stroke-opacity: 0;"></rect><rect x="0" y="0" width="888" height="144" rx="0" ry="0" stroke="#000000" fill="#ffffff" class=" djs-visual" style="stroke-width: 2px;"></rect></g><g class=" djs-group djs-shape" transform="matrix(1,0,0,1,199,158)"><rect x="-10" y="-10" width="103" height="88" fill="none" class="djs-outline" style=""></rect><rect x="0" y="0" width="83" height="68" rx="8" ry="8" stroke="#000000" fill="none" class="djs-hit" style="stroke-width: 2px; stroke-opacity: 0;"></rect><rect x="0" y="0" width="83" height="68" rx="8" ry="8" stroke="#000000" fill="#ffffff" class=" djs-visual" style="stroke-width: 2px;"></rect></g><g class=" djs-group djs-shape" transform="matrix(1,0,0,1,758,158)"><rect x="-10" y="-10" width="103" height="88" fill="none" class="djs-outline" style=""></rect><rect x="0" y="0" width="83" height="68" rx="8" ry="8" stroke="#000000" fill="none" class="djs-hit" style="stroke-width: 2px; stroke-opacity: 0;"></rect><rect x="0" y="0" width="83" height="68" rx="8" ry="8" stroke="#000000" fill="#ffffff" class=" djs-visual" style="stroke-width: 2px;"></rect></g><g class=" djs-group djs-shape" transform="matrix(1,0,0,1,872,176)"><rect x="-10" y="-10" width="52.04774055370054" height="52" fill="none" class="djs-outline" style=""></rect><circle cx="16" cy="16" r="16" stroke="#000000" fill="none" class="djs-hit" style="stroke-width: 4px; stroke-opacity: 0;"></circle><circle cx="16" cy="16" r="16" stroke="#000000" fill="#ffffff" class=" djs-visual" style="stroke-width: 4px;"></circle></g><g class=" djs-group djs-shape" transform="matrix(1,0,0,1,126,177)"><rect x="-10" y="-10" width="50.04475676909426" height="50" fill="none" class="djs-outline" style=""></rect><circle cx="15" cy="15" r="15" stroke="#000000" fill="none" class="djs-hit" style="stroke-width: 2px; stroke-opacity: 0;"></circle><circle cx="15" cy="15" r="15" stroke="#000000" fill="#ffffff" class=" djs-visual" style="stroke-width: 2px;"></circle></g><g class=" djs-group djs-connection"><polyline points="156,192,199,192" fill="none" stroke="#000000" class="djs-hit" style="stroke-width: 2px; marker-end: url(#Sht6uul0o8b); stroke-opacity: 0;"></polyline><polyline points="156,192,199,192" fill="none" stroke="#000000" class=" djs-visual" style="stroke-width: 2px; marker-end: url(#Sht6uul0o8b);"></polyline></g><g class=" djs-group djs-connection"><polyline points="842,192,860,192,872,192" fill="none" stroke="#000000" class="djs-hit" style="stroke-width: 2px; marker-end: url(#Sht6uul0o8b); stroke-opacity: 0;"></polyline><polyline points="842,192,860,192,872,192" fill="none" stroke="#000000" class=" djs-visual" style="stroke-width: 2px; marker-end: url(#Sht6uul0o8b);"></polyline></g><g class=" djs-group djs-connection"><polyline points="282,192,758,192" fill="none" stroke="#000000" class="djs-hit" style="stroke-width: 2px; marker-end: url(#Sht6uul0o8b); stroke-opacity: 0;"></polyline><polyline points="282,192,758,192" fill="none" stroke="#000000" class=" djs-visual" style="stroke-width: 2px; marker-end: url(#Sht6uul0o8b);"></polyline></g><g class=" djs-group djs-connection"><polyline points="241,226,240,368" fill="none" stroke="#000000" class="djs-hit" style="stroke-width: 2px; marker-end: url(#Sht6uul0o8f); marker-start: url(#Sht6uul0o8d); stroke-dasharray: 3px, 4px; stroke-opacity: 0;"></polyline><polyline points="241,226,240,368" fill="none" stroke="#000000" class=" djs-visual" style="stroke-width: 2px; marker-end: url(#Sht6uul0o8f); marker-start: url(#Sht6uul0o8d); stroke-dasharray: 3px, 4px;"></polyline></g><g class=" djs-group djs-connection"><polyline points="800,366,800,226" fill="none" stroke="#000000" class="djs-hit" style="stroke-width: 2px; marker-end: url(#Sht6uul0o8f); marker-start: url(#Sht6uul0o8d); stroke-dasharray: 3px, 4px; stroke-opacity: 0;"></polyline><polyline points="800,366,800,226" fill="none" stroke="#000000" class=" djs-visual" style="stroke-width: 2px; marker-end: url(#Sht6uul0o8f); marker-start: url(#Sht6uul0o8d); stroke-dasharray: 3px, 4px;"></polyline></g><g class=" djs-group djs-shape" transform="matrix(1,0,0,1,75,301)"><rect x="-10" y="-10" width="905" height="223" fill="none" class="djs-outline" style=""></rect><rect x="0" y="0" width="885" height="203" rx="0" ry="0" stroke="#000000" fill="none" class="djs-hit" style="stroke-width: 2px; stroke-opacity: 0;"></rect><rect x="0" y="0" width="885" height="203" rx="0" ry="0" stroke="#000000" fill="#ffffff" class=" djs-visual" style="stroke-width: 2px;"></rect></g><g class=" djs-group djs-shape" transform="matrix(1,0,0,1,758,366)"><rect x="-10" y="-10" width="103" height="88" fill="none" class="djs-outline" style=""></rect><rect x="0" y="0" width="83" height="68" rx="8" ry="8" stroke="#000000" fill="none" class="djs-hit" style="stroke-width: 2px; stroke-opacity: 0;"></rect><rect x="0" y="0" width="83" height="68" rx="8" ry="8" stroke="#000000" fill="#ffffff" class=" djs-visual" style="stroke-width: 2px;"></rect></g><g class=" djs-group djs-shape" transform="matrix(1,0,0,1,120,387)"><rect x="-10" y="-10" width="50.04475676909426" height="50" fill="none" class="djs-outline" style=""></rect><circle cx="15" cy="15" r="15" stroke="#000000" fill="none" class="djs-hit" style="stroke-width: 2px; stroke-opacity: 0;"></circle><circle cx="15" cy="15" r="15" stroke="#000000" fill="#ffffff" class=" djs-visual" style="stroke-width: 2px;"></circle></g><g class=" djs-group djs-shape" transform="matrix(1,0,0,1,330,330)"><rect x="-10" y="-10" width="298" height="158" fill="none" class="djs-outline" style=""></rect><rect x="0" y="0" width="278" height="138" rx="8" ry="8" stroke="#000000" fill="none" class="djs-hit" style="stroke-width: 2px; stroke-opacity: 0;"></rect><rect x="0" y="0" width="278" height="138" rx="8" ry="8" stroke="#000000" fill="#ffffff" class=" djs-visual" style="stroke-width: 2px;"></rect></g><g class=" djs-group djs-shape" transform="matrix(1,0,0,1,354,377)"><rect x="-10" y="-10" width="50.04475676909426" height="50" fill="none" class="djs-outline" style=""></rect><circle cx="15" cy="15" r="15" stroke="#000000" fill="none" class="djs-hit" style="stroke-width: 2px; stroke-opacity: 0;"></circle><circle cx="15" cy="15" r="15" stroke="#000000" fill="#ffffff" class=" djs-visual" style="stroke-width: 2px;"></circle></g><g class=" djs-group djs-shape" transform="matrix(1,0,0,1,418,358)"><rect x="-10" y="-10" width="103" height="88" fill="none" class="djs-outline" style=""></rect><rect x="0" y="0" width="83" height="68" rx="8" ry="8" stroke="#000000" fill="none" class="djs-hit" style="stroke-width: 2px; stroke-opacity: 0;"></rect><rect x="0" y="0" width="83" height="68" rx="8" ry="8" stroke="#000000" fill="#ffffff" class=" djs-visual" style="stroke-width: 2px;"></rect></g><g class=" djs-group djs-shape" transform="matrix(1,0,0,1,553,376)"><rect x="-10" y="-10" width="52.04774055370054" height="52" fill="none" class="djs-outline" style=""></rect><circle cx="16" cy="16" r="16" stroke="#000000" fill="none" class="djs-hit" style="stroke-width: 4px; stroke-opacity: 0;"></circle><circle cx="16" cy="16" r="16" stroke="#000000" fill="#ffffff" class=" djs-visual" style="stroke-width: 4px;"></circle></g><g class=" djs-group djs-connection"><polyline points="384,392,418,392" fill="none" stroke="#000000" class="djs-hit" style="stroke-width: 2px; marker-end: url(#Sht6uul0o8b); stroke-opacity: 0;"></polyline><polyline points="384,392,418,392" fill="none" stroke="#000000" class=" djs-visual" style="stroke-width: 2px; marker-end: url(#Sht6uul0o8b);"></polyline></g><g class=" djs-group djs-connection"><polyline points="501,392,519,392,553,392" fill="none" stroke="#000000" class="djs-hit" style="stroke-width: 2px; marker-end: url(#Sht6uul0o8b); stroke-opacity: 0;"></polyline><polyline points="501,392,519,392,553,392" fill="none" stroke="#000000" class=" djs-visual" style="stroke-width: 2px; marker-end: url(#Sht6uul0o8b);"></polyline></g><g class=" djs-group djs-shape" transform="matrix(1,0,0,1,880,384)"><rect x="-10" y="-10" width="52.04774055370054" height="52" fill="none" class="djs-outline" style=""></rect><circle cx="16" cy="16" r="16" stroke="#000000" fill="none" class="djs-hit" style="stroke-width: 4px; stroke-opacity: 0;"></circle><circle cx="16" cy="16" r="16" stroke="#000000" fill="#ffffff" class=" djs-visual" style="stroke-width: 4px;"></circle></g><g class=" djs-group djs-shape" transform="matrix(1,0,0,1,198,368)"><rect x="-10" y="-10" width="103" height="88" fill="none" class="djs-outline" style=""></rect><rect x="0" y="0" width="83" height="68" rx="8" ry="8" stroke="#000000" fill="none" class="djs-hit" style="stroke-width: 2px; stroke-opacity: 0;"></rect><rect x="0" y="0" width="83" height="68" rx="8" ry="8" stroke="#000000" fill="#ffffff" class=" djs-visual" style="stroke-width: 2px;"></rect></g><g class=" djs-group djs-shape" transform="matrix(1,0,0,1,75,504)"><rect x="-10" y="-10" width="905" height="224" fill="none" class="djs-outline" style=""></rect><rect x="0" y="0" width="885" height="204" rx="0" ry="0" stroke="#000000" fill="none" class="djs-hit" style="stroke-width: 2px; stroke-opacity: 0;"></rect><rect x="0" y="0" width="885" height="204" rx="0" ry="0" stroke="#000000" fill="#ffffff" class=" djs-visual" style="stroke-width: 2px;"></rect></g><g class=" djs-group djs-shape" transform="matrix(1,0,0,1,648,583)"><rect x="-10" y="-10" width="52.04774055370054" height="52" fill="none" class="djs-outline" style=""></rect><circle cx="16" cy="16" r="16" stroke="#000000" fill="none" class="djs-hit" style="stroke-width: 4px; stroke-opacity: 0;"></circle><circle cx="16" cy="16" r="16" stroke="#000000" fill="#ffffff" class=" djs-visual" style="stroke-width: 4px;"></circle></g><g class=" djs-group djs-shape" transform="matrix(1,0,0,1,270,525)"><rect x="-10" y="-10" width="335" height="167" fill="none" class="djs-outline" style=""></rect><rect x="0" y="0" width="315" height="147" rx="8" ry="8" stroke="#000000" fill="none" class="djs-hit" style="stroke-width: 2px; stroke-opacity: 0;"></rect><rect x="0" y="0" width="315" height="147" rx="8" ry="8" stroke="#000000" fill="#ffffff" class=" djs-visual" style="stroke-width: 2px;"></rect></g><g class=" djs-group djs-shape" transform="matrix(1,0,0,1,300,573)"><rect x="-10" y="-10" width="50.04475676909426" height="50" fill="none" class="djs-outline" style=""></rect><circle cx="15" cy="15" r="15" stroke="#000000" fill="none" class="djs-hit" style="stroke-width: 2px; stroke-opacity: 0;"></circle><circle cx="15" cy="15" r="15" stroke="#000000" fill="#ffffff" class=" djs-visual" style="stroke-width: 2px;"></circle></g><g class=" djs-group djs-shape" transform="matrix(1,0,0,1,384,554)"><rect x="-10" y="-10" width="103" height="88" fill="none" class="djs-outline" style=""></rect><rect x="0" y="0" width="83" height="68" rx="8" ry="8" stroke="#000000" fill="none" class="djs-hit" style="stroke-width: 2px; stroke-opacity: 0;"></rect><rect x="0" y="0" width="83" height="68" rx="8" ry="8" stroke="#000000" fill="#ffffff" class=" djs-visual" style="stroke-width: 2px;"></rect></g><g class=" djs-group djs-shape" transform="matrix(1,0,0,1,522,572)"><rect x="-10" y="-10" width="52.04774055370054" height="52" fill="none" class="djs-outline" style=""></rect><circle cx="16" cy="16" r="16" stroke="#000000" fill="none" class="djs-hit" style="stroke-width: 4px; stroke-opacity: 0;"></circle><circle cx="16" cy="16" r="16" stroke="#000000" fill="#ffffff" class=" djs-visual" style="stroke-width: 4px;"></circle></g><g class=" djs-group djs-connection"><polyline points="330,588,348,588,384,588" fill="none" stroke="#000000" class="djs-hit" style="stroke-width: 2px; marker-end: url(#Sht6uul0o8b); stroke-opacity: 0;"></polyline><polyline points="330,588,348,588,384,588" fill="none" stroke="#000000" class=" djs-visual" style="stroke-width: 2px; marker-end: url(#Sht6uul0o8b);"></polyline></g><g class=" djs-group djs-connection"><polyline points="468,588,486,588,522,588" fill="none" stroke="#000000" class="djs-hit" style="stroke-width: 2px; marker-end: url(#Sht6uul0o8b); stroke-opacity: 0;"></polyline><polyline points="468,588,486,588,522,588" fill="none" stroke="#000000" class=" djs-visual" style="stroke-width: 2px; marker-end: url(#Sht6uul0o8b);"></polyline></g><g class=" djs-group djs-connection"><polyline points="281,402,299,402,330,402" fill="none" stroke="#000000" class="djs-hit" style="stroke-width: 2px; marker-end: url(#Sht6uul0o8b); stroke-opacity: 0;"></polyline><polyline points="281,402,299,402,330,402" fill="none" stroke="#000000" class=" djs-visual" style="stroke-width: 2px; marker-end: url(#Sht6uul0o8b);"></polyline></g><g class=" djs-group djs-connection"><polyline points="608,399,758,400" fill="none" stroke="#000000" class="djs-hit" style="stroke-width: 2px; marker-end: url(#Sht6uul0o8b); stroke-opacity: 0;"></polyline><polyline points="608,399,758,400" fill="none" stroke="#000000" class=" djs-visual" style="stroke-width: 2px; marker-end: url(#Sht6uul0o8b);"></polyline></g><g class=" djs-group djs-connection"><polyline points="842,400,860,400,880,400" fill="none" stroke="#000000" class="djs-hit" style="stroke-width: 2px; marker-end: url(#Sht6uul0o8b); stroke-opacity: 0;"></polyline><polyline points="842,400,860,400,880,400" fill="none" stroke="#000000" class=" djs-visual" style="stroke-width: 2px; marker-end: url(#Sht6uul0o8b);"></polyline></g><g class=" djs-group djs-connection"><polyline points="240,436,240,596,270,596" fill="none" stroke="#000000" class="djs-hit" style="stroke-width: 2px; marker-end: url(#Sht6uul0o8b); stroke-opacity: 0;"></polyline><polyline points="240,436,240,596,270,596" fill="none" stroke="#000000" class=" djs-visual" style="stroke-width: 2px; marker-end: url(#Sht6uul0o8b);"></polyline></g><g class=" djs-group djs-connection"><polyline points="585,599,603,599,648,599" fill="none" stroke="#000000" class="djs-hit" style="stroke-width: 2px; marker-end: url(#Sht6uul0o8b); stroke-opacity: 0;"></polyline><polyline points="585,599,603,599,648,599" fill="none" stroke="#000000" class=" djs-visual" style="stroke-width: 2px; marker-end: url(#Sht6uul0o8b);"></polyline></g><g class=" djs-group djs-connection"><polyline points="150,402,168,402,198,402" fill="none" stroke="#000000" class="djs-hit" style="stroke-width: 2px; marker-end: url(#Sht6uul0o8b); stroke-opacity: 0;"></polyline><polyline points="150,402,168,402,198,402" fill="none" stroke="#000000" class=" djs-visual" style="stroke-width: 2px; marker-end: url(#Sht6uul0o8b);"></polyline></g></svg>