<?xml version="1.0" encoding="utf-8"?>
<!-- created with bpmn-js / http://bpmn.io -->
<!DOCTYPE svg PUBLIC "-//W3C//DTD SVG 1.1 Basic//EN" "http://www.w3.org/Graphics/SVG/1.1/DTD/svg11-basic.dtd">
<svg xmlns="http://www.w3.org/2000/svg" xmlns:xlink="http://www.w3.org/1999/xlink" version="1.1" baseProfile="basic">
<desc>Created with Snap</desc><defs><marker viewBox="0 0 10 10" markerWidth="10" markerHeight="6" orient="auto" refX="10" refY="5" id="Sht6uul0o4c" markerUnits="strokeWidth" style="overflow: visible;"><path d="M 0 0 L 10 5 L 0 10 Z" fill="#000000" stroke="none" style=""></path></marker><marker viewBox="0 0 10 10" markerWidth="7" markerHeight="7" orient="auto" refX="4" refY="4" id="Sht6uul0o4e" markerUnits="strokeWidth" style="overflow: visible;"><circle cx="4" cy="4" r="4" fill="#ffffff" stroke="#000000" style="stroke-width: 1px; stroke-dasharray: 1px, 0px;"></circle></marker><marker viewBox="0 0 10 10" markerWidth="6" markerHeight="6" orient="auto" refX="11" refY="5" id="Sht6uul0o4g" markerUnits="strokeWidth" style="overflow: visible;"><path d="M 0 0 L 10 5 L 0 10 Z" stroke="#000000" fill="#ffffff" style="stroke-width: 1px; stroke-linecap: round; stroke-dasharray: 1px, 0px;"></path></marker><marker viewBox="0 0 10 10" markerWidth="10" markerHeight="10" orient="auto" refX="10" refY="5" id="Sht6uul0o4i" stroke="#000000" fill="none" style="stroke-width: 1.5px; stroke-linecap: round; stroke-dasharray: 1px, 0px;"><path d="M 0 0 L 10 5 L 0 10 Z" class="djs-connection-marker"></path></marker><rect width="10" height="10" class="svg---mgr"></rect></defs><g class=" djs-group djs-shape" transform="matrix(1,0,0,1,186,276)"><rect x="-10" y="-10" width="50.04475676909426" height="50" fill="none" class="djs-outline" style=""></rect><circle cx="15" cy="15" r="15" stroke="#000000" fill="none" class="djs-hit" style="stroke-width: 2px; stroke-opacity: 0;"></circle><circle cx="15" cy="15" r="15" stroke="#000000" fill="#ffffff" class=" djs-visual" style="stroke-width: 2px;"></circle></g><g class=" djs-group djs-shape" transform="matrix(1,0,0,1,252,257)"><rect x="-10" y="-10" width="103" height="88" fill="none" class="djs-outline" style=""></rect><rect x="0" y="0" width="83" height="68" rx="8" ry="8" stroke="#000000" fill="none" class="djs-hit" style="stroke-width: 2px; stroke-opacity: 0;"></rect><rect x="0" y="0" width="83" height="68" rx="8" ry="8" stroke="#000000" fill="#ffffff" class=" djs-visual" style="stroke-width: 2px;"></rect></g><g class=" djs-group djs-shape" transform="matrix(1,0,0,1,736,244)"><rect x="-10" y="-10" width="52.04774055370054" height="52" fill="none" class="djs-outline" style=""></rect><circle cx="16" cy="16" r="16" stroke="#000000" fill="none" class="djs-hit" style="stroke-width: 4px; stroke-opacity: 0;"></circle><circle cx="16" cy="16" r="16" stroke="#000000" fill="#ffffff" class=" djs-visual" style="stroke-width: 4px;"></circle></g><g class=" djs-group djs-shape" transform="matrix(1,0,0,1,480,172)"><rect x="-10" y="-10" width="103" height="88" fill="none" class="djs-outline" style=""></rect><rect x="0" y="0" width="83" height="68" rx="8" ry="8" stroke="#000000" fill="none" class="djs-hit" style="stroke-width: 2px; stroke-opacity: 0;"></rect><rect x="0" y="0" width="83" height="68" rx="8" ry="8" stroke="#000000" fill="#ffffff" class=" djs-visual" style="stroke-width: 2px;"></rect></g><g class=" djs-group djs-shape" transform="matrix(1,0,0,1,480,257)"><rect x="-10" y="-10" width="103" height="88" fill="none" class="djs-outline" style=""></rect><rect x="0" y="0" width="83" height="68" rx="8" ry="8" stroke="#000000" fill="none" class="djs-hit" style="stroke-width: 2px; stroke-opacity: 0;"></rect><rect x="0" y="0" width="83" height="68" rx="8" ry="8" stroke="#000000" fill="#ffffff" class=" djs-visual" style="stroke-width: 2px;"></rect></g><g class=" djs-group djs-shape" transform="matrix(1,0,0,1,399,270)"><rect x="-10" y="-10" width="62" height="62" fill="none" class="djs-outline" style=""></rect><polygon points="21,0,42,21,21,42,0,21" stroke="#000000" fill="none" class="djs-hit" style="stroke-width: 2px; stroke-opacity: 0;"></polygon><polygon points="21,0,42,21,21,42,0,21" stroke="#000000" fill="#ffffff" class=" djs-visual" style="stroke-width: 2px;"></polygon></g><g class=" djs-group djs-shape" transform="matrix(1,0,0,1,480,352)"><rect x="-10" y="-10" width="103" height="88" fill="none" class="djs-outline" style=""></rect><rect x="0" y="0" width="83" height="68" rx="8" ry="8" stroke="#000000" fill="none" class="djs-hit" style="stroke-width: 2px; stroke-opacity: 0;"></rect><rect x="0" y="0" width="83" height="68" rx="8" ry="8" stroke="#000000" fill="#ffffff" class=" djs-visual" style="stroke-width: 2px;"></rect></g><g class=" djs-group djs-shape" transform="matrix(1,0,0,1,621,315)"><rect x="-10" y="-10" width="62" height="62" fill="none" class="djs-outline" style=""></rect><polygon points="21,0,42,21,21,42,0,21" stroke="#000000" fill="none" class="djs-hit" style="stroke-width: 2px; stroke-opacity: 0;"></polygon><polygon points="21,0,42,21,21,42,0,21" stroke="#000000" fill="#ffffff" class=" djs-visual" style="stroke-width: 2px;"></polygon></g><g class=" djs-group djs-connection"><polyline points="216,291,234,291,252,291" fill="none" stroke="#000000" class="djs-hit" style="stroke-width: 2px; marker-end: url(#Sht6uul0o4c); stroke-opacity: 0;"></polyline><polyline points="216,291,234,291,252,291" fill="none" stroke="#000000" class=" djs-visual" style="stroke-width: 2px; marker-end: url(#Sht6uul0o4c);"></polyline></g><g class=" djs-group djs-connection"><polyline points="335,291,353,291,399,291" fill="none" stroke="#000000" class="djs-hit" style="stroke-width: 2px; marker-end: url(#Sht6uul0o4c); stroke-opacity: 0;"></polyline><polyline points="335,291,353,291,399,291" fill="none" stroke="#000000" class=" djs-visual" style="stroke-width: 2px; marker-end: url(#Sht6uul0o4c);"></polyline></g><g class=" djs-group djs-connection"><polyline points="420,270,420,206,480,206" fill="none" stroke="#000000" class="djs-hit" style="stroke-width: 2px; marker-end: url(#Sht6uul0o4c); stroke-opacity: 0;"></polyline><polyline points="420,270,420,206,480,206" fill="none" stroke="#000000" class=" djs-visual" style="stroke-width: 2px; marker-end: url(#Sht6uul0o4c);"></polyline></g><g class=" djs-group djs-connection"><polyline points="563,206,752,206,752,244" fill="none" stroke="#000000" class="djs-hit" style="stroke-width: 2px; marker-end: url(#Sht6uul0o4c); stroke-opacity: 0;"></polyline><polyline points="563,206,752,206,752,244" fill="none" stroke="#000000" class=" djs-visual" style="stroke-width: 2px; marker-end: url(#Sht6uul0o4c);"></polyline></g><g class=" djs-group djs-connection"><polyline points="563,291,642,291,642,315" fill="none" stroke="#000000" class="djs-hit" style="stroke-width: 2px; marker-end: url(#Sht6uul0o4c); stroke-opacity: 0;"></polyline><polyline points="563,291,642,291,642,315" fill="none" stroke="#000000" class=" djs-visual" style="stroke-width: 2px; marker-end: url(#Sht6uul0o4c);"></polyline></g><g class=" djs-group djs-connection"><polyline points="563,386,642,386,642,357" fill="none" stroke="#000000" class="djs-hit" style="stroke-width: 2px; marker-end: url(#Sht6uul0o4c); stroke-opacity: 0;"></polyline><polyline points="563,386,642,386,642,357" fill="none" stroke="#000000" class=" djs-visual" style="stroke-width: 2px; marker-end: url(#Sht6uul0o4c);"></polyline></g><g class=" djs-group djs-connection"><polyline points="663,336,752,336,752,276" fill="none" stroke="#000000" class="djs-hit" style="stroke-width: 2px; marker-end: url(#Sht6uul0o4c); stroke-opacity: 0;"></polyline><polyline points="663,336,752,336,752,276" fill="none" stroke="#000000" class=" djs-visual" style="stroke-width: 2px; marker-end: url(#Sht6uul0o4c);"></polyline></g><g class=" djs-group djs-connection"><polyline points="440,291,458,291,480,291" fill="none" stroke="#000000" class="djs-hit" style="stroke-width: 2px; marker-end: url(#Sht6uul0o4c); stroke-opacity: 0;"></polyline><polyline points="440,291,458,291,480,291" fill="none" stroke="#000000" class=" djs-visual" style="stroke-width: 2px; marker-end: url(#Sht6uul0o4c);"></polyline></g><g class=" djs-group djs-connection"><polyline points="420,312,420,386,480,386" fill="none" stroke="#000000" class="djs-hit" style="stroke-width: 2px; marker-end: url(#Sht6uul0o4c); stroke-opacity: 0;"></polyline><polyline points="420,312,420,386,480,386" fill="none" stroke="#000000" class=" djs-visual" style="stroke-width: 2px; marker-end: url(#Sht6uul0o4c);"></polyline></g></svg>