<?xml version="1.0" encoding="utf-8"?>
<!-- created with bpmn-js / http://bpmn.io -->
<!DOCTYPE svg PUBLIC "-//W3C//DTD SVG 1.1 Basic//EN" "http://www.w3.org/Graphics/SVG/1.1/DTD/svg11-basic.dtd">
<svg xmlns="http://www.w3.org/2000/svg" xmlns:xlink="http://www.w3.org/1999/xlink" version="1.1" baseProfile="basic">
<desc>Created with Snap</desc><defs><marker viewBox="0 0 10 10" markerWidth="10" markerHeight="6" orient="auto" refX="10" refY="5" id="Sht6uul0o69" markerUnits="strokeWidth" style="overflow: visible;"><path d="M 0 0 L 10 5 L 0 10 Z" fill="#000000" stroke="none" style=""></path></marker><marker viewBox="0 0 10 10" markerWidth="7" markerHeight="7" orient="auto" refX="4" refY="4" id="Sht6uul0o6b" markerUnits="strokeWidth" style="overflow: visible;"><circle cx="4" cy="4" r="4" fill="#ffffff" stroke="#000000" style="stroke-width: 1px; stroke-dasharray: 1px, 0px;"></circle></marker><marker viewBox="0 0 10 10" markerWidth="6" markerHeight="6" orient="auto" refX="11" refY="5" id="Sht6uul0o6d" markerUnits="strokeWidth" style="overflow: visible;"><path d="M 0 0 L 10 5 L 0 10 Z" stroke="#000000" fill="#ffffff" style="stroke-width: 1px; stroke-linecap: round; stroke-dasharray: 1px, 0px;"></path></marker><marker viewBox="0 0 10 10" markerWidth="10" markerHeight="10" orient="auto" refX="10" refY="5" id="Sht6uul0o6f" stroke="#000000" fill="none" style="stroke-width: 1.5px; stroke-linecap: round; stroke-dasharray: 1px, 0px;"><path d="M 0 0 L 10 5 L 0 10 Z" class="djs-connection-marker"></path></marker><rect width="10" height="10" class="svg---mgr"></rect></defs><g class=" djs-group djs-shape" transform="matrix(1,0,0,1,72,295)"><rect x="-10" y="-10" width="50.04475676909426" height="50" fill="none" class="djs-outline" style=""></rect><circle cx="15" cy="15" r="15" stroke="#000000" fill="none" class="djs-hit" style="stroke-width: 2px; stroke-opacity: 0;"></circle><circle cx="15" cy="15" r="15" stroke="#000000" fill="#ffffff" class=" djs-visual" style="stroke-width: 2px;"></circle></g><g class=" djs-group djs-shape" transform="matrix(1,0,0,1,145,276)"><rect x="-10" y="-10" width="103" height="88" fill="none" class="djs-outline" style=""></rect><rect x="0" y="0" width="83" height="68" rx="8" ry="8" stroke="#000000" fill="none" class="djs-hit" style="stroke-width: 2px; stroke-opacity: 0;"></rect><rect x="0" y="0" width="83" height="68" rx="8" ry="8" stroke="#000000" fill="#ffffff" class=" djs-visual" style="stroke-width: 2px;"></rect></g><g class=" djs-group djs-shape" transform="matrix(1,0,0,1,282,266)"><rect x="-10" y="-10" width="128" height="108" fill="none" class="djs-outline" style=""></rect><rect x="0" y="0" width="108" height="88" rx="8" ry="8" stroke="#000000" fill="none" class="djs-hit" style="stroke-width: 2px; stroke-opacity: 0;"></rect><rect x="0" y="0" width="108" height="88" rx="8" ry="8" stroke="#000000" fill="#ffffff" class=" djs-visual" style="stroke-width: 2px;"></rect></g><g class=" djs-group djs-shape" transform="matrix(1,0,0,1,338,250)"><rect x="-10" y="-10" width="52" height="52" fill="none" class="djs-outline" style=""></rect><rect x="0" y="0" width="32" height="32" rx="10" ry="10" fill="none" class="djs-hit" style="stroke-opacity: 0;"></rect><rect x="0" y="0" width="32" height="32" rx="10" ry="10" fill="#ff00ff" class=" djs-visual" style=""></rect></g><g class=" djs-group djs-shape" transform="matrix(1,0,0,1,347,338)"><rect x="-10" y="-10" width="52" height="52" fill="none" class="djs-outline" style=""></rect><rect x="0" y="0" width="32" height="32" rx="10" ry="10" fill="none" class="djs-hit" style="stroke-opacity: 0;"></rect><rect x="0" y="0" width="32" height="32" rx="10" ry="10" fill="#ff00ff" class=" djs-visual" style=""></rect></g><g class=" djs-group djs-shape" transform="matrix(1,0,0,1,409,398)"><rect x="-10" y="-10" width="103" height="88" fill="none" class="djs-outline" style=""></rect><rect x="0" y="0" width="83" height="68" rx="8" ry="8" stroke="#000000" fill="none" class="djs-hit" style="stroke-width: 2px; stroke-opacity: 0;"></rect><rect x="0" y="0" width="83" height="68" rx="8" ry="8" stroke="#000000" fill="#ffffff" class=" djs-visual" style="stroke-width: 2px;"></rect></g><g class=" djs-group djs-shape" transform="matrix(1,0,0,1,567,294)"><rect x="-10" y="-10" width="52.04774055370054" height="52" fill="none" class="djs-outline" style=""></rect><circle cx="16" cy="16" r="16" stroke="#000000" fill="none" class="djs-hit" style="stroke-width: 4px; stroke-opacity: 0;"></circle><circle cx="16" cy="16" r="16" stroke="#000000" fill="#ffffff" class=" djs-visual" style="stroke-width: 4px;"></circle></g><g class=" djs-group djs-shape" transform="matrix(1,0,0,1,414,158)"><rect x="-10" y="-10" width="103" height="88" fill="none" class="djs-outline" style=""></rect><rect x="0" y="0" width="83" height="68" rx="8" ry="8" stroke="#000000" fill="none" class="djs-hit" style="stroke-width: 2px; stroke-opacity: 0;"></rect><rect x="0" y="0" width="83" height="68" rx="8" ry="8" stroke="#000000" fill="#ffffff" class=" djs-visual" style="stroke-width: 2px;"></rect></g><g class=" djs-group djs-shape" transform="matrix(1,0,0,1,426,276)"><rect x="-10" y="-10" width="103" height="88" fill="none" class="djs-outline" style=""></rect><rect x="0" y="0" width="83" height="68" rx="8" ry="8" stroke="#000000" fill="none" class="djs-hit" style="stroke-width: 2px; stroke-opacity: 0;"></rect><rect x="0" y="0" width="83" height="68" rx="8" ry="8" stroke="#000000" fill="#ffffff" class=" djs-visual" style="stroke-width: 2px;"></rect></g><g class=" djs-group djs-shape" transform="matrix(1,0,0,1,525,416)"><rect x="-10" y="-10" width="52.04774055370054" height="52" fill="none" class="djs-outline" style=""></rect><circle cx="16" cy="16" r="16" stroke="#000000" fill="none" class="djs-hit" style="stroke-width: 4px; stroke-opacity: 0;"></circle><circle cx="16" cy="16" r="16" stroke="#000000" fill="#ffffff" class=" djs-visual" style="stroke-width: 4px;"></circle></g><g class=" djs-group djs-connection"><polyline points="102,310,145,310" fill="none" stroke="#000000" class="djs-hit" style="stroke-width: 2px; marker-end: url(#Sht6uul0o69); stroke-opacity: 0;"></polyline><polyline points="102,310,145,310" fill="none" stroke="#000000" class=" djs-visual" style="stroke-width: 2px; marker-end: url(#Sht6uul0o69);"></polyline></g><g class=" djs-group djs-connection"><polyline points="228,310,246,310,282,310" fill="none" stroke="#000000" class="djs-hit" style="stroke-width: 2px; marker-end: url(#Sht6uul0o69); stroke-opacity: 0;"></polyline><polyline points="228,310,246,310,282,310" fill="none" stroke="#000000" class=" djs-visual" style="stroke-width: 2px; marker-end: url(#Sht6uul0o69);"></polyline></g><g class=" djs-group djs-connection"><polyline points="363,370,363,432,409,432" fill="none" stroke="#000000" class="djs-hit" style="stroke-width: 2px; marker-end: url(#Sht6uul0o69); stroke-opacity: 0;"></polyline><polyline points="363,370,363,432,409,432" fill="none" stroke="#000000" class=" djs-visual" style="stroke-width: 2px; marker-end: url(#Sht6uul0o69);"></polyline></g><g class=" djs-group djs-connection"><polyline points="354,250,354,192,414,192" fill="none" stroke="#000000" class="djs-hit" style="stroke-width: 2px; marker-end: url(#Sht6uul0o69); stroke-opacity: 0;"></polyline><polyline points="354,250,354,192,414,192" fill="none" stroke="#000000" class=" djs-visual" style="stroke-width: 2px; marker-end: url(#Sht6uul0o69);"></polyline></g><g class=" djs-group djs-connection"><polyline points="390,310,408,310,426,310" fill="none" stroke="#000000" class="djs-hit" style="stroke-width: 2px; marker-end: url(#Sht6uul0o69); stroke-opacity: 0;"></polyline><polyline points="390,310,408,310,426,310" fill="none" stroke="#000000" class=" djs-visual" style="stroke-width: 2px; marker-end: url(#Sht6uul0o69);"></polyline></g><g class=" djs-group djs-connection"><polyline points="509,310,527,310,567,310" fill="none" stroke="#000000" class="djs-hit" style="stroke-width: 2px; marker-end: url(#Sht6uul0o69); stroke-opacity: 0;"></polyline><polyline points="509,310,527,310,567,310" fill="none" stroke="#000000" class=" djs-visual" style="stroke-width: 2px; marker-end: url(#Sht6uul0o69);"></polyline></g><g class=" djs-group djs-connection"><polyline points="498,192,583,192,583,294" fill="none" stroke="#000000" class="djs-hit" style="stroke-width: 2px; marker-end: url(#Sht6uul0o69); stroke-opacity: 0;"></polyline><polyline points="498,192,583,192,583,294" fill="none" stroke="#000000" class=" djs-visual" style="stroke-width: 2px; marker-end: url(#Sht6uul0o69);"></polyline></g><g class=" djs-group djs-connection"><polyline points="492,432,525,432" fill="none" stroke="#000000" class="djs-hit" style="stroke-width: 2px; marker-end: url(#Sht6uul0o69); stroke-opacity: 0;"></polyline><polyline points="492,432,525,432" fill="none" stroke="#000000" class=" djs-visual" style="stroke-width: 2px; marker-end: url(#Sht6uul0o69);"></polyline></g></svg>