<?xml version="1.0" encoding="utf-8"?>
<!-- created with bpmn-js / http://bpmn.io -->
<!DOCTYPE svg PUBLIC "-//W3C//DTD SVG 1.1 Basic//EN" "http://www.w3.org/Graphics/SVG/1.1/DTD/svg11-basic.dtd">
<svg xmlns="http://www.w3.org/2000/svg" xmlns:xlink="http://www.w3.org/1999/xlink" version="1.1" baseProfile="basic">
<svg width="100%" height="100%" viewBox="0 0 1024 768"><desc>Created with Snap</desc><defs><marker viewBox="0 0 10 10" markerWidth="11" markerHeight="11" orient="auto" refX="10" refY="5" id="Shvnjr8zw3" markerUnits="strokeWidth" style="overflow-x: visible; overflow-y: visible; "><path d="M 0 0 L 10 5 L 0 10 Z" style="" fill="#000000" stroke="none"></path></marker><marker viewBox="0 0 10 10" markerWidth="14" markerHeight="14" orient="auto" refX="4" refY="4" id="Shvnjr8zw5" markerUnits="strokeWidth" style="overflow-x: visible; overflow-y: visible; "><circle cx="4" cy="4" r="4" style="stroke-width: 1px; stroke-dasharray: 1px, 0px; " fill="#ffffff" stroke="#000000"></circle></marker><marker viewBox="0 0 10 10" markerWidth="12" markerHeight="12" orient="auto" refX="11" refY="5" id="Shvnjr8zw7" markerUnits="strokeWidth" style="overflow-x: visible; overflow-y: visible; "><path d="M 0 0 L 10 5 L 0 10 Z" style="stroke-width: 1px; stroke-linecap: round; stroke-dasharray: 1px, 0px; " stroke="#000000" fill="#ffffff"></path></marker><marker viewBox="0 0 10 10" markerWidth="10" markerHeight="10" orient="auto" refX="10" refY="5" id="Shvnjr8zw9" style="stroke-width: 1.5px; stroke-linecap: round; stroke-dasharray: 1px, 0px; " stroke="#000000" fill="none"><path d="M 0 0 L 10 5 L 0 10 Z" class="djs-connection-marker"></path></marker><marker viewBox="0 0 10 10" markerWidth="16" markerHeight="9.6" orient="auto" refX="10" refY="5" id="Shvnjr8zwb" markerUnits="strokeWidth" style="overflow-x: visible; overflow-y: visible; stroke-width: 1px; stroke-dasharray: 1px, 0px; "><path d="M 0 0 L 10 5 L 0 10" style="" fill="#ffffff" stroke="#000000"></path></marker><marker viewBox="0 0 15 15" markerWidth="12" markerHeight="12" orient="auto" refX="-8" refY="3.15" id="Shvnjr8zwd" markerUnits="strokeWidth" style="overflow-x: visible; overflow-y: visible; stroke-width: 1px; stroke-dasharray: 1px, 0px; "><path d="M 0,0 7.089123,3.1832974 0.00383366,6.1129516 -7.0814464,3.1832966 z" style="" fill="#ffffff" stroke="#000000"></path></marker><marker viewBox="0 0 15 15" markerWidth="14" markerHeight="13" orient="auto" refX="-4" refY="5.5" id="Shvnjr8zwf" markerUnits="strokeWidth" style="overflow-x: visible; overflow-y: visible; stroke-width: 1px; stroke-dasharray: 1px, 0px; "><path d="M 3,0 10,11" style="" fill="#000000" stroke="#000000"></path></marker><rect width="10" height="10" class="svg---mgr"></rect></defs><g class=" djs-group djs-shape" transform="matrix(1,0,0,1,186,336)"><rect x="-10.02237838454713" y="-10" width="50.04475676909426" height="50" style="" fill="none" class="djs-outline"></rect><rect x="-0.022378384547129704" y="0" width="30.04475676909426" height="30" style="stroke-opacity: 0; " fill="none" class="djs-hit"></rect><circle cx="15" cy="15" r="15" style="stroke-width: 1px; " stroke="#000000" fill="#ffffff" class=" djs-visual"></circle></g><g class=" djs-group djs-shape" transform="matrix(1,0,0,1,126.1443,371.3333)"><rect x="38" y="-2" width="74" height="34" style="" fill="none" class="djs-outline"></rect><rect x="48" y="8" width="54" height="14" style="stroke-opacity: 0; " fill="none" class="djs-hit"></rect><g style="font-family: Arial, sans-serif; font-size: 11px; " class=" djs-label djs-visual"><text x="48.5" y="19">Start Event</text></g></g><g class=" djs-group djs-shape" transform="matrix(1,0,0,1,258,317)"><rect x="-10" y="-10" width="103" height="88" style="" fill="none" class="djs-outline"></rect><rect x="0" y="0" width="83" height="68" style="stroke-opacity: 0; " fill="none" class="djs-hit"></rect><rect x="0" y="0" width="83" height="68" rx="10" ry="10" style="stroke-width: 2px; " stroke="#000000" fill="#ffffff" class=" djs-visual"></rect><g style="font-family: Arial, sans-serif; font-size: 12px; " class=" djs-label"><text x="23" y="37.75">Task 1</text></g></g><g class=" djs-group djs-shape" transform="matrix(1,0,0,1,390,317)"><rect x="-10" y="-10" width="103" height="88" style="" fill="none" class="djs-outline"></rect><rect x="0" y="0" width="83" height="68" style="stroke-opacity: 0; " fill="none" class="djs-hit"></rect><rect x="0" y="0" width="83" height="68" rx="10" ry="10" style="stroke-width: 2px; " stroke="#000000" fill="#ffffff" class=" djs-visual"></rect><g style="font-family: Arial, sans-serif; font-size: 12px; " class=" djs-label"><text x="23" y="37.75">Task 2</text></g></g><g class=" djs-group djs-shape" transform="matrix(1,0,0,1,522,317)"><rect x="-10" y="-10" width="103" height="88" style="" fill="none" class="djs-outline"></rect><rect x="0" y="0" width="83" height="68" style="stroke-opacity: 0; " fill="none" class="djs-hit"></rect><rect x="0" y="0" width="83" height="68" rx="10" ry="10" style="stroke-width: 2px; " stroke="#000000" fill="#ffffff" class=" djs-visual"></rect><g style="font-family: Arial, sans-serif; font-size: 12px; " class=" djs-label"><text x="23" y="37.75">Task 3</text></g></g><g class=" djs-group djs-shape" transform="matrix(1,0,0,1,648,335)"><rect x="-10.023870276850271" y="-10" width="52.04774055370054" height="52" style="" fill="none" class="djs-outline"></rect><rect x="-0.023870276850271543" y="0" width="32.04774055370054" height="32" style="stroke-opacity: 0; " fill="none" class="djs-hit"></rect><circle cx="16" cy="16" r="16" style="stroke-width: 4px; " stroke="#000000" fill="#ffffff" class=" djs-visual"></circle></g><g class=" djs-group djs-shape" transform="matrix(1,0,0,1,589.063,372.3333)"><rect x="41" y="-2" width="68" height="34" style="" fill="none" class="djs-outline"></rect><rect x="51" y="8" width="48" height="14" style="stroke-opacity: 0; " fill="none" class="djs-hit"></rect><g style="font-family: Arial, sans-serif; font-size: 11px; " class=" djs-label djs-visual"><text x="51" y="19">End Event</text></g></g><g class=" djs-group djs-connection"><path d="m  216,351L234,351 L258,351 " style="stroke-width: 1px; marker-end: url(#Shvnjr8zw3); stroke-opacity: 0; " fill="none" stroke="#000000" class="djs-hit"></path><path d="m  216,351L234,351 L258,351 " style="stroke-width: 1px; marker-end: url(#Shvnjr8zw3); " fill="None" stroke="#000000" class=" djs-visual"></path></g><g class=" djs-group djs-shape" transform="matrix(1,0,0,1,180,351)"><rect x="-10" y="-10" width="20" height="20" style="" fill="none" class="djs-outline"></rect><rect x="0" y="0" width="0" height="0" style="stroke-opacity: 0; " fill="none" class="djs-hit"></rect><g style="font-family: Arial, sans-serif; font-size: 11px; " class=" djs-label djs-visual"><text x="45" y="5"></text></g></g><g class=" djs-group djs-connection"><path d="m  342,351L390,351 " style="stroke-width: 1px; marker-end: url(#Shvnjr8zw3); stroke-opacity: 0; " fill="none" stroke="#000000" class="djs-hit"></path><path d="m  342,351L390,351 " style="stroke-width: 1px; marker-end: url(#Shvnjr8zw3); " fill="None" stroke="#000000" class=" djs-visual"></path></g><g class=" djs-group djs-shape" transform="matrix(1,0,0,1,321,351)"><rect x="-10" y="-10" width="20" height="20" style="" fill="none" class="djs-outline"></rect><rect x="0" y="0" width="0" height="0" style="stroke-opacity: 0; " fill="none" class="djs-hit"></rect><g style="font-family: Arial, sans-serif; font-size: 11px; " class=" djs-label djs-visual"><text x="45" y="5"></text></g></g><g class=" djs-group djs-connection"><path d="m  474,351L522,351 " style="stroke-width: 1px; marker-end: url(#Shvnjr8zw3); stroke-opacity: 0; " fill="none" stroke="#000000" class="djs-hit"></path><path d="m  474,351L522,351 " style="stroke-width: 1px; marker-end: url(#Shvnjr8zw3); " fill="None" stroke="#000000" class=" djs-visual"></path></g><g class=" djs-group djs-shape" transform="matrix(1,0,0,1,453,351)"><rect x="-10" y="-10" width="20" height="20" style="" fill="none" class="djs-outline"></rect><rect x="0" y="0" width="0" height="0" style="stroke-opacity: 0; " fill="none" class="djs-hit"></rect><g style="font-family: Arial, sans-serif; font-size: 11px; " class=" djs-label djs-visual"><text x="45" y="5"></text></g></g><g class=" djs-group djs-connection"><path d="m  606,351L624,351 L648,351 " style="stroke-width: 1px; marker-end: url(#Shvnjr8zw3); stroke-opacity: 0; " fill="none" stroke="#000000" class="djs-hit"></path><path d="m  606,351L624,351 L648,351 " style="stroke-width: 1px; marker-end: url(#Shvnjr8zw3); " fill="None" stroke="#000000" class=" djs-visual"></path></g><g class=" djs-group djs-shape" transform="matrix(1,0,0,1,570,351)"><rect x="-10" y="-10" width="20" height="20" style="" fill="none" class="djs-outline"></rect><rect x="0" y="0" width="0" height="0" style="stroke-opacity: 0; " fill="none" class="djs-hit"></rect><g style="font-family: Arial, sans-serif; font-size: 11px; " class=" djs-label djs-visual"><text x="45" y="5"></text></g></g></svg>