<?xml version="1.0" encoding="utf-8"?>
<!-- created with bpmn-js / http://bpmn.io -->
<!DOCTYPE svg PUBLIC "-//W3C//DTD SVG 1.1 Basic//EN" "http://www.w3.org/Graphics/SVG/1.1/DTD/svg11-basic.dtd">
<svg xmlns="http://www.w3.org/2000/svg" xmlns:xlink="http://www.w3.org/1999/xlink" version="1.1" baseProfile="basic">
<svg width="100%" height="100%" viewBox="0 0 1064.29 798.2175"><desc>Created with Snap</desc><defs><marker viewBox="0 0 10 10" markerWidth="11" markerHeight="11" orient="auto" refX="10" refY="5" id="Shvnjrbca3" markerUnits="strokeWidth" style="overflow-x: visible; overflow-y: visible; "><path d="M 0 0 L 10 5 L 0 10 Z" style="" fill="#000000" stroke="none"></path></marker><marker viewBox="0 0 10 10" markerWidth="14" markerHeight="14" orient="auto" refX="4" refY="4" id="Shvnjrbca5" markerUnits="strokeWidth" style="overflow-x: visible; overflow-y: visible; "><circle cx="4" cy="4" r="4" style="stroke-width: 1px; stroke-dasharray: 1px, 0px; " fill="#ffffff" stroke="#000000"></circle></marker><marker viewBox="0 0 10 10" markerWidth="12" markerHeight="12" orient="auto" refX="11" refY="5" id="Shvnjrbca7" markerUnits="strokeWidth" style="overflow-x: visible; overflow-y: visible; "><path d="M 0 0 L 10 5 L 0 10 Z" style="stroke-width: 1px; stroke-linecap: round; stroke-dasharray: 1px, 0px; " stroke="#000000" fill="#ffffff"></path></marker><marker viewBox="0 0 10 10" markerWidth="10" markerHeight="10" orient="auto" refX="10" refY="5" id="Shvnjrbca9" style="stroke-width: 1.5px; stroke-linecap: round; stroke-dasharray: 1px, 0px; " stroke="#000000" fill="none"><path d="M 0 0 L 10 5 L 0 10 Z" class="djs-connection-marker"></path></marker><marker viewBox="0 0 10 10" markerWidth="16" markerHeight="9.6" orient="auto" refX="10" refY="5" id="Shvnjrbcab" markerUnits="strokeWidth" style="overflow-x: visible; overflow-y: visible; stroke-width: 1px; stroke-dasharray: 1px, 0px; "><path d="M 0 0 L 10 5 L 0 10" style="" fill="#ffffff" stroke="#000000"></path></marker><marker viewBox="0 0 15 15" markerWidth="12" markerHeight="12" orient="auto" refX="-8" refY="3.15" id="Shvnjrbcad" markerUnits="strokeWidth" style="overflow-x: visible; overflow-y: visible; stroke-width: 1px; stroke-dasharray: 1px, 0px; "><path d="M 0,0 7.089123,3.1832974 0.00383366,6.1129516 -7.0814464,3.1832966 z" style="" fill="#ffffff" stroke="#000000"></path></marker><marker viewBox="0 0 15 15" markerWidth="14" markerHeight="13" orient="auto" refX="-4" refY="5.5" id="Shvnjrbcaf" markerUnits="strokeWidth" style="overflow-x: visible; overflow-y: visible; stroke-width: 1px; stroke-dasharray: 1px, 0px; "><path d="M 3,0 10,11" style="" fill="#000000" stroke="#000000"></path></marker><rect width="10" height="10" class="svg---mgr"></rect></defs><g class=" djs-group djs-shape" transform="matrix(1,0,0,1,214.2857,72.5)"><rect x="-10" y="-10" width="210.00000000000003" height="698.5" style="" fill="none" class="djs-outline"></rect><rect x="0" y="0" width="190.00000000000003" height="678.5" style="stroke-opacity: 0; " fill="none" class="djs-hit"></rect><rect x="0" y="0" width="190.00000000000003" height="678.5" rx="0" ry="0" style="stroke-width: 2px; " stroke="#000000" fill="None" class=" djs-visual"></rect><polyline points="30,0,30,678.5" style="stroke-width: 2px; " fill="none" stroke="#000000"></polyline><g style="font-family: Arial, sans-serif; font-size: 12px; " class=" djs-label" transform="matrix(0,-1,1,0,0,678.5)"><text x="321.75" y="18.75">Pool 1</text></g></g><g class=" djs-group djs-shape" transform="matrix(1,0,0,1,214.2857,102.5)"><rect x="-10" y="-10" width="210.00000000000003" height="668.5" style="" fill="none" class="djs-outline"></rect><rect x="0" y="0" width="190.00000000000003" height="648.5" style="stroke-opacity: 0; " fill="none" class="djs-hit"></rect><rect x="0" y="0" width="190.00000000000003" height="648.5" rx="0" ry="0" style="stroke-width: 2px; " stroke="#000000" fill="None" class=" djs-visual"></rect><g style="font-family: Arial, sans-serif; font-size: 12px; " class=" djs-label" transform="matrix(0,-1,1,0,0,648.5)"><text x="305.25" y="18.75">Lane 1</text></g></g><g class=" djs-group djs-shape" transform="matrix(1,0,0,1,305,697.8)"><rect x="-10.020886492243987" y="-10" width="48.04177298448798" height="48" style="" fill="none" class="djs-outline"></rect><rect x="-0.020886492243987087" y="0" width="28.041772984487977" height="28" style="stroke-opacity: 0; " fill="none" class="djs-hit"></rect><circle cx="14" cy="14" r="14" style="stroke-width: 4px; " stroke="#000000" fill="#ffffff" class=" djs-visual"></circle></g><g class=" djs-group djs-shape" transform="matrix(1,0,0,1,244,727.8)"><rect x="36" y="-2" width="78" height="34" style="" fill="none" class="djs-outline"></rect><rect x="46" y="8" width="58" height="14" style="stroke-opacity: 0; " fill="none" class="djs-hit"></rect><g style="font-family: Arial, sans-serif; font-size: 11px; " class=" djs-label djs-visual"><text x="46.5" y="19">End Event 1 </text></g></g><g class=" djs-group djs-shape" transform="matrix(1,0,0,1,302.6429,165.8)"><rect x="-10.02237838454713" y="-10" width="50.04475676909426" height="50" style="" fill="none" class="djs-outline"></rect><rect x="-0.022378384547129704" y="0" width="30.04475676909426" height="30" style="stroke-opacity: 0; " fill="none" class="djs-hit"></rect><circle cx="15" cy="15" r="15" style="stroke-width: 1px; " stroke="#000000" fill="#ffffff" class=" djs-visual"></circle></g><g class=" djs-group djs-shape" transform="matrix(1,0,0,1,243.6429,146.8)"><rect x="34" y="-2" width="82" height="34" style="" fill="none" class="djs-outline"></rect><rect x="44" y="8" width="62" height="14" style="stroke-opacity: 0; " fill="none" class="djs-hit"></rect><g style="font-family: Arial, sans-serif; font-size: 11px; " class=" djs-label djs-visual"><text x="44" y="19">Start Event 1 </text></g></g><g class=" djs-group djs-shape" transform="matrix(1,0,0,1,275.6429,224.45)"><rect x="-10" y="-10" width="103" height="87.99999999999997" style="" fill="none" class="djs-outline"></rect><rect x="0" y="0" width="83" height="67.99999999999997" style="stroke-opacity: 0; " fill="none" class="djs-hit"></rect><rect x="0" y="0" width="83" height="67.99999999999997" rx="10" ry="10" style="stroke-width: 2px; " stroke="#000000" fill="#ffffff" class=" djs-visual"></rect><g style="font-family: Arial, sans-serif; font-size: 12px; " class=" djs-label"><text x="23" y="37.749999999999986">Task 1 </text></g></g><g class=" djs-group djs-shape" transform="matrix(1,0,0,1,278,607.75)"><rect x="-10" y="-10" width="103" height="88" style="" fill="none" class="djs-outline"></rect><rect x="0" y="0" width="83" height="68" style="stroke-opacity: 0; " fill="none" class="djs-hit"></rect><rect x="0" y="0" width="83" height="68" rx="10" ry="10" style="stroke-width: 2px; " stroke="#000000" fill="#ffffff" class=" djs-visual"></rect><g style="font-family: Arial, sans-serif; font-size: 12px; " class=" djs-label"><text x="23" y="37.75">Task 2 </text></g></g><g class=" djs-group djs-connection"><path d="m  317.4710358370152,195.79999999999995L317.14285714285717,224.44999999999996 " style="stroke-width: 1px; marker-end: url(#Shvnjrbca3); stroke-opacity: 0; " fill="none" stroke="#000000" class="djs-hit"></path><path d="m  317.4710358370152,195.79999999999995L317.14285714285717,224.44999999999996 " style="stroke-width: 1px; marker-end: url(#Shvnjrbca3); " fill="None" stroke="#000000" class=" djs-visual"></path></g><g class=" djs-group djs-shape" transform="matrix(1,0,0,1,272.3069,210.125)"><rect x="-10" y="-10" width="20" height="20" style="" fill="none" class="djs-outline"></rect><rect x="0" y="0" width="0" height="0" style="stroke-opacity: 0; " fill="none" class="djs-hit"></rect><g style="font-family: Arial, sans-serif; font-size: 11px; " class=" djs-label djs-visual"><text x="45" y="5"></text></g></g><g class=" djs-group djs-connection"><path d="m  318.32142857142856,292.44999999999993L318.32142857142856,607.75 " style="stroke-width: 1px; marker-end: url(#Shvnjrbca3); stroke-opacity: 0; " fill="none" stroke="#000000" class="djs-hit"></path><path d="m  318.32142857142856,292.44999999999993L318.32142857142856,607.75 " style="stroke-width: 1px; marker-end: url(#Shvnjrbca3); " fill="None" stroke="#000000" class=" djs-visual"></path></g><g class=" djs-group djs-shape" transform="matrix(1,0,0,1,273.3214,450.1)"><rect x="-10" y="-10" width="20" height="20" style="" fill="none" class="djs-outline"></rect><rect x="0" y="0" width="0" height="0" style="stroke-opacity: 0; " fill="none" class="djs-hit"></rect><g style="font-family: Arial, sans-serif; font-size: 11px; " class=" djs-label djs-visual"><text x="45" y="5"></text></g></g><g class=" djs-group djs-connection"><path d="m  320,675.75L319.3883495145631,697.8 " style="stroke-width: 1px; marker-end: url(#Shvnjrbca3); stroke-opacity: 0; " fill="none" stroke="#000000" class="djs-hit"></path><path d="m  320,675.75L319.3883495145631,697.8 " style="stroke-width: 1px; marker-end: url(#Shvnjrbca3); " fill="None" stroke="#000000" class=" djs-visual"></path></g><g class=" djs-group djs-shape" transform="matrix(1,0,0,1,274.6942,686.775)"><rect x="-10" y="-10" width="20" height="20" style="" fill="none" class="djs-outline"></rect><rect x="0" y="0" width="0" height="0" style="stroke-opacity: 0; " fill="none" class="djs-hit"></rect><g style="font-family: Arial, sans-serif; font-size: 11px; " class=" djs-label djs-visual"><text x="45" y="5"></text></g></g><g class=" djs-group djs-shape" transform="matrix(1,0,0,1,472.8571,73.5)"><rect x="-10" y="-10" width="601.4285714285713" height="696.4000000000001" style="" fill="none" class="djs-outline"></rect><rect x="0" y="0" width="581.4285714285713" height="676.4000000000001" style="stroke-opacity: 0; " fill="none" class="djs-hit"></rect><rect x="0" y="0" width="581.4285714285713" height="676.4000000000001" rx="0" ry="0" style="stroke-width: 2px; " stroke="#000000" fill="None" class=" djs-visual"></rect><polyline points="30,0,30,676.4000000000001" style="stroke-width: 2px; " fill="none" stroke="#000000"></polyline><g style="font-family: Arial, sans-serif; font-size: 12px; " class=" djs-label" transform="matrix(0,-1,1,0,0,676.4)"><text x="320.70000000000005" y="18.75">Pool 2</text></g></g><g class=" djs-group djs-shape" transform="matrix(1,0,0,1,472.8571,103.5)"><rect x="-10" y="-10" width="309.99999999999994" height="666.4000000000001" style="" fill="none" class="djs-outline"></rect><rect x="0" y="0" width="289.99999999999994" height="646.4000000000001" style="stroke-opacity: 0; " fill="none" class="djs-hit"></rect><rect x="0" y="0" width="289.99999999999994" height="646.4000000000001" rx="0" ry="0" style="stroke-width: 2px; " stroke="#000000" fill="None" class=" djs-visual"></rect><g style="font-family: Arial, sans-serif; font-size: 12px; " class=" djs-label" transform="matrix(0,-1,1,0,0,646.4)"><text x="304.20000000000005" y="18.75">Lane 2 </text></g></g><g class=" djs-group djs-shape" transform="matrix(1,0,0,1,601.8571,696.7)"><rect x="-10.020886492243987" y="-10" width="48.04177298448798" height="48" style="" fill="none" class="djs-outline"></rect><rect x="-0.020886492243987087" y="0" width="28.041772984487977" height="28" style="stroke-opacity: 0; " fill="none" class="djs-hit"></rect><circle cx="14" cy="14" r="14" style="stroke-width: 4px; " stroke="#000000" fill="#ffffff" class=" djs-visual"></circle></g><g class=" djs-group djs-shape" transform="matrix(1,0,0,1,540.8571,726.7)"><rect x="36" y="-2" width="78" height="34" style="" fill="none" class="djs-outline"></rect><rect x="46" y="8" width="58" height="14" style="stroke-opacity: 0; " fill="none" class="djs-hit"></rect><g style="font-family: Arial, sans-serif; font-size: 11px; " class=" djs-label djs-visual"><text x="46.5" y="19">End Event 2 </text></g></g><g class=" djs-group djs-shape" transform="matrix(1,0,0,1,575.8571,225.35)"><rect x="-10" y="-10" width="103" height="88.00000000000003" style="" fill="none" class="djs-outline"></rect><rect x="0" y="0" width="83" height="68.00000000000003" style="stroke-opacity: 0; " fill="none" class="djs-hit"></rect><rect x="0" y="0" width="83" height="68.00000000000003" rx="10" ry="10" style="stroke-width: 2px; " stroke="#000000" fill="#ffffff" class=" djs-visual"></rect><g style="font-family: Arial, sans-serif; font-size: 12px; " class=" djs-label"><text x="23" y="37.750000000000014">Task 3 </text></g></g><g class=" djs-group djs-shape" transform="matrix(1,0,0,1,518.8571,320.2)"><rect x="-10" y="-10" width="217.1428571428571" height="278.5000000000001" style="" fill="none" class="djs-outline"></rect><rect x="0" y="0" width="197.1428571428571" height="258.5000000000001" style="stroke-opacity: 0; " fill="none" class="djs-hit"></rect><rect x="0" y="0" width="197.1428571428571" height="258.5000000000001" rx="10" ry="10" style="stroke-width: 2px; " stroke="#000000" fill="#ffffff" class=" djs-visual"></rect><g style="font-family: Arial, sans-serif; font-size: 12px; " class=" djs-label"><text x="28.571428571428555" y="20">Expanded Sub-Process 1 </text></g></g><g class=" djs-group djs-shape" transform="matrix(1,0,0,1,602.8571,368.5)"><rect x="-10.02237838454713" y="-10" width="50.04475676909426" height="50" style="" fill="none" class="djs-outline"></rect><rect x="-0.022378384547129704" y="0" width="30.04475676909426" height="30" style="stroke-opacity: 0; " fill="none" class="djs-hit"></rect><circle cx="15" cy="15" r="15" style="stroke-width: 1px; " stroke="#000000" fill="#ffffff" class=" djs-visual"></circle></g><g class=" djs-group djs-shape" transform="matrix(1,0,0,1,543.8571,349.5)"><rect x="34" y="-2" width="82" height="34" style="" fill="none" class="djs-outline"></rect><rect x="44" y="8" width="62" height="14" style="stroke-opacity: 0; " fill="none" class="djs-hit"></rect><g style="font-family: Arial, sans-serif; font-size: 11px; " class=" djs-label djs-visual"><text x="44" y="19">Start Event 3 </text></g></g><g class=" djs-group djs-shape" transform="matrix(1,0,0,1,575.8571,434.85)"><rect x="-10" y="-10" width="103" height="88" style="" fill="none" class="djs-outline"></rect><rect x="0" y="0" width="83" height="68" style="stroke-opacity: 0; " fill="none" class="djs-hit"></rect><rect x="0" y="0" width="83" height="68" rx="10" ry="10" style="stroke-width: 2px; " stroke="#000000" fill="#ffffff" class=" djs-visual"></rect><g style="font-family: Arial, sans-serif; font-size: 12px; " class=" djs-label"><text x="23" y="37.75">Task 4 </text></g></g><g class=" djs-group djs-shape" transform="matrix(1,0,0,1,602.8571,527.8)"><rect x="-10.020886492243987" y="-10" width="48.04177298448798" height="48" style="" fill="none" class="djs-outline"></rect><rect x="-0.020886492243987087" y="0" width="28.041772984487977" height="28" style="stroke-opacity: 0; " fill="none" class="djs-hit"></rect><circle cx="14" cy="14" r="14" style="stroke-width: 4px; " stroke="#000000" fill="#ffffff" class=" djs-visual"></circle></g><g class=" djs-group djs-shape" transform="matrix(1,0,0,1,541.8571,557.8)"><rect x="36" y="-2" width="78" height="34" style="" fill="none" class="djs-outline"></rect><rect x="46" y="8" width="58" height="14" style="stroke-opacity: 0; " fill="none" class="djs-hit"></rect><g style="font-family: Arial, sans-serif; font-size: 11px; " class=" djs-label djs-visual"><text x="46.5" y="19">End Event 3 </text></g></g><g class=" djs-group djs-connection"><path d="m  617.7110863819724,398.49999999999994L617.3571428571429,434.8499999999999 " style="stroke-width: 1px; marker-end: url(#Shvnjrbca3); stroke-opacity: 0; " fill="none" stroke="#000000" class="djs-hit"></path><path d="m  617.7110863819724,398.49999999999994L617.3571428571429,434.8499999999999 " style="stroke-width: 1px; marker-end: url(#Shvnjrbca3); " fill="None" stroke="#000000" class=" djs-visual"></path></g><g class=" djs-group djs-shape" transform="matrix(1,0,0,1,572.5341,416.675)"><rect x="-10" y="-10" width="20" height="20" style="" fill="none" class="djs-outline"></rect><rect x="0" y="0" width="0" height="0" style="stroke-opacity: 0; " fill="none" class="djs-hit"></rect><g style="font-family: Arial, sans-serif; font-size: 11px; " class=" djs-label djs-visual"><text x="45" y="5"></text></g></g><g class=" djs-group djs-connection"><path d="m  617.3571428571429,502.8499999999999L617.0368604437924,527.8 " style="stroke-width: 1px; marker-end: url(#Shvnjrbca3); stroke-opacity: 0; " fill="none" stroke="#000000" class="djs-hit"></path><path d="m  617.3571428571429,502.8499999999999L617.0368604437924,527.8 " style="stroke-width: 1px; marker-end: url(#Shvnjrbca3); " fill="None" stroke="#000000" class=" djs-visual"></path></g><g class=" djs-group djs-shape" transform="matrix(1,0,0,1,572.197,515.325)"><rect x="-10" y="-10" width="20" height="20" style="" fill="none" class="djs-outline"></rect><rect x="0" y="0" width="0" height="0" style="stroke-opacity: 0; " fill="none" class="djs-hit"></rect><g style="font-family: Arial, sans-serif; font-size: 11px; " class=" djs-label djs-visual"><text x="45" y="5"></text></g></g><g class=" djs-group djs-shape" transform="matrix(1,0,0,1,575.1429,607.75)"><rect x="-10" y="-10" width="103" height="88" style="" fill="none" class="djs-outline"></rect><rect x="0" y="0" width="83" height="68" style="stroke-opacity: 0; " fill="none" class="djs-hit"></rect><rect x="0" y="0" width="83" height="68" rx="10" ry="10" style="stroke-width: 2px; " stroke="#000000" fill="#ffffff" class=" djs-visual"></rect><g style="font-family: Arial, sans-serif; font-size: 12px; " class=" djs-label"><text x="23" y="37.75">Task 5 </text></g></g><g class=" djs-group djs-shape" transform="matrix(1,0,0,1,602.1429,164.7)"><rect x="-10.02237838454713" y="-10" width="50.04475676909426" height="50" style="" fill="none" class="djs-outline"></rect><rect x="-0.022378384547129704" y="0" width="30.04475676909426" height="30" style="stroke-opacity: 0; " fill="none" class="djs-hit"></rect><circle cx="15" cy="15" r="15" style="stroke-width: 1px; " stroke="#000000" fill="#ffffff" class=" djs-visual"></circle></g><g class=" djs-group djs-shape" transform="matrix(1,0,0,1,543.1429,145.7)"><rect x="34" y="-2" width="82" height="34" style="" fill="none" class="djs-outline"></rect><rect x="44" y="8" width="62" height="14" style="stroke-opacity: 0; " fill="none" class="djs-hit"></rect><g style="font-family: Arial, sans-serif; font-size: 11px; " class=" djs-label djs-visual"><text x="44" y="19">Start Event 2 </text></g></g><g class=" djs-group djs-shape" transform="matrix(1,0,0,1,762.8571,103.5)"><rect x="-10" y="-10" width="311.4285714285714" height="666.4000000000001" style="" fill="none" class="djs-outline"></rect><rect x="0" y="0" width="291.4285714285714" height="646.4000000000001" style="stroke-opacity: 0; " fill="none" class="djs-hit"></rect><rect x="0" y="0" width="291.4285714285714" height="646.4000000000001" rx="0" ry="0" style="stroke-width: 2px; " stroke="#000000" fill="None" class=" djs-visual"></rect><g style="font-family: Arial, sans-serif; font-size: 12px; " class=" djs-label" transform="matrix(0,-1,1,0,0,646.4)"><text x="304.20000000000005" y="18.75">Lane 3</text></g></g><g class=" djs-group djs-shape" transform="matrix(1,0,0,1,882.8571,696.7)"><rect x="-10.020886492243987" y="-10" width="48.04177298448798" height="48" style="" fill="none" class="djs-outline"></rect><rect x="-0.020886492243987087" y="0" width="28.041772984487977" height="28" style="stroke-opacity: 0; " fill="none" class="djs-hit"></rect><circle cx="14" cy="14" r="14" style="stroke-width: 4px; " stroke="#000000" fill="#ffffff" class=" djs-visual"></circle></g><g class=" djs-group djs-shape" transform="matrix(1,0,0,1,821.8571,726.7)"><rect x="36" y="-2" width="78" height="34" style="" fill="none" class="djs-outline"></rect><rect x="46" y="8" width="58" height="14" style="stroke-opacity: 0; " fill="none" class="djs-hit"></rect><g style="font-family: Arial, sans-serif; font-size: 11px; " class=" djs-label djs-visual"><text x="46.5" y="19">End Event 5 </text></g></g><g class=" djs-group djs-shape" transform="matrix(1,0,0,1,792.8571,322)"><rect x="-10" y="-10" width="230" height="276.70000000000005" style="" fill="none" class="djs-outline"></rect><rect x="0" y="0" width="210" height="256.70000000000005" style="stroke-opacity: 0; " fill="none" class="djs-hit"></rect><rect x="0" y="0" width="210" height="256.70000000000005" rx="10" ry="10" style="stroke-width: 2px; " stroke="#000000" fill="#ffffff" class=" djs-visual"></rect><g style="font-family: Arial, sans-serif; font-size: 12px; " class=" djs-label"><text x="35" y="20">Expanded Sub-Process 2 </text></g></g><g class=" djs-group djs-shape" transform="matrix(1,0,0,1,882.8571,368.5)"><rect x="-10.02237838454713" y="-10" width="50.04475676909426" height="50" style="" fill="none" class="djs-outline"></rect><rect x="-0.022378384547129704" y="0" width="30.04475676909426" height="30" style="stroke-opacity: 0; " fill="none" class="djs-hit"></rect><circle cx="15" cy="15" r="15" style="stroke-width: 1px; " stroke="#000000" fill="#ffffff" class=" djs-visual"></circle></g><g class=" djs-group djs-shape" transform="matrix(1,0,0,1,823.8571,349.5)"><rect x="34" y="-2" width="82" height="34" style="" fill="none" class="djs-outline"></rect><rect x="44" y="8" width="62" height="14" style="stroke-opacity: 0; " fill="none" class="djs-hit"></rect><g style="font-family: Arial, sans-serif; font-size: 11px; " class=" djs-label djs-visual"><text x="44" y="19">Start Event 4 </text></g></g><g class=" djs-group djs-shape" transform="matrix(1,0,0,1,855.8571,434.85)"><rect x="-10" y="-10" width="103" height="88" style="" fill="none" class="djs-outline"></rect><rect x="0" y="0" width="83" height="68" style="stroke-opacity: 0; " fill="none" class="djs-hit"></rect><rect x="0" y="0" width="83" height="68" rx="10" ry="10" style="stroke-width: 2px; " stroke="#000000" fill="#ffffff" class=" djs-visual"></rect><g style="font-family: Arial, sans-serif; font-size: 12px; " class=" djs-label"><text x="23" y="37.75">Task 6 </text></g></g><g class=" djs-group djs-shape" transform="matrix(1,0,0,1,882.8571,527.8)"><rect x="-10.020886492243987" y="-10" width="48.04177298448798" height="48" style="" fill="none" class="djs-outline"></rect><rect x="-0.020886492243987087" y="0" width="28.041772984487977" height="28" style="stroke-opacity: 0; " fill="none" class="djs-hit"></rect><circle cx="14" cy="14" r="14" style="stroke-width: 4px; " stroke="#000000" fill="#ffffff" class=" djs-visual"></circle></g><g class=" djs-group djs-shape" transform="matrix(1,0,0,1,821.8571,557.8)"><rect x="36" y="-2" width="78" height="34" style="" fill="none" class="djs-outline"></rect><rect x="46" y="8" width="58" height="14" style="stroke-opacity: 0; " fill="none" class="djs-hit"></rect><g style="font-family: Arial, sans-serif; font-size: 11px; " class=" djs-label djs-visual"><text x="46.5" y="19">End Event 4 </text></g></g><g class=" djs-group djs-connection"><path d="m  897.7110863819722,398.49999999999994L897.3571428571427,434.8499999999999 " style="stroke-width: 1px; marker-end: url(#Shvnjrbca3); stroke-opacity: 0; " fill="none" stroke="#000000" class="djs-hit"></path><path d="m  897.7110863819722,398.49999999999994L897.3571428571427,434.8499999999999 " style="stroke-width: 1px; marker-end: url(#Shvnjrbca3); " fill="None" stroke="#000000" class=" djs-visual"></path></g><g class=" djs-group djs-shape" transform="matrix(1,0,0,1,852.5341,416.675)"><rect x="-10" y="-10" width="20" height="20" style="" fill="none" class="djs-outline"></rect><rect x="0" y="0" width="0" height="0" style="stroke-opacity: 0; " fill="none" class="djs-hit"></rect><g style="font-family: Arial, sans-serif; font-size: 11px; " class=" djs-label djs-visual"><text x="45" y="5"></text></g></g><g class=" djs-group djs-connection"><path d="m  897.3571428571427,502.8499999999999L897.0368604437922,527.8 " style="stroke-width: 1px; marker-end: url(#Shvnjrbca3); stroke-opacity: 0; " fill="none" stroke="#000000" class="djs-hit"></path><path d="m  897.3571428571427,502.8499999999999L897.0368604437922,527.8 " style="stroke-width: 1px; marker-end: url(#Shvnjrbca3); " fill="None" stroke="#000000" class=" djs-visual"></path></g><g class=" djs-group djs-shape" transform="matrix(1,0,0,1,852.197,515.325)"><rect x="-10" y="-10" width="20" height="20" style="" fill="none" class="djs-outline"></rect><rect x="0" y="0" width="0" height="0" style="stroke-opacity: 0; " fill="none" class="djs-hit"></rect><g style="font-family: Arial, sans-serif; font-size: 11px; " class=" djs-label djs-visual"><text x="45" y="5"></text></g></g><g class=" djs-group djs-connection"><path d="m  898.5714285714284,578.7L897.0389610389609,696.7 " style="stroke-width: 1px; marker-end: url(#Shvnjrbca3); stroke-opacity: 0; " fill="none" stroke="#000000" class="djs-hit"></path><path d="m  898.5714285714284,578.7L897.0389610389609,696.7 " style="stroke-width: 1px; marker-end: url(#Shvnjrbca3); " fill="None" stroke="#000000" class=" djs-visual"></path></g><g class=" djs-group djs-shape" transform="matrix(1,0,0,1,852.8052,637.7)"><rect x="-10" y="-10" width="20" height="20" style="" fill="none" class="djs-outline"></rect><rect x="0" y="0" width="0" height="0" style="stroke-opacity: 0; " fill="none" class="djs-hit"></rect><g style="font-family: Arial, sans-serif; font-size: 11px; " class=" djs-label djs-visual"><text x="45" y="5"></text></g></g><g class=" djs-group djs-connection"><path d="m  617.4285714285714,578.7L616.6428571428571,607.75 " style="stroke-width: 1px; marker-end: url(#Shvnjrbca3); stroke-opacity: 0; " fill="none" stroke="#000000" class="djs-hit"></path><path d="m  617.4285714285714,578.7L616.6428571428571,607.75 " style="stroke-width: 1px; marker-end: url(#Shvnjrbca3); " fill="None" stroke="#000000" class=" djs-visual"></path></g><g class=" djs-group djs-shape" transform="matrix(1,0,0,1,572.0357,593.225)"><rect x="-10" y="-10" width="20" height="20" style="" fill="none" class="djs-outline"></rect><rect x="0" y="0" width="0" height="0" style="stroke-opacity: 0; " fill="none" class="djs-hit"></rect><g style="font-family: Arial, sans-serif; font-size: 11px; " class=" djs-label djs-visual"><text x="45" y="5"></text></g></g><g class=" djs-group djs-connection"><path d="m  658.8571428571429,259.35L894.2857142857142,259.35 L894.2857142857142,322 " style="stroke-width: 1px; marker-end: url(#Shvnjrbca3); stroke-opacity: 0; " fill="none" stroke="#000000" class="djs-hit"></path><path d="m  658.8571428571429,259.35L894.2857142857142,259.35 L894.2857142857142,322 " style="stroke-width: 1px; marker-end: url(#Shvnjrbca3); " fill="None" stroke="#000000" class=" djs-visual"></path></g><g class=" djs-group djs-shape" transform="matrix(1,0,0,1,731.5714,259.35)"><rect x="-10" y="-10" width="20" height="20" style="" fill="none" class="djs-outline"></rect><rect x="0" y="0" width="0" height="0" style="stroke-opacity: 0; " fill="none" class="djs-hit"></rect><g style="font-family: Arial, sans-serif; font-size: 11px; " class=" djs-label djs-visual"><text x="45" y="5"></text></g></g><g class=" djs-group djs-connection"><path d="m  617.2132686590518,194.7L617.3571428571429,225.35 " style="stroke-width: 1px; marker-end: url(#Shvnjrbca3); stroke-opacity: 0; " fill="none" stroke="#000000" class="djs-hit"></path><path d="m  617.2132686590518,194.7L617.3571428571429,225.35 " style="stroke-width: 1px; marker-end: url(#Shvnjrbca3); " fill="None" stroke="#000000" class=" djs-visual"></path></g><g class=" djs-group djs-shape" transform="matrix(1,0,0,1,572.2852,210.025)"><rect x="-10" y="-10" width="20" height="20" style="" fill="none" class="djs-outline"></rect><rect x="0" y="0" width="0" height="0" style="stroke-opacity: 0; " fill="none" class="djs-hit"></rect><g style="font-family: Arial, sans-serif; font-size: 11px; " class=" djs-label djs-visual"><text x="45" y="5"></text></g></g><g class=" djs-group djs-connection"><path d="m  616.6428571428571,293.35L616.6428571428571,320.19999999999993 " style="stroke-width: 1px; marker-end: url(#Shvnjrbca3); stroke-opacity: 0; " fill="none" stroke="#000000" class="djs-hit"></path><path d="m  616.6428571428571,293.35L616.6428571428571,320.19999999999993 " style="stroke-width: 1px; marker-end: url(#Shvnjrbca3); " fill="None" stroke="#000000" class=" djs-visual"></path></g><g class=" djs-group djs-shape" transform="matrix(1,0,0,1,571.6429,306.775)"><rect x="-10" y="-10" width="20" height="20" style="" fill="none" class="djs-outline"></rect><rect x="0" y="0" width="0" height="0" style="stroke-opacity: 0; " fill="none" class="djs-hit"></rect><g style="font-family: Arial, sans-serif; font-size: 11px; " class=" djs-label djs-visual"><text x="45" y="5"></text></g></g><g class=" djs-group djs-connection"><path d="m  616.8571428571429,675.75L616.2577151032087,696.7 " style="stroke-width: 1px; marker-end: url(#Shvnjrbca3); stroke-opacity: 0; " fill="none" stroke="#000000" class="djs-hit"></path><path d="m  616.8571428571429,675.75L616.2577151032087,696.7 " style="stroke-width: 1px; marker-end: url(#Shvnjrbca3); " fill="None" stroke="#000000" class=" djs-visual"></path></g><g class=" djs-group djs-shape" transform="matrix(1,0,0,1,571.5574,686.225)"><rect x="-10" y="-10" width="20" height="20" style="" fill="none" class="djs-outline"></rect><rect x="0" y="0" width="0" height="0" style="stroke-opacity: 0; " fill="none" class="djs-hit"></rect><g style="font-family: Arial, sans-serif; font-size: 11px; " class=" djs-label djs-visual"><text x="45" y="5"></text></g></g><g class=" djs-group djs-connection"><path d="m  575.1428571428571,641.75L361,641.75 " style="marker-end: url(#Shvnjrbca7); marker-start: url(#Shvnjrbca5); stroke-dasharray: 3px; stroke-width: 1px; stroke-opacity: 0; " fill="none" stroke="#000000" class="djs-hit"></path><path d="m  575.1428571428571,641.75L361,641.75 " style="marker-end: url(#Shvnjrbca7); marker-start: url(#Shvnjrbca5); stroke-dasharray: 3px; stroke-width: 1px; " fill="None" stroke="#000000" class=" djs-visual"></path></g><g class=" djs-group djs-connection"><path d="m  358.64285714285717,258.9L575.8571428571429,258.9 " style="marker-end: url(#Shvnjrbca7); marker-start: url(#Shvnjrbca5); stroke-dasharray: 3px; stroke-width: 1px; stroke-opacity: 0; " fill="none" stroke="#000000" class="djs-hit"></path><path d="m  358.64285714285717,258.9L575.8571428571429,258.9 " style="marker-end: url(#Shvnjrbca7); marker-start: url(#Shvnjrbca5); stroke-dasharray: 3px; stroke-width: 1px; " fill="None" stroke="#000000" class=" djs-visual"></path></g></svg>